<?xml version="1.0" standalone="no"?>
<!DOCTYPE svg PUBLIC "-//W3C//DTD SVG 1.1//EN" "http://www.w3.org/Graphics/SVG/1.1/DTD/svg11.dtd" >
<svg xmlns="http://www.w3.org/2000/svg" xmlns:xlink="http://www.w3.org/1999/xlink" version="1.1">
<metadata>
Created by FontForge 20190801 at Mon Nov 28 10:47:46 2011
 By Jimmy Wärting
Copyright (c) 2011 by IBRAHIM HAMDI's. All rights reserved.
</metadata>
<defs>
<font id="CoconNextArabic-Bold" horiz-adv-x="0" >
  <font-face 
    font-family="Cocon Next Arabic"
    font-weight="700"
    font-stretch="normal"
    units-per-em="1000"
    panose-1="2 10 5 3 2 1 2 2 2 4"
    ascent="800"
    descent="-200"
    x-height="456"
    cap-height="604"
    bbox="-233 -325 1492 891"
    underline-thickness="50"
    underline-position="-100"
    unicode-range="U+0020-FEFC"
  />
<missing-glyph horiz-adv-x="550" 
 />
    <glyph glyph-name="lam_alef_madda.isol" unicode="&#xfedf;&#xfe82;" horiz-adv-x="627" arabic-form="isolated" 
d="M318 743v-35c0 -23 -15 -57 -49 -57h-140v47c0 20 16 45 41 45h148zM469 600c59 0 88 -29 88 -87v-339c0 -96 -58 -170 -174 -174h-248c-64 0 -95 28 -95 82v41h108v477h63c34 0 75 -28 75 -68v-409h87c35 2 47 22 47 57v420h49z" />
    <glyph glyph-name="lam_alef_madda.fina" unicode="&#xfee0;&#xfe82;" horiz-adv-x="657" arabic-form="final" 
d="M315 743v-35c0 -23 -16 -57 -49 -57h-141v47c0 20 17 45 42 45h148zM652 123h25v-123h-40c-58 0 -101 10 -136 39c-29 -24 -69 -37 -119 -39h-247c-65 0 -95 28 -95 81v42h108v477h63c34 0 74 -29 74 -69v-408h89c34 2 46 21 46 55v422h49c59 0 88 -31 88 -89v-315
c7 -50 32 -73 95 -73z" />
    <glyph glyph-name="lam_alef_hamza_above.isol" unicode="&#xfedf;&#xfe84;" horiz-adv-x="627" arabic-form="isolated" 
d="M468 600c59 0 89 -30 89 -88v-338c0 -96 -58 -170 -174 -174h-248c-65 0 -95 27 -95 81v42h108v477h63c33 0 75 -29 75 -68v-409h87c35 2 47 22 47 56v421h48zM209 703h90v-25c0 -13 -11 -27 -30 -27h-119c-17 0 -28 14 -28 27v25h29c-1 4 -1 10 -1 17v7
c0 45 27 79 73 79c29 0 58 -13 65 -46c0 -20 -11 -33 -22 -48c-15 50 -37 48 -46 48c-13 0 -17 -13 -17 -30c0 -11 1 -22 6 -27z" />
    <glyph glyph-name="lam_alef_hamza_above.fina" unicode="&#xfee0;&#xfe84;" horiz-adv-x="657" arabic-form="final" 
d="M652 123h25v-123h-40c-58 0 -101 10 -136 39c-29 -24 -69 -37 -119 -39h-247c-65 0 -95 28 -95 81v42h108v477h63c34 0 74 -29 74 -69v-408h89c34 2 46 21 46 55v422h49c59 0 88 -31 88 -89v-315c7 -50 32 -73 95 -73zM209 703h90v-25c0 -13 -11 -27 -30 -27h-119
c-17 0 -28 14 -28 27v25h29c-1 4 -1 10 -1 17v7c0 45 27 79 73 79c29 0 58 -13 65 -46c0 -20 -11 -33 -22 -48c-15 50 -37 48 -46 48c-13 0 -17 -13 -17 -30c0 -11 1 -22 6 -27z" />
    <glyph glyph-name="lam_alef_hamza_below.isol" unicode="&#xfedf;&#xfe88;" horiz-adv-x="627" arabic-form="isolated" 
d="M468 600c59 0 89 -30 89 -88v-338c0 -96 -58 -170 -174 -174h-248c-65 0 -95 27 -95 81v42h108v477h63c33 0 75 -29 75 -68v-409h86c36 2 48 22 48 56v421h48zM131 -152h90v-25c0 -13 -11 -27 -30 -27h-119c-17 0 -28 14 -28 27v25h29c-1 4 -1 10 -1 17v7
c0 45 27 79 73 79c29 0 58 -13 65 -46c0 -20 -11 -33 -22 -48c-15 50 -37 48 -46 48c-13 0 -17 -13 -17 -30c0 -11 1 -22 6 -27z" />
    <glyph glyph-name="lam_alef_hamza_below.fina" unicode="&#xfee0;&#xfe88;" horiz-adv-x="657" arabic-form="final" 
d="M652 123h25v-123h-40c-57 0 -101 11 -136 40c-29 -25 -68 -38 -119 -40h-247c-65 0 -95 28 -95 82v41h108v477h63c34 0 74 -29 74 -69v-408h89c34 2 46 21 46 55v422h49c59 0 88 -30 88 -89v-315c7 -50 32 -73 95 -73zM131 -152h90v-25c0 -13 -11 -27 -30 -27h-119
c-17 0 -28 14 -28 27v25h29c-1 4 -1 10 -1 17v7c0 45 27 79 73 79c29 0 58 -13 65 -46c0 -20 -11 -33 -22 -48c-15 50 -37 48 -46 48c-13 0 -17 -13 -17 -30c0 -11 1 -22 6 -27z" />
    <glyph glyph-name="lam_alef.isol" unicode="&#xfedf;&#xfe8e;" horiz-adv-x="627" arabic-form="isolated" 
d="M468 600c59 0 89 -30 89 -87v-339c0 -96 -58 -170 -174 -174h-248c-65 0 -95 28 -95 81v42h108v477h63c33 0 75 -29 75 -68v-409h87c35 2 47 22 47 57v420h48z" />
    <glyph glyph-name="lam_alef.fina" unicode="&#xfee0;&#xfe8e;" horiz-adv-x="657" arabic-form="final" 
d="M652 123h25v-123h-40c-58 0 -101 10 -136 39c-29 -24 -69 -37 -119 -39h-247c-65 0 -95 28 -95 81v42h108v477h63c34 0 74 -29 74 -69v-408h89c34 2 46 21 46 55v422h49c59 0 88 -31 88 -89v-315c7 -50 32 -73 95 -73z" />
    <glyph glyph-name="hamza.isol" unicode="&#x621;" horiz-adv-x="531" arabic-form="isolated" 
d="M35 123h59c-11 25 -16 55 -16 85c0 122 71 222 204 222c71 0 156 -36 171 -124c0 -18 -3 -35 -11 -51l-29 -67c-36 116 -109 134 -139 134c-48 0 -73 -43 -73 -101c0 -48 9 -80 33 -98h252v-57c0 -30 -28 -66 -69 -66h-313c-42 0 -69 36 -69 66v57z" />
    <glyph glyph-name="alef_madda.isol" unicode="&#x622;" horiz-adv-x="284" arabic-form="isolated" 
d="M206 0h-58c-40 0 -79 27 -79 87v512h62c34 0 75 -29 75 -68v-531zM244 748v-36c0 -25 -17 -61 -52 -61h-152v50c0 22 18 47 43 47h161z" />
    <glyph glyph-name="alef_madda.fina" unicode="&#x622;" horiz-adv-x="266" arabic-form="final" 
d="M240 748v-36c0 -25 -17 -61 -52 -61h-153v50c0 22 18 47 44 47h161zM249 123h27v-123h-36c-116 4 -174 78 -174 174v426h63c34 0 75 -30 75 -70v-367c4 -23 19 -38 45 -40z" />
    <glyph glyph-name="alef_hamza_above.isol" unicode="&#x623;" horiz-adv-x="256" arabic-form="isolated" 
d="M127 703h89v-24c0 -13 -11 -28 -29 -28h-120c-16 0 -27 15 -27 28v24h28c-1 4 -1 10 -1 24c0 45 27 79 74 79c29 0 57 -12 64 -46c0 -21 -7 -30 -21 -48c-15 50 -37 48 -46 48c-13 0 -17 -13 -17 -30c0 -11 1 -22 6 -27zM202 0h-56c-41 0 -80 27 -80 86v514h63
c34 0 73 -28 73 -68v-532z" />
    <glyph glyph-name="alef_hamza_above.fina" unicode="&#x623;" horiz-adv-x="265" arabic-form="final" 
d="M127 703h89v-24c0 -13 -11 -28 -29 -28h-120c-16 0 -27 15 -27 28v24h30c-1 4 -3 10 -3 24c0 45 27 79 74 79c29 0 57 -12 64 -46c0 -18 -6 -26 -13 -36l-8 -12c-15 50 -37 48 -46 48c-13 0 -17 -13 -17 -30c0 -11 1 -22 6 -27zM203 163c4 -23 20 -39 46 -40h26v-123h-36
c-118 4 -173 77 -173 174v426h62c34 0 75 -28 75 -69v-368z" />
    <glyph glyph-name="waw_hamza.isol" unicode="&#x624;" horiz-adv-x="479" arabic-form="isolated" 
d="M430 268c5 -24 9 -50 9 -78l-2 -148c-1 -72 -58 -207 -262 -207c-49 0 -80 26 -80 59v49c103 2 167 30 196 58c-117 6 -256 39 -256 207c0 122 71 222 204 222c26 0 51 -5 74 -13c65 -26 106 -87 117 -149zM233 533h89v-25c0 -13 -11 -28 -29 -28h-119
c-17 0 -28 15 -28 28v25h30c-1 4 -2 10 -2 17v7c0 44 26 79 73 79c29 0 58 -13 64 -47c0 -20 -10 -32 -21 -47c-15 49 -37 47 -46 47c-13 0 -17 -13 -17 -29c0 -11 1 -22 6 -27zM157 221c0 -90 61 -98 116 -98h42v22c-1 81 -2 177 -84 177c-49 0 -74 -43 -74 -101z" />
    <glyph glyph-name="waw_hamza.fina" unicode="&#x624;" horiz-adv-x="528" arabic-form="final" 
d="M233 533h89v-25c0 -13 -11 -28 -29 -28h-119c-17 0 -28 15 -28 28v25h29c-1 4 -1 10 -1 17v7c0 44 26 79 73 79c29 0 58 -13 64 -47c0 -20 -10 -32 -21 -47c-15 49 -37 47 -46 47c-13 0 -17 -13 -17 -29c0 -11 1 -22 6 -27zM313 417c89 -37 126 -132 126 -227l-1 -67h100
v-123h-107c-19 -72 -88 -165 -256 -165c-49 0 -80 26 -80 59v49c103 2 167 30 196 58c-117 6 -256 39 -256 207c0 122 71 222 204 222c26 0 51 -5 74 -13zM157 221c0 -90 61 -98 116 -98h42v22c-1 81 -2 177 -84 177c-49 0 -74 -43 -74 -101z" />
    <glyph glyph-name="alef_hamza_below.isol" unicode="&#x625;" horiz-adv-x="256" arabic-form="isolated" 
d="M202 0h-57c-42 0 -81 28 -81 87v512h64c35 0 74 -30 74 -69v-530zM127 -148h89v-25c0 -12 -11 -27 -29 -27h-120c-16 0 -27 15 -27 27v25h28c-1 4 -1 10 -1 17v7c0 45 27 79 74 79c29 0 57 -13 64 -46c0 -21 -9 -28 -21 -48c-15 50 -37 48 -46 48c-13 0 -17 -13 -17 -30
c0 -11 1 -22 6 -27z" />
    <glyph glyph-name="alef_hamza_below.fina" unicode="&#x625;" horiz-adv-x="234" arabic-form="final" 
d="M120 -153h89v-25c0 -12 -11 -27 -29 -27h-119c-17 0 -28 15 -28 27v25h29c-1 4 -1 10 -1 17v7c0 45 26 79 73 79c29 0 57 -13 64 -46c0 -19 -10 -33 -21 -48c-15 50 -37 48 -46 48c-13 0 -17 -13 -17 -30c0 -11 1 -22 6 -27zM174 162c3 -22 19 -37 46 -39h24v-123h-34
c-116 4 -174 77 -174 174v425h63c35 0 75 -28 75 -69v-368z" />
    <glyph glyph-name="yeh_hamza_above.isol" unicode="&#x626;" horiz-adv-x="894" arabic-form="isolated" 
d="M750 0h-43v304c-130 -8 -148 -107 -158 -212c-10 -132 -45 -241 -206 -241c-179 0 -271 91 -271 260c0 106 49 174 128 174l57 -5c-27 -30 -69 -93 -69 -161c0 -81 12 -148 162 -150c70 0 73 66 79 147c3 64 14 148 49 207c46 68 129 106 249 106h102v-342
c0 -60 -38 -87 -79 -87zM157 383h89v-25c0 -13 -11 -28 -30 -28h-119c-17 0 -27 15 -27 28v25h28c-1 4 -1 10 -1 17v7c0 44 27 79 74 79c28 0 57 -13 64 -47c0 -17 -6 -25 -13 -35c-2 -3 -7 -9 -9 -12c-15 49 -36 47 -45 47c-13 0 -17 -12 -17 -29c0 -11 1 -22 6 -27z" />
    <glyph glyph-name="yeh_hamza_above.fina" unicode="&#x626;" horiz-adv-x="892" arabic-form="final" 
d="M145 383h89v-25c0 -13 -11 -28 -30 -28h-119c-17 0 -27 15 -27 28v25h28c-1 4 -1 10 -1 17v7c0 44 27 79 74 79c28 0 57 -13 64 -47c0 -17 -6 -25 -13 -35c-2 -3 -7 -9 -9 -12c-15 49 -36 47 -45 47c-13 0 -17 -12 -17 -29c0 -11 1 -22 6 -27zM695 0v304
c-130 -8 -148 -107 -158 -212c-10 -132 -45 -241 -206 -241c-179 0 -271 91 -271 260c0 106 49 174 128 174l57 -5c-27 -30 -69 -93 -69 -161c0 -81 12 -148 162 -150c70 0 73 66 79 147c3 64 14 148 49 207c46 68 129 106 249 106h102v-306h85v-123h-207z" />
    <glyph glyph-name="yeh_hamza_above.init" unicode="&#x626;" horiz-adv-x="315" arabic-form="initial" 
d="M178 349c57 0 87 -30 87 -89v-86c0 -96 -57 -170 -174 -174h-101v123h91c35 3 48 22 48 57v169h49zM190 468h89v-23c0 -12 -10 -26 -28 -26h-120c-16 0 -26 14 -26 26v23h30c-3 8 -2 15 -2 26c0 44 26 78 72 78c28 0 56 -12 63 -45c0 -21 -9 -28 -19 -43
c-14 47 -37 45 -47 45c-14 0 -19 -14 -19 -32c0 -13 0 -24 7 -29z" />
    <glyph glyph-name="yeh_hamza_above.medi" unicode="&#x626;" horiz-adv-x="326" arabic-form="medial" 
d="M238 261v-56c2 -57 25 -82 98 -82v-123h-17c-58 0 -102 11 -137 40c-29 -24 -69 -38 -119 -40h-63v123h54c35 2 48 21 48 56v170h48c58 0 88 -29 88 -88zM164 468h89v-23c0 -12 -10 -26 -28 -26h-120c-16 0 -26 14 -26 26v23h30c-3 8 -2 15 -2 26c0 44 26 78 72 78
c28 0 56 -12 63 -45c0 -21 -9 -28 -19 -43c-14 47 -37 45 -47 45c-14 0 -19 -14 -19 -32c0 -13 0 -24 7 -29z" />
    <glyph glyph-name="alef.isol" unicode="&#x627;" horiz-adv-x="221" arabic-form="isolated" 
d="M176 0h-57c-41 0 -79 27 -79 87v513h62c34 0 74 -29 74 -68v-532z" />
    <glyph glyph-name="alef.fina" unicode="&#x627;" horiz-adv-x="229" arabic-form="final" 
d="M173 162c4 -22 19 -37 46 -39h25v-123h-34c-117 4 -175 77 -175 174v426h64c34 0 74 -28 74 -69v-369z" />
    <glyph glyph-name="beh.isol" unicode="&#x628;" horiz-adv-x="780" arabic-form="isolated" 
d="M646 349c58 0 89 -30 89 -89v-86c0 -96 -58 -171 -176 -174h-300c-189 0 -199 161 -199 222c0 98 30 170 115 170h71c-56 -49 -77 -115 -77 -154c0 -33 2 -115 78 -115h303c35 2 47 22 47 57v169h49zM417 -183c-38 0 -68 30 -68 68c0 37 30 67 68 67s69 -30 69 -67
c0 -38 -31 -68 -69 -68z" />
    <glyph glyph-name="beh.fina" unicode="&#x628;" horiz-adv-x="790" arabic-form="final" 
d="M363 -183c-38 0 -68 30 -68 68c0 37 30 67 68 67s69 -30 69 -67c0 -38 -31 -68 -69 -68zM777 123h23v-123h-38c-59 0 -103 11 -138 40c-29 -24 -68 -38 -118 -40h-302c-187 0 -198 161 -198 222c0 96 31 170 115 170h72c-56 -49 -77 -115 -77 -154c0 -33 2 -115 77 -115
h304c35 2 47 22 47 56v171h49c57 0 87 -30 87 -89v-58c4 -59 28 -80 97 -80z" />
    <glyph glyph-name="beh.init" unicode="&#x628;" horiz-adv-x="314" arabic-form="initial" 
d="M202 -117c1 -40 -34 -69 -69 -69c-36 0 -67 29 -67 69c0 36 29 67 67 67c37 0 69 -30 69 -67zM178 350c57 0 86 -30 86 -89v-87c0 -96 -56 -170 -173 -174h-101v123h91c34 3 48 22 48 57v170h49z" />
    <glyph glyph-name="beh.medi" unicode="&#x628;" horiz-adv-x="326" arabic-form="medial" 
d="M169 -50c36 0 68 -29 68 -68s-32 -67 -68 -67c-38 0 -68 28 -68 67s30 68 68 68zM238 261v-56c2 -57 27 -82 98 -82v-124h-17c-58 0 -102 12 -137 41c-40 -32 -98 -41 -182 -41v124h54c35 2 48 21 48 56v170h48c58 0 88 -29 88 -88z" />
    <glyph glyph-name="tehmarbuta.isol" unicode="&#x629;" horiz-adv-x="494" arabic-form="isolated" 
d="M263 429c124 0 196 -99 196 -208c0 -123 -71 -221 -204 -221c-125 0 -195 98 -195 208c0 122 70 221 203 221zM255 321c-49 0 -74 -42 -74 -100c0 -72 25 -114 82 -114c50 0 74 42 74 101c0 71 -26 113 -82 113zM186 470c-37 0 -69 31 -69 69c0 37 32 70 69 70
c36 0 68 -33 68 -70c0 -38 -32 -69 -68 -69zM337 470c-36 0 -68 31 -68 69c0 37 32 70 68 70c37 0 70 -33 70 -70c0 -38 -33 -69 -70 -69z" />
    <glyph glyph-name="tehmarbuta.fina" unicode="&#x629;" horiz-adv-x="564" arabic-form="final" 
d="M574 123v-123h-151h-81c-121 3 -282 26 -282 207c0 122 71 222 204 222c143 0 200 -124 200 -240c0 -26 -1 -40 -1 -66h111zM182 220c0 -97 89 -97 151 -97h9v53c0 73 -9 145 -87 145c-49 0 -73 -42 -73 -101zM187 470c-37 0 -69 31 -69 69c0 37 32 70 69 70
c36 0 68 -33 68 -70c0 -38 -32 -69 -68 -69zM338 470c-36 0 -68 31 -68 69c0 37 32 70 68 70c37 0 70 -33 70 -70c0 -38 -33 -69 -70 -69z" />
    <glyph glyph-name="teh.isol" unicode="&#x62a;" horiz-adv-x="780" arabic-form="isolated" 
d="M646 349c58 0 89 -30 89 -89v-86c0 -96 -58 -171 -176 -174h-300c-189 0 -199 161 -199 222c0 98 30 170 115 170h71c-56 -49 -77 -115 -77 -154c0 -33 2 -115 78 -115h303c35 2 47 22 47 57v169h49zM346 401c-37 0 -69 31 -69 69c0 37 32 70 69 70c36 0 68 -33 68 -70
c0 -38 -32 -69 -68 -69zM497 401c-36 0 -68 31 -68 69c0 37 32 70 68 70c37 0 70 -33 70 -70c0 -38 -33 -69 -70 -69z" />
    <glyph glyph-name="teh.fina" unicode="&#x62a;" horiz-adv-x="844" arabic-form="final" 
d="M831 123h23v-123h-38c-59 0 -103 11 -138 40c-29 -24 -68 -38 -118 -40h-302c-187 0 -198 161 -198 222c0 96 31 170 115 170h72c-56 -49 -77 -115 -77 -154c0 -33 2 -115 77 -115h304c35 2 47 22 47 56v170h49c57 0 87 -30 87 -89v-57c4 -59 28 -80 97 -80zM347 401
c-37 0 -69 31 -69 69c0 37 32 70 69 70c36 0 68 -33 68 -70c0 -38 -32 -69 -68 -69zM498 401c-36 0 -68 31 -68 69c0 37 32 70 68 70c37 0 70 -33 70 -70c0 -38 -33 -69 -70 -69z" />
    <glyph glyph-name="teh.init" unicode="&#x62a;" horiz-adv-x="314" arabic-form="initial" 
d="M177 349c58 0 87 -30 87 -89v-86c0 -96 -56 -170 -173 -174h-101v123h90c35 3 48 22 48 57v169h49zM120 401c-37 0 -69 31 -69 69c0 37 32 70 69 70c36 0 68 -33 68 -70c0 -38 -32 -69 -68 -69zM271 401c-36 0 -68 31 -68 69c0 37 32 70 68 70c37 0 70 -33 70 -70
c0 -38 -33 -69 -70 -69z" />
    <glyph glyph-name="teh.medi" unicode="&#x62a;" horiz-adv-x="326" arabic-form="medial" 
d="M238 261v-56c3 -57 27 -81 98 -82v-123h-17c-58 0 -102 11 -137 40c-29 -24 -69 -38 -119 -40h-63v123h54c35 2 48 21 48 56v170h48c58 0 88 -29 88 -88zM94 400c-37 0 -69 31 -69 69c0 37 32 70 69 70c36 0 68 -33 68 -70c0 -38 -32 -69 -68 -69zM245 400
c-36 0 -68 31 -68 69c0 37 32 70 68 70c37 0 70 -33 70 -70c0 -38 -33 -69 -70 -69z" />
    <glyph glyph-name="theh.isol" unicode="&#x62b;" horiz-adv-x="780" arabic-form="isolated" 
d="M646 349c58 0 89 -30 89 -89v-86c0 -96 -58 -171 -176 -174h-300c-189 0 -199 161 -199 222c0 98 30 170 115 170h71c-56 -49 -77 -115 -77 -154c0 -33 2 -115 78 -115h303c35 2 47 22 47 57v169h49zM346 401c-37 0 -69 31 -69 69c0 37 32 70 69 70c36 0 68 -33 68 -70
c0 -38 -32 -69 -68 -69zM497 401c-36 0 -68 31 -68 69c0 37 32 70 68 70c37 0 70 -33 70 -70c0 -38 -33 -69 -70 -69zM421 529c-35 0 -63 30 -63 63c0 35 28 64 63 64c33 0 63 -29 63 -64c0 -33 -30 -63 -63 -63z" />
    <glyph glyph-name="theh.fina" unicode="&#x62b;" horiz-adv-x="844" arabic-form="final" 
d="M831 123h23v-123h-38c-59 0 -103 11 -138 40c-29 -24 -68 -38 -118 -40h-302c-187 0 -198 161 -198 222c0 96 31 170 115 170h72c-56 -49 -77 -115 -77 -154c0 -33 2 -115 77 -115h304c35 2 47 22 47 56v170h49c57 0 87 -30 87 -89v-57c4 -59 28 -80 97 -80zM347 401
c-37 0 -69 31 -69 69c0 37 32 70 69 70c36 0 68 -33 68 -70c0 -38 -32 -69 -68 -69zM498 401c-36 0 -68 31 -68 69c0 37 32 70 68 70c37 0 70 -33 70 -70c0 -38 -33 -69 -70 -69zM422 529c-35 0 -63 30 -63 63c0 35 28 64 63 64c33 0 63 -29 63 -64c0 -33 -30 -63 -63 -63z
" />
    <glyph glyph-name="theh.init" unicode="&#x62b;" horiz-adv-x="314" arabic-form="initial" 
d="M177 349c58 0 87 -30 87 -89v-86c0 -96 -56 -170 -173 -174h-101v123h90c35 3 48 22 48 57v169h49zM120 401c-37 0 -69 31 -69 69c0 37 32 70 69 70c36 0 68 -33 68 -70c0 -38 -32 -69 -68 -69zM271 401c-36 0 -68 31 -68 69c0 37 32 70 68 70c37 0 70 -33 70 -70
c0 -38 -33 -69 -70 -69zM195 529c-35 0 -63 30 -63 63c0 35 28 64 63 64c33 0 63 -29 63 -64c0 -33 -30 -63 -63 -63z" />
    <glyph glyph-name="theh.medi" unicode="&#x62b;" horiz-adv-x="326" arabic-form="medial" 
d="M238 261v-56c3 -57 27 -81 98 -82v-123h-17c-58 0 -102 11 -137 40c-29 -24 -69 -38 -119 -40h-63v123h54c35 2 48 21 48 56v170h48c58 0 88 -29 88 -88zM94 400c-37 0 -69 31 -69 69c0 37 32 70 69 70c36 0 68 -33 68 -70c0 -38 -32 -69 -68 -69zM245 400
c-36 0 -68 31 -68 69c0 37 32 70 68 70c37 0 70 -33 70 -70c0 -38 -33 -69 -70 -69zM169 528c-35 0 -63 30 -63 63c0 35 28 64 63 64c33 0 63 -29 63 -64c0 -33 -30 -63 -63 -63z" />
    <glyph glyph-name="jeem.isol" unicode="&#x62c;" horiz-adv-x="598" arabic-form="isolated" 
d="M308 -166c-37 0 -67 30 -67 68c0 37 30 68 67 68c38 0 69 -31 69 -68c0 -38 -31 -68 -69 -68zM60 -120c0 220 156 255 339 242c-18 65 -61 183 -155 183c-49 0 -90 -18 -145 -71v69c0 71 57 125 166 125c195 0 268 -217 268 -384c0 -35 -5 -77 -20 -141
c-25 73 -101 98 -174 98c-81 0 -162 -22 -162 -94c0 -20 -9 -118 126 -118c48 0 110 27 152 66v-65c0 -78 -89 -110 -164 -110c-84 0 -231 49 -231 200z" />
    <glyph glyph-name="jeem.fina" unicode="&#x62c;" horiz-adv-x="619" arabic-form="final" 
d="M311 -167c-40 0 -69 30 -69 68s29 68 69 68c38 0 68 -30 68 -68s-30 -68 -68 -68zM606 123h23v-123h-38c-45 0 -77 10 -102 26c-22 -12 -63 -27 -125 -27c-10 0 -24 0 -33 1c-93 -2 -154 -37 -154 -94c0 -20 -9 -118 126 -118c49 0 112 27 152 67v-65
c0 -78 -88 -111 -164 -111c-83 0 -231 50 -231 200c0 192 113 244 276 244c21 0 44 -1 66 -2c-9 67 -74 183 -157 183c-49 0 -91 -18 -145 -71v70c0 69 46 125 166 125c167 0 227 -162 253 -266l-1 1c11 -29 37 -40 88 -40z" />
    <glyph glyph-name="jeem.init" unicode="&#x62c;" horiz-adv-x="546" arabic-form="initial" 
d="M250 -186c-40 0 -68 29 -68 69c0 37 28 68 68 68c36 0 67 -31 67 -68c0 -40 -31 -69 -67 -69zM-5 0v123h353c-17 64 -60 182 -155 182c-49 0 -90 -18 -145 -70v68c0 70 55 126 167 126c195 0 266 -218 266 -387c0 -34 -3 -76 -16 -132c-29 59 -91 85 -153 90h-317z" />
    <glyph glyph-name="jeem.medi" unicode="&#x62c;" horiz-adv-x="555" arabic-form="medial" 
d="M228 -184c-40 0 -68 30 -68 68c0 37 28 68 68 68c37 0 68 -31 68 -68c0 -38 -31 -68 -68 -68zM-5 0v123h350c-18 65 -61 182 -156 182c-50 0 -90 -18 -146 -70v68c0 71 51 125 167 125c167 0 240 -165 262 -305h88v-123h-565z" />
    <glyph glyph-name="hah.isol" unicode="&#x62d;" horiz-adv-x="598" arabic-form="isolated" 
d="M60 -120c0 220 156 255 339 242c-18 65 -61 183 -155 183c-49 0 -90 -18 -145 -71v69c0 71 57 125 166 125c195 0 268 -217 268 -384c0 -35 -5 -77 -20 -141c-25 73 -101 98 -174 98c-81 0 -162 -22 -162 -94c0 -20 -9 -118 126 -118c48 0 110 27 152 66v-65
c0 -78 -89 -110 -164 -110c-84 0 -231 49 -231 200z" />
    <glyph glyph-name="hah.fina" unicode="&#x62d;" horiz-adv-x="619" arabic-form="final" 
d="M606 123h23v-123h-38c-45 0 -77 10 -102 26c-22 -12 -63 -27 -125 -27c-10 0 -24 0 -33 1c-93 -2 -154 -37 -154 -94c0 -20 -9 -118 126 -118c49 0 112 27 152 67v-65c0 -78 -88 -111 -164 -111c-83 0 -231 50 -231 200c0 192 113 244 276 244c21 0 44 -1 66 -2
c-9 67 -74 183 -157 183c-49 0 -91 -18 -145 -71v70c0 69 46 125 166 125c167 0 227 -162 253 -266l-1 1c11 -29 37 -40 88 -40z" />
    <glyph glyph-name="hah.init" unicode="&#x62d;" horiz-adv-x="546" arabic-form="initial" 
d="M-5 0v123h353c-17 64 -60 182 -155 182c-49 0 -90 -18 -145 -70v68c0 70 55 126 167 126c195 0 266 -218 266 -387c0 -34 -3 -76 -16 -132c-29 59 -91 85 -153 90h-317z" />
    <glyph glyph-name="hah.medi" unicode="&#x62d;" horiz-adv-x="555" arabic-form="medial" 
d="M-5 0v123h350c-18 65 -61 182 -156 182c-50 0 -90 -18 -146 -70v68c0 71 51 125 167 125c167 0 240 -165 262 -305h88v-123h-565z" />
    <glyph glyph-name="khah.isol" unicode="&#x62e;" horiz-adv-x="598" arabic-form="isolated" 
d="M60 -120c0 220 156 255 339 242c-18 65 -61 183 -155 183c-49 0 -90 -18 -145 -71v69c0 71 57 125 166 125c195 0 268 -217 268 -384c0 -35 -5 -77 -20 -141c-25 73 -101 98 -174 98c-81 0 -162 -22 -162 -94c0 -20 -9 -118 126 -118c48 0 110 27 152 66v-65
c0 -78 -89 -110 -164 -110c-84 0 -231 49 -231 200zM263 471c-38 0 -67 31 -67 69c0 39 29 67 67 67s70 -28 70 -67c0 -38 -32 -69 -70 -69z" />
    <glyph glyph-name="khah.fina" unicode="&#x62e;" horiz-adv-x="619" arabic-form="final" 
d="M606 123h23v-123h-38c-45 0 -77 10 -102 26c-22 -12 -63 -27 -125 -27c-10 0 -24 0 -33 1c-93 -2 -154 -37 -154 -94c0 -20 -9 -118 126 -118c49 0 112 27 152 67v-65c0 -78 -88 -111 -164 -111c-83 0 -231 50 -231 200c0 192 113 244 276 244c21 0 44 -1 66 -2
c-9 67 -74 183 -157 183c-49 0 -91 -18 -145 -71v70c0 69 46 125 166 125c167 0 227 -162 253 -266l-1 1c11 -29 37 -40 88 -40zM263 471c-39 0 -67 31 -67 69c0 39 28 67 67 67c37 0 70 -28 70 -67c0 -38 -33 -69 -70 -69z" />
    <glyph glyph-name="khah.init" unicode="&#x62e;" horiz-adv-x="546" arabic-form="initial" 
d="M-5 0v123h353c-17 64 -60 182 -155 182c-49 0 -90 -18 -145 -70v68c0 70 55 126 167 126c195 0 266 -218 266 -387c0 -34 -3 -76 -16 -132c-29 59 -91 85 -153 90h-317zM214 471c-39 0 -67 31 -67 69c0 39 28 67 67 67c37 0 69 -28 69 -67c0 -38 -32 -69 -69 -69z" />
    <glyph glyph-name="khah.medi" unicode="&#x62e;" horiz-adv-x="555" arabic-form="medial" 
d="M-5 0v123h350c-18 65 -61 182 -156 182c-50 0 -90 -18 -146 -70v68c0 71 51 125 167 125c167 0 240 -165 262 -305h88v-123h-565zM207 471c-39 0 -67 31 -67 69c0 39 28 67 67 67c37 0 69 -28 69 -67c0 -38 -32 -69 -69 -69z" />
    <glyph glyph-name="dal.isol" unicode="&#x62f;" horiz-adv-x="472" arabic-form="isolated" 
d="M432 108v-108h-321c-44 0 -66 35 -66 71v52h260c-6 89 -67 173 -164 173c-14 0 -37 -2 -74 -8l35 56c23 37 50 59 98 59c53 0 114 -29 151 -73c15 -19 81 -96 81 -222z" />
    <glyph glyph-name="dal.fina" unicode="&#x62f;" horiz-adv-x="532" arabic-form="final" 
d="M518 123h24v-123h-20c-52 0 -85 4 -119 32c-19 -17 -39 -32 -70 -32h-222c-45 0 -66 35 -66 71v52h260c-7 87 -67 173 -164 173c-14 0 -26 -2 -64 -8l24 56c24 37 51 59 98 59c15 0 29 -2 44 -6c90 -26 148 -104 176 -198v1c21 -62 25 -77 99 -77z" />
    <glyph glyph-name="thal.isol" unicode="&#x630;" horiz-adv-x="472" arabic-form="isolated" 
d="M432 108v-108h-321c-44 0 -66 35 -66 71v52h260c-6 89 -67 173 -164 173c-14 0 -37 -2 -74 -8l35 56c23 37 50 59 98 59c53 0 114 -29 151 -73c15 -19 81 -96 81 -222zM226 471c-38 0 -68 31 -68 69c0 39 30 67 68 67c37 0 68 -28 68 -67c0 -38 -31 -69 -68 -69z" />
    <glyph glyph-name="thal.fina" unicode="&#x630;" horiz-adv-x="532" arabic-form="final" 
d="M221 471c-38 0 -68 31 -68 69c0 39 30 67 68 67c37 0 68 -28 68 -67c0 -38 -31 -69 -68 -69zM518 123h24v-123h-20c-52 0 -85 4 -119 32c-19 -17 -39 -32 -70 -32h-222c-45 0 -66 35 -66 71v52h260c-7 87 -67 173 -164 173c-14 0 -26 -2 -64 -8l24 56c24 37 51 59 98 59
c15 0 29 -2 44 -6c90 -26 148 -104 176 -198v1c21 -62 25 -77 99 -77z" />
    <glyph glyph-name="reh.isol" unicode="&#x631;" horiz-adv-x="336" arabic-form="isolated" 
d="M286 -23c0 -74 -63 -142 -150 -142c-54 0 -91 27 -91 71v54c25 -4 49 -6 51 -6c49 0 54 24 54 70v325h54c62 0 82 -25 82 -88v-284z" />
    <glyph glyph-name="reh.fina" unicode="&#x631;" horiz-adv-x="372" arabic-form="final" 
d="M377 0h-91v-23c0 -74 -57 -142 -145 -142c-54 0 -91 27 -91 71v54c25 -3 49 -6 51 -6c50 0 55 28 55 83v312h53c63 0 82 -25 82 -88v-138h86v-123z" />
    <glyph glyph-name="zain.isol" unicode="&#x632;" horiz-adv-x="331" arabic-form="isolated" 
d="M204 400c-36 0 -67 30 -67 69c0 36 28 67 67 67c37 0 68 -30 68 -67c0 -40 -32 -69 -68 -69zM281 -23c0 -74 -63 -142 -150 -142c-54 0 -91 27 -91 71v54c25 -4 49 -6 51 -6c49 0 54 24 54 70v325h54c62 0 82 -25 82 -88v-284z" />
    <glyph glyph-name="zain.fina" unicode="&#x632;" horiz-adv-x="357" arabic-form="final" 
d="M198 400c-36 0 -67 30 -67 69c0 36 28 67 67 67c37 0 68 -30 68 -67c0 -40 -32 -69 -68 -69zM362 0h-91v-23c0 -74 -57 -142 -145 -142c-54 0 -91 27 -91 71v54c25 -3 49 -6 51 -6c50 0 55 28 55 83v312h53c63 0 82 -25 82 -88v-138h86v-123z" />
    <glyph glyph-name="seen.isol" unicode="&#x633;" horiz-adv-x="1173" arabic-form="isolated" 
d="M1045 400c58 0 88 -30 88 -88v-137c0 -97 -57 -170 -175 -174h-8c-8 0 -84 -1 -136 30c-36 -22 -80 -31 -137 -31h-58c-32 -108 -165 -186 -279 -186c-164 0 -280 134 -280 296c0 90 37 156 114 156h71c-57 -50 -76 -115 -76 -155c0 -86 62 -171 155 -171
c114 0 171 61 171 151v309h62c34 0 75 -29 75 -68v-209h66c36 3 49 22 49 57v220h48c58 0 88 -30 88 -88v-77c0 -41 -3 -74 -6 -97c10 -10 29 -15 59 -15c46 3 60 23 60 57v220h49z" />
    <glyph glyph-name="seen.fina" unicode="&#x633;" horiz-adv-x="1229" arabic-form="final" 
d="M1180 123h59v-123h-50c-41 0 -82 12 -110 36c-33 -27 -83 -35 -120 -36h-8c-8 0 -83 0 -135 30c-31 -24 -81 -30 -138 -30h-59c-31 -108 -164 -186 -279 -186c-164 0 -280 134 -280 296c0 90 38 156 114 156h72c-58 -50 -76 -115 -76 -155c0 -86 62 -171 155 -171
c113 0 171 61 171 151v309h62c34 0 74 -29 74 -68v-209h66c36 3 49 21 49 56v221h48c59 0 88 -30 88 -88v-78c0 -41 -3 -74 -6 -97c11 -12 28 -14 61 -14h-1c46 3 59 22 59 56v221h49c59 0 89 -30 89 -88v-142c2 -34 21 -47 46 -47z" />
    <glyph glyph-name="seen.init" unicode="&#x633;" horiz-adv-x="771" arabic-form="initial" 
d="M642 400c59 0 89 -30 89 -88v-137c0 -97 -58 -171 -175 -175h-9c-7 0 -84 0 -136 31c-35 -22 -78 -31 -137 -31h-284v123h102v277h62c34 0 74 -29 74 -68v-209h66c36 3 49 22 49 57v220h49c58 0 87 -30 87 -88v-77c0 -43 -2 -73 -5 -96c10 -12 25 -16 60 -16
c46 3 59 23 59 57v220h49z" />
    <glyph glyph-name="seen.medi" unicode="&#x633;" horiz-adv-x="825" arabic-form="medial" 
d="M778 123h57v-123h-50c-39 0 -81 12 -109 36c-32 -27 -81 -35 -121 -36h-7c-8 0 -83 0 -135 30c-31 -24 -81 -30 -139 -30h-284v123h102v277h63c33 0 74 -29 74 -68v-209h66c36 3 49 21 49 56v221h48c59 0 88 -30 88 -88v-78c0 -41 -3 -74 -6 -97c10 -12 26 -14 59 -14
c47 3 60 22 60 56v221h49c58 0 88 -30 88 -88c0 -41 1 -61 1 -143c2 -33 21 -46 47 -46z" />
    <glyph glyph-name="sheen.isol" unicode="&#x634;" horiz-adv-x="1173" arabic-form="isolated" 
d="M1045 400c58 0 88 -30 88 -88v-137c0 -97 -57 -170 -175 -174h-8c-8 0 -84 -1 -136 30c-36 -22 -80 -31 -137 -31h-58c-32 -108 -165 -186 -279 -186c-164 0 -280 134 -280 296c0 90 37 156 114 156h71c-57 -50 -76 -115 -76 -155c0 -86 62 -171 155 -171
c114 0 171 61 171 151v309h62c34 0 75 -29 75 -68v-209h66c36 3 49 22 49 57v220h48c58 0 88 -30 88 -88v-77c0 -41 -3 -74 -6 -97c10 -10 29 -15 59 -15c46 3 60 23 60 57v220h49zM738 471c-37 0 -69 31 -69 69c0 37 32 70 69 70c36 0 68 -33 68 -70c0 -38 -32 -69 -68 -69
zM889 471c-36 0 -68 31 -68 69c0 37 32 70 68 70c37 0 70 -33 70 -70c0 -38 -33 -69 -70 -69zM813 599c-35 0 -63 30 -63 63c0 35 28 64 63 64c33 0 63 -29 63 -64c0 -33 -30 -63 -63 -63z" />
    <glyph glyph-name="sheen.fina" unicode="&#x634;" horiz-adv-x="1229" arabic-form="final" 
d="M1180 123h59v-123h-50c-41 0 -82 12 -110 36c-33 -27 -83 -35 -120 -36h-8c-8 0 -83 0 -135 30c-31 -24 -81 -30 -138 -30h-59c-31 -108 -164 -186 -279 -186c-164 0 -280 134 -280 296c0 90 38 156 114 156h72c-58 -50 -76 -115 -76 -155c0 -86 62 -171 155 -171
c113 0 171 61 171 151v309h62c34 0 74 -29 74 -68v-209h66c36 3 49 21 49 56v221h48c59 0 88 -30 88 -88v-78c0 -41 -3 -74 -6 -97c11 -12 28 -14 61 -14h-1c46 3 59 22 59 56v221h49c59 0 89 -30 89 -88v-142c2 -34 21 -47 46 -47zM739 471c-37 0 -69 31 -69 69
c0 37 32 70 69 70c36 0 68 -33 68 -70c0 -38 -32 -69 -68 -69zM890 471c-36 0 -68 31 -68 69c0 37 32 70 68 70c37 0 70 -33 70 -70c0 -38 -33 -69 -70 -69zM814 599c-35 0 -63 30 -63 63c0 35 28 64 63 64c33 0 63 -29 63 -64c0 -33 -30 -63 -63 -63z" />
    <glyph glyph-name="sheen.init" unicode="&#x634;" horiz-adv-x="771" arabic-form="initial" 
d="M642 400c59 0 89 -30 89 -88v-137c0 -97 -58 -171 -175 -175h-9c-7 0 -84 0 -136 31c-35 -22 -78 -31 -137 -31h-284v123h102v277h62c34 0 74 -29 74 -68v-209h66c36 3 49 22 49 57v220h49c58 0 87 -30 87 -88v-77c0 -43 -2 -73 -5 -96c10 -12 25 -16 60 -16
c46 3 59 23 59 57v220h49zM338 471c-37 0 -69 31 -69 69c0 37 32 70 69 70c36 0 68 -33 68 -70c0 -38 -32 -69 -68 -69zM489 471c-36 0 -68 31 -68 69c0 37 32 70 68 70c37 0 70 -33 70 -70c0 -38 -33 -69 -70 -69zM413 599c-35 0 -63 30 -63 63c0 35 28 64 63 64
c33 0 63 -29 63 -64c0 -33 -30 -63 -63 -63z" />
    <glyph glyph-name="sheen.medi" unicode="&#x634;" horiz-adv-x="825" arabic-form="medial" 
d="M778 123h57v-123h-50c-39 0 -81 12 -109 36c-32 -27 -81 -35 -121 -36h-7c-8 0 -83 0 -135 30c-31 -24 -81 -30 -139 -30h-284v123h102v277h63c33 0 74 -29 74 -68v-209h66c36 3 49 21 49 56v221h48c59 0 88 -30 88 -88v-78c0 -41 -3 -74 -6 -97c10 -12 26 -14 59 -14
c47 3 60 22 60 56v221h49c58 0 88 -30 88 -88c0 -41 1 -61 1 -81v-62c2 -33 21 -46 47 -46zM336 471c-37 0 -69 31 -69 69c0 37 32 70 69 70c36 0 68 -33 68 -70c0 -38 -32 -69 -68 -69zM487 471c-36 0 -68 31 -68 69c0 37 32 70 68 70c37 0 70 -33 70 -70
c0 -38 -33 -69 -70 -69zM411 599c-35 0 -63 30 -63 63c0 35 28 64 63 64c33 0 63 -29 63 -64c0 -33 -30 -63 -63 -63z" />
    <glyph glyph-name="sad.isol" unicode="&#x635;" horiz-adv-x="1106" arabic-form="isolated" 
d="M635 123h314c-1 75 -22 170 -130 171c-95 -2 -162 -104 -184 -171zM842 428c164 0 224 -169 224 -293c0 -76 -23 -135 -60 -135h-397c-34 -107 -139 -190 -270 -190c-164 0 -279 110 -279 272c0 90 37 156 114 156h71c-57 -49 -76 -115 -76 -155c0 -86 62 -150 156 -150
c112 0 169 62 169 154v62c0 67 -1 180 -1 189h35c54 0 79 0 85 -53c59 81 138 143 229 143z" />
    <glyph glyph-name="sad.fina" unicode="&#x635;" horiz-adv-x="1139" arabic-form="final" 
d="M1125 123h24v-123h-39c-28 0 -56 4 -78 10c-7 -5 -16 -10 -26 -10h-396c-33 -108 -140 -190 -271 -190c-164 0 -279 111 -279 273c0 90 38 155 114 155h72c-58 -49 -77 -115 -77 -154c0 -86 63 -150 156 -150c112 0 169 62 169 154v251h34c54 0 80 0 85 -54
c60 82 138 143 229 143c164 0 225 -169 225 -292v-6c14 -6 33 -7 58 -7zM818 294c-93 -5 -151 -87 -182 -171h313c-1 75 -16 164 -131 171z" />
    <glyph glyph-name="sad.init" unicode="&#x635;" horiz-adv-x="686" arabic-form="initial" 
d="M-10 0v123h80c0 93 1 107 1 216h36c52 0 79 0 84 -53c58 81 136 143 229 143c165 0 226 -170 226 -293c0 -76 -25 -136 -61 -136h-595zM214 123h309c0 11 1 17 1 25c0 68 -20 141 -126 146c-98 -5 -163 -104 -184 -171z" />
    <glyph glyph-name="sad.medi" unicode="&#x635;" horiz-adv-x="745" arabic-form="medial" 
d="M-10 0v123h105v216h36c54 0 79 0 85 -53c57 81 136 142 228 142c165 0 225 -169 225 -292v-13h86v-123h-765zM420 294c-94 -5 -160 -104 -183 -171h311v18c0 70 -23 145 -128 153z" />
    <glyph glyph-name="dad.isol" unicode="&#x636;" horiz-adv-x="1106" arabic-form="isolated" 
d="M635 123h314c-1 75 -22 170 -130 171c-95 -2 -162 -104 -184 -171zM824 469c-39 0 -69 32 -69 70c0 37 30 68 69 68c37 0 69 -31 69 -68c0 -38 -32 -70 -69 -70zM842 428c164 0 224 -169 224 -293c0 -76 -23 -135 -60 -135h-397c-34 -107 -139 -190 -270 -190
c-164 0 -279 110 -279 272c0 90 37 156 114 156h71c-57 -49 -76 -115 -76 -155c0 -86 62 -150 156 -150c112 0 169 62 169 154v62c0 67 -1 180 -1 189h35c54 0 79 0 85 -53c59 81 138 143 229 143z" />
    <glyph glyph-name="dad.fina" unicode="&#x636;" horiz-adv-x="1139" arabic-form="final" 
d="M823 470c-39 0 -67 31 -67 69c0 39 28 67 67 67c38 0 69 -28 69 -67c0 -38 -31 -69 -69 -69zM1125 123h24v-123h-39c-28 0 -56 4 -78 10c-7 -5 -16 -10 -26 -10h-396c-33 -108 -140 -190 -271 -190c-164 0 -279 111 -279 273c0 90 38 155 114 155h72
c-58 -49 -77 -115 -77 -154c0 -86 63 -150 156 -150c112 0 169 62 169 154v251h34c54 0 80 0 85 -54c60 82 138 143 229 143c164 0 225 -169 225 -292v-6c14 -6 33 -7 58 -7zM818 294c-92 -5 -151 -87 -182 -171h313c-1 75 -16 164 -131 171z" />
    <glyph glyph-name="dad.init" unicode="&#x636;" horiz-adv-x="686" arabic-form="initial" 
d="M-10 0v123h80c0 93 1 107 1 216h36c52 0 79 0 84 -53c58 81 136 143 229 143c165 0 226 -170 226 -293c0 -76 -25 -136 -61 -136h-595zM214 123h309c0 11 1 17 1 25c0 68 -20 141 -126 146c-98 -5 -163 -104 -184 -171zM402 471c-39 0 -67 31 -67 69c0 37 28 67 67 67
c37 0 68 -30 68 -67c0 -38 -31 -69 -68 -69z" />
    <glyph glyph-name="dad.medi" unicode="&#x636;" horiz-adv-x="745" arabic-form="medial" 
d="M-10 0v123h105v216h36c54 0 79 0 85 -53c57 81 136 142 228 142c165 0 225 -169 225 -292v-13h86v-123h-765zM420 294c-94 -5 -160 -104 -183 -171h311v18c0 70 -23 145 -128 153zM428 470c-40 0 -69 31 -69 69c0 39 29 67 69 67c37 0 68 -28 68 -67
c0 -38 -31 -69 -68 -69z" />
    <glyph glyph-name="tah.isol" unicode="&#x637;" horiz-adv-x="750" arabic-form="isolated" 
d="M60 82v41h77v477h33c63 0 87 -21 87 -83v-229c59 81 135 141 228 141c164 0 225 -170 225 -293c0 -76 -24 -136 -62 -136h-492c-69 2 -96 29 -96 82zM462 294c-95 -5 -161 -105 -184 -171h311v25c0 68 -21 141 -127 146z" />
    <glyph glyph-name="tah.fina" unicode="&#x637;" horiz-adv-x="785" arabic-form="final" 
d="M156 0c-69 4 -96 28 -96 82v41h78c0 46 -1 163 -1 268v209h34c63 0 86 -20 86 -83v-229c58 80 136 141 229 141c164 0 224 -170 224 -293c0 -5 -1 -10 -1 -13h81v-123h-634zM462 294c-96 -5 -161 -105 -184 -171h311v25c0 69 -21 141 -127 146z" />
    <glyph glyph-name="tah.init" unicode="&#x637;" horiz-adv-x="671" arabic-form="initial" 
d="M-5 0v123h63c-1 73 -1 443 -1 477h34c63 0 87 -21 87 -83v-229c59 81 135 141 228 141c164 0 225 -170 225 -293c0 -76 -24 -136 -62 -136h-574zM199 123h311v25c0 68 -21 141 -127 146c-95 -5 -162 -104 -184 -171z" />
    <glyph glyph-name="tah.medi" unicode="&#x637;" horiz-adv-x="737" arabic-form="medial" 
d="M-5 0v123h105c-1 74 -1 442 -1 477h35c62 0 87 -24 87 -84v-228c57 80 134 140 227 140c164 0 225 -169 225 -292c0 -5 -1 -10 -1 -13h70v-123h-747zM241 123h310v18c0 70 -23 145 -128 153c-93 -5 -159 -104 -182 -171z" />
    <glyph glyph-name="zah.isol" unicode="&#x638;" horiz-adv-x="750" arabic-form="isolated" 
d="M466 471c-39 0 -67 31 -67 69c0 37 28 67 67 67c37 0 68 -30 68 -67c0 -38 -31 -69 -68 -69zM60 82v41h77v477h33c63 0 87 -21 87 -83v-229c59 81 135 141 228 141c164 0 225 -170 225 -293c0 -76 -24 -136 -62 -136h-492c-69 2 -96 29 -96 82zM462 294
c-95 -5 -161 -105 -184 -171h311v25c0 68 -21 141 -127 146z" />
    <glyph glyph-name="zah.fina" unicode="&#x638;" horiz-adv-x="785" arabic-form="final" 
d="M469 470c-38 0 -68 31 -68 69c0 39 30 67 68 67c37 0 67 -28 67 -67c0 -38 -30 -69 -67 -69zM156 0c-69 4 -96 28 -96 82v41h78c0 46 -1 163 -1 268v209h34c63 0 86 -20 86 -83v-229c58 80 136 141 229 141c164 0 224 -170 224 -293c0 -5 -1 -10 -1 -13h81v-123h-634z
M462 294c-96 -5 -161 -105 -184 -171h311v25c0 69 -21 141 -127 146z" />
    <glyph glyph-name="zah.init" unicode="&#x638;" horiz-adv-x="666" arabic-form="initial" 
d="M383 471c-37 0 -68 31 -68 69c0 37 31 67 68 67s68 -30 68 -67c0 -38 -31 -69 -68 -69zM-10 0v123h63c-1 73 -1 443 -1 477h34c63 0 87 -21 87 -83v-229c59 81 135 141 228 141c164 0 225 -170 225 -293c0 -76 -24 -136 -62 -136h-574zM194 123h311v25
c0 68 -21 141 -127 146c-95 -5 -162 -104 -184 -171z" />
    <glyph glyph-name="zah.medi" unicode="&#x638;" horiz-adv-x="737" arabic-form="medial" 
d="M-5 0v123h105c-1 74 -1 442 -1 477h35c62 0 87 -24 87 -84v-228c57 80 134 140 227 140c164 0 225 -169 225 -292c0 -5 -1 -10 -1 -13h70v-123h-747zM241 123h310v18c0 70 -23 145 -128 153c-93 -5 -159 -104 -182 -171zM430 471c-39 0 -67 31 -67 69c0 39 28 67 67 67
c37 0 70 -28 70 -67c0 -38 -33 -69 -70 -69z" />
    <glyph glyph-name="ain.isol" unicode="&#x639;" horiz-adv-x="536" arabic-form="isolated" 
d="M261 123h235v-57c0 -30 -28 -66 -69 -66h-156c-74 -7 -94 -44 -94 -81c0 -17 -9 -132 126 -132c48 0 111 28 152 66v-64c0 -79 -89 -111 -164 -111c-83 0 -231 65 -231 215c0 94 25 155 78 191c-3 6 -6 10 -9 16c-17 31 -26 69 -26 108c0 122 71 222 204 222
c76 0 149 -37 171 -124c0 -18 -3 -35 -11 -51l-29 -67c-36 116 -109 134 -139 134c-49 0 -73 -43 -73 -101c0 -47 11 -81 35 -98z" />
    <glyph glyph-name="ain.fina" unicode="&#x639;" horiz-adv-x="622" arabic-form="final" 
d="M627 123v-123h-76c-46 0 -138 -1 -212 47c-11 -7 -26 -14 -45 -22h1c-52 -21 -118 -33 -118 -110c0 -20 -9 -118 126 -118c49 0 111 30 152 68v-66c0 -79 -88 -110 -164 -110c-83 0 -231 50 -231 200c0 123 52 222 186 241c-42 48 -101 86 -142 96c0 11 1 34 2 47
c1 15 3 40 3 55c27 10 46 23 72 37h-1c16 9 35 19 51 27c14 10 74 34 116 34c84 0 147 -42 190 -73c14 -11 31 -21 45 -30c-21 -52 -74 -139 -135 -196c15 -5 26 -4 39 -4h63h78zM300 234c16 -16 33 -30 50 -42c33 30 64 65 93 104c-32 13 -61 19 -86 19
c-51 0 -89 -22 -112 -36c20 -13 37 -30 55 -45z" />
    <glyph glyph-name="ain.init" unicode="&#x639;" horiz-adv-x="518" arabic-form="initial" 
d="M227 123h251v-57c0 -30 -27 -66 -68 -66h-420v123h96c-10 25 -15 55 -15 85c0 122 71 222 204 222c71 0 155 -36 170 -124c0 -18 -2 -35 -10 -51l-29 -67c-36 116 -109 134 -140 134c-48 0 -72 -43 -72 -101c0 -48 9 -80 33 -98z" />
    <glyph glyph-name="ain.medi" unicode="&#x639;" horiz-adv-x="553" arabic-form="medial" 
d="M558 123v-123h-68c-47 0 -139 0 -211 48c-28 -20 -93 -48 -164 -48h-120v123h146c20 0 36 -1 47 4c-42 54 -100 89 -143 99c0 13 1 31 2 43c1 16 3 45 3 58c25 11 51 26 78 41h-1c46 26 103 57 160 57c82 0 149 -44 192 -74c14 -10 30 -20 44 -29
c-21 -51 -76 -138 -135 -195c13 -4 26 -4 38 -4h64h68zM298 314c-51 0 -89 -22 -112 -36c18 -13 36 -29 55 -44c16 -16 33 -30 50 -42c36 31 61 63 92 103c-32 13 -60 19 -85 19z" />
    <glyph glyph-name="ghain.isol" unicode="&#x63a;" horiz-adv-x="536" arabic-form="isolated" 
d="M261 123h235v-57c0 -30 -28 -66 -69 -66h-156c-74 -7 -94 -44 -94 -81c0 -17 -9 -132 126 -132c48 0 111 28 152 66v-64c0 -79 -89 -111 -164 -111c-83 0 -231 65 -231 215c0 94 25 155 78 191c-3 6 -6 10 -9 16c-17 31 -26 69 -26 108c0 122 71 222 204 222
c76 0 149 -37 171 -124c0 -18 -3 -35 -11 -51l-29 -67c-36 116 -109 134 -139 134c-49 0 -73 -43 -73 -101c0 -47 11 -81 35 -98zM306 471c-39 0 -68 31 -68 69c0 39 29 67 68 67c38 0 68 -28 68 -67c0 -38 -30 -69 -68 -69z" />
    <glyph glyph-name="ghain.fina" unicode="&#x63a;" horiz-adv-x="622" arabic-form="final" 
d="M627 123v-123h-76c-46 0 -138 -1 -212 47c-11 -7 -26 -14 -45 -22h1c-52 -21 -118 -33 -118 -110c0 -20 -9 -118 126 -118c49 0 111 30 152 68v-66c0 -79 -88 -110 -164 -110c-83 0 -231 50 -231 200c0 123 52 222 186 241c-42 48 -101 86 -142 96c0 11 1 34 2 47
c1 15 3 40 3 55c27 10 46 23 72 37h-1c16 9 35 19 51 27c14 10 74 34 116 34c84 0 147 -42 190 -73c14 -11 31 -21 45 -30c-21 -52 -74 -139 -135 -196c15 -5 26 -4 39 -4h63h78zM300 234c16 -16 33 -30 50 -42c33 30 64 65 93 104c-32 13 -61 19 -86 19
c-51 0 -89 -22 -112 -36c20 -13 37 -30 55 -45zM346 471c-40 0 -68 31 -68 69c0 39 28 67 68 67c37 0 68 -28 68 -67c0 -38 -31 -69 -68 -69z" />
    <glyph glyph-name="ghain.init" unicode="&#x63a;" horiz-adv-x="518" arabic-form="initial" 
d="M275 471c-39 0 -68 31 -68 69c0 39 29 67 68 67c38 0 68 -28 68 -67c0 -38 -30 -69 -68 -69zM227 123h251v-57c0 -30 -27 -66 -68 -66h-420v123h96c-10 25 -15 55 -15 85c0 122 71 222 204 222c71 0 155 -36 170 -124c0 -18 -2 -35 -10 -51l-29 -67
c-36 116 -109 134 -140 134c-48 0 -72 -43 -72 -101c0 -48 9 -80 33 -98z" />
    <glyph glyph-name="ghain.medi" unicode="&#x63a;" horiz-adv-x="553" arabic-form="medial" 
d="M289 471c-39 0 -68 31 -68 69c0 39 29 67 68 67c38 0 68 -28 68 -67c0 -38 -30 -69 -68 -69zM558 123v-123h-68c-47 0 -139 0 -211 48c-28 -20 -93 -48 -164 -48h-120v123h146c20 0 36 -1 47 4c-42 54 -100 89 -143 99c0 13 1 31 2 43c1 16 3 45 3 58c25 11 51 26 78 41
h-1c46 26 103 57 160 57c82 0 149 -44 192 -74c14 -10 30 -20 44 -29c-21 -51 -76 -138 -135 -195c13 -4 26 -4 38 -4h64h68zM298 314c-51 0 -89 -22 -112 -36c18 -13 36 -29 55 -44c16 -16 33 -30 50 -42c36 31 61 63 92 103c-32 13 -60 19 -85 19z" />
    <glyph glyph-name="feh.isol" unicode="&#x641;" horiz-adv-x="839" arabic-form="isolated" 
d="M598 471c-38 0 -68 30 -68 68s30 69 68 69c40 0 69 -30 69 -68c0 -39 -29 -69 -69 -69zM799 190v-190h-540c-189 0 -199 162 -199 222c0 98 30 170 115 170h71c-56 -49 -77 -115 -77 -154c0 -33 2 -115 78 -115h166c-11 24 -18 52 -18 85c0 122 71 222 204 222
c123 0 200 -103 200 -240zM590 322c-49 0 -73 -42 -73 -101c0 -98 81 -98 143 -98h16v56c0 72 -8 143 -86 143z" />
    <glyph glyph-name="feh.fina" unicode="&#x641;" horiz-adv-x="879" arabic-form="final" 
d="M598 470c-37 0 -68 31 -68 68c0 38 31 69 68 69c40 0 69 -30 69 -68c0 -39 -29 -69 -69 -69zM856 123h33v-123h-48c-48 0 -90 10 -114 27c-31 -19 -67 -27 -113 -27h-355c-189 0 -199 162 -199 222c0 98 30 170 115 170h72c-57 -49 -78 -115 -78 -154
c0 -33 2 -115 79 -115h165c-10 22 -17 54 -17 85c0 122 70 222 203 222c123 0 202 -103 200 -240c0 -21 -1 -35 -1 -57c12 -9 32 -10 58 -10zM591 322c-49 0 -74 -42 -74 -101c0 -98 81 -98 143 -98h16v56c0 72 -8 143 -85 143z" />
    <glyph glyph-name="feh.init" unicode="&#x641;" horiz-adv-x="509" arabic-form="initial" 
d="M262 471c-38 0 -68 30 -68 68s30 69 68 69c40 0 69 -30 69 -68c0 -39 -29 -69 -69 -69zM424 343c29 -44 39 -100 39 -153v-190h-475v123h87c-9 22 -16 54 -16 85c0 122 71 222 204 222c64 0 126 -27 161 -87zM339 123v18c0 13 1 26 1 38c0 72 -8 143 -85 143
c-49 0 -74 -42 -74 -101c0 -98 81 -98 143 -98h15z" />
    <glyph glyph-name="feh.medi" unicode="&#x641;" horiz-adv-x="548" arabic-form="medial" 
d="M270 470c-37 0 -67 31 -67 68c0 38 30 69 67 69c40 0 69 -30 69 -68c0 -39 -29 -69 -69 -69zM470 123h83v-123h-558v123h87c-9 22 -15 54 -15 85c0 122 70 222 203 222c124 0 200 -103 200 -240v-67zM262 322c-49 0 -74 -42 -74 -101c0 -98 81 -98 144 -98h16v56
c0 72 -9 143 -86 143z" />
    <glyph glyph-name="qaf.isol" unicode="&#x642;" horiz-adv-x="682" arabic-form="isolated" 
d="M527 470c-37 0 -68 30 -68 68c0 37 31 68 68 68s68 -31 68 -68c0 -38 -31 -68 -68 -68zM380 470c-37 0 -68 30 -68 68c0 37 31 68 68 68c38 0 69 -31 69 -68c0 -38 -31 -68 -69 -68zM452 425c136 0 195 -109 200 -238c0 -114 0 -368 -273 -368c-211 0 -319 134 -319 296
c0 90 38 156 114 156h72c-58 -50 -77 -115 -77 -155c0 -57 48 -171 195 -171c51 3 101 13 137 55c-115 6 -252 37 -252 204v6c3 47 14 215 203 215zM531 123v51c0 72 -9 144 -87 144c-49 0 -74 -43 -74 -101c0 -94 95 -94 155 -94h6z" />
    <glyph glyph-name="qaf.fina" unicode="&#x642;" horiz-adv-x="721" arabic-form="final" 
d="M452 425c136 0 195 -109 200 -238c0 -18 0 -41 -1 -64h80v-123h-99c-28 -94 -94 -181 -253 -181c-211 0 -319 134 -319 296c0 90 38 156 114 156h72c-58 -50 -77 -115 -77 -155c0 -57 48 -171 195 -171c51 3 101 13 137 55c-115 6 -252 37 -252 204v6
c3 47 14 215 203 215zM531 123v51c0 72 -9 144 -87 144c-49 0 -74 -43 -74 -101c0 -94 95 -94 155 -94h6zM380 470c-37 0 -68 30 -68 68c0 37 31 68 68 68c38 0 69 -31 69 -68c0 -38 -31 -68 -69 -68zM527 470c-37 0 -68 30 -68 68c0 37 31 68 68 68s68 -31 68 -68
c0 -38 -31 -68 -68 -68z" />
    <glyph glyph-name="qaf.init" unicode="&#x642;" horiz-adv-x="510" arabic-form="initial" 
d="M431 343c29 -44 39 -100 39 -153v-190h-475v123h87c-9 22 -16 54 -16 85c0 122 71 222 204 222c64 0 126 -27 161 -87zM347 123v56c0 72 -8 143 -85 143c-49 0 -74 -42 -74 -101c0 -98 81 -98 143 -98h16zM197 470c-38 0 -69 30 -69 68s31 68 69 68s68 -30 68 -68
s-30 -68 -68 -68zM344 470c-39 0 -69 30 -69 68s30 68 69 68c36 0 68 -30 68 -68s-32 -68 -68 -68z" />
    <glyph glyph-name="qaf.medi" unicode="&#x642;" horiz-adv-x="548" arabic-form="medial" 
d="M197 470c-38 0 -69 30 -69 68s31 68 69 68s68 -30 68 -68s-30 -68 -68 -68zM344 470c-39 0 -69 30 -69 68s30 68 69 68c36 0 68 -30 68 -68s-32 -68 -68 -68zM470 123h83v-123h-558v123h87c-9 22 -15 54 -15 85c0 122 70 222 203 222c124 0 200 -103 200 -240v-67z
M262 322c-49 0 -74 -42 -74 -101c0 -98 81 -98 144 -98h16v56c0 72 -9 143 -86 143z" />
    <glyph glyph-name="kaf.isol" unicode="&#x643;" horiz-adv-x="750" arabic-form="isolated" 
d="M388 368h89v-25c0 -13 -11 -27 -30 -27h-119c-17 0 -27 14 -27 27v25h28c-1 4 -1 10 -1 24c0 45 27 79 74 79c29 0 57 -13 64 -46c0 -18 -6 -26 -13 -36c-2 -3 -7 -9 -9 -12c-14 50 -36 48 -45 48c-13 0 -17 -13 -17 -30c0 -11 1 -22 6 -27zM622 600c59 0 88 -31 88 -89
v-337c0 -97 -57 -170 -177 -174h-275c-188 0 -198 162 -198 222c0 96 30 170 115 170h74c-60 -50 -79 -115 -79 -154c0 -33 2 -115 77 -115h278c36 3 49 22 49 56v421h48z" />
    <glyph glyph-name="kaf.fina" unicode="&#x643;" horiz-adv-x="809" arabic-form="final" 
d="M389 368h90v-25c0 -13 -11 -27 -30 -27h-119c-17 0 -28 14 -28 27v25h29c-1 4 -1 10 -1 17v7c0 45 27 79 73 79c29 0 58 -13 65 -46c0 -20 -11 -33 -22 -48c-15 50 -37 48 -46 48c-13 0 -17 -13 -17 -30c0 -11 1 -22 6 -27zM806 123h23v-123h-38c-55 0 -104 14 -139 40
c-29 -24 -69 -38 -120 -40h-274c-189 0 -198 163 -198 222c0 96 29 170 114 170h72c-58 -49 -77 -115 -77 -154c0 -33 1 -115 78 -115h279c34 3 48 22 48 56v421h48c58 0 88 -31 88 -89v-310c4 -58 28 -78 96 -78z" />
    <glyph glyph-name="kaf.init" unicode="&#x643;" horiz-adv-x="513" arabic-form="initial" 
d="M464 658c8 -10 12 -26 12 -41c0 -16 -6 -35 -21 -47l-231 -173h3c9 -2 68 -19 108 -66c14 -17 79 -93 79 -223v-108h-431v123h305c-6 102 -75 146 -78 148v-1c-29 18 -56 26 -86 26c-15 0 -31 -1 -52 -5l-27 35c-8 11 -15 27 -15 42c0 18 10 42 32 59l368 275z" />
    <glyph glyph-name="kaf.medi" unicode="&#x643;" horiz-adv-x="492" arabic-form="medial" 
d="M421 702l34 -44c7 -9 12 -25 12 -41c0 -17 -7 -35 -22 -47c-42 -33 -87 -65 -129 -97c-35 -25 -69 -51 -103 -76c13 -1 184 -49 192 -274h89v-123h-511v123h296c-6 102 -75 146 -78 148v-1c-29 18 -55 26 -86 26c-14 0 -31 -1 -51 -5c-3 4 -13 14 -15 18
c-14 16 -28 35 -28 59c0 18 12 42 32 59c117 88 251 188 368 275z" />
    <glyph glyph-name="lam.isol" unicode="&#x644;" horiz-adv-x="672" arabic-form="isolated" 
d="M544 600c59 0 88 -31 88 -89v-348c0 -89 -17 -345 -292 -345c-164 0 -280 134 -280 296c0 90 38 156 114 156h72c-58 -50 -77 -115 -77 -155c0 -87 63 -172 156 -172c102 0 170 56 170 246v411h49z" />
    <glyph glyph-name="lam.fina" unicode="&#x644;" horiz-adv-x="715" arabic-form="final" 
d="M545 600c58 0 88 -31 88 -89v-376c14 -9 35 -12 68 -12h24v-123h-39c-22 0 -49 0 -75 10c-31 -94 -104 -192 -271 -192c-164 0 -280 134 -280 296c0 90 38 156 114 156h72c-57 -50 -76 -115 -76 -155c0 -87 62 -172 155 -172c102 0 171 56 171 246v411h49z" />
    <glyph glyph-name="lam.init" unicode="&#x644;" horiz-adv-x="249" arabic-form="initial" 
d="M115 599c58 0 89 -30 89 -88v-337c0 -97 -58 -170 -176 -174h-48v123h39c35 2 47 22 47 56v420h49z" />
    <glyph glyph-name="lam.medi" unicode="&#x644;" horiz-adv-x="274" arabic-form="medial" 
d="M272 123h23v-123h-38c-59 0 -89 11 -123 40c-36 -28 -89 -40 -163 -40v123h35c36 3 49 22 49 57v419h48c58 0 88 -31 88 -88v-306c3 -60 13 -82 81 -82z" />
    <glyph glyph-name="meem.isol" unicode="&#x645;" horiz-adv-x="651" arabic-form="isolated" 
d="M415 430c124 0 196 -100 196 -209c0 -123 -71 -221 -204 -221c-27 0 -57 6 -83 18c-3 -6 -3 -7 -6 -12c-22 -46 -60 -116 -157 -116l-11 1c-62 1 -90 29 -90 81v40h81c63 0 74 50 74 103c0 17 -1 34 -2 51c0 13 -1 31 -1 42c0 122 70 222 203 222zM415 107
c50 0 74 43 74 101c0 72 -26 114 -82 114c-49 0 -74 -42 -74 -101c0 -71 25 -114 82 -114z" />
    <glyph glyph-name="meem.fina" unicode="&#x645;" horiz-adv-x="675" arabic-form="final" 
d="M640 123h45v-123h-37c-44 0 -86 12 -114 41c-33 -23 -77 -41 -127 -41c-34 0 -61 7 -82 16c-2 -3 -4 -7 -5 -9c-23 -46 -58 -117 -159 -117l-11 1c-61 1 -90 29 -90 81v40h81c63 0 74 50 74 103c0 17 0 34 -1 51c-1 13 -2 31 -2 42c0 122 70 222 203 222
c124 0 196 -100 196 -209c0 -33 -4 -65 -15 -92c10 -6 25 -6 44 -6zM415 107c50 0 74 43 74 101c0 72 -26 114 -82 114c-49 0 -74 -42 -74 -101c0 -71 25 -114 82 -114z" />
    <glyph glyph-name="meem.init" unicode="&#x645;" horiz-adv-x="546" arabic-form="initial" 
d="M-15 123h24c76 0 96 27 97 100c0 108 75 206 196 206c132 0 204 -99 204 -221c0 -109 -73 -207 -196 -207c-54 0 -101 20 -136 49c-37 -34 -86 -50 -150 -50h-39v123zM302 108c56 0 81 42 81 113c0 58 -25 100 -73 100c-57 0 -82 -42 -82 -113c0 -58 25 -100 74 -100z
" />
    <glyph glyph-name="meem.medi" unicode="&#x645;" horiz-adv-x="609" arabic-form="medial" 
d="M601 123h23v-123h-39c-64 0 -110 12 -147 47c-33 -27 -78 -47 -128 -47c-54 0 -102 19 -136 49c-37 -32 -88 -49 -150 -49h-39v123h24c76 0 96 26 97 99c0 108 74 206 196 206c132 0 203 -99 203 -221c0 -61 27 -84 96 -84zM302 107c56 0 81 42 81 113
c0 59 -25 100 -73 100c-57 0 -83 -41 -83 -113c0 -58 25 -100 75 -100z" />
    <glyph glyph-name="noon.isol" unicode="&#x646;" horiz-adv-x="672" arabic-form="isolated" 
d="M544 349c59 0 88 -31 88 -89v-97c0 -89 -17 -345 -292 -345c-164 0 -280 134 -280 296c0 90 38 156 114 156h72c-58 -50 -77 -115 -77 -155c0 -87 63 -172 156 -172c102 0 170 56 170 246v160h49zM350 349c-37 0 -68 31 -68 69c0 39 31 68 68 68c39 0 70 -29 70 -68
c0 -38 -31 -69 -70 -69z" />
    <glyph glyph-name="noon.fina" unicode="&#x646;" horiz-adv-x="715" arabic-form="final" 
d="M545 349c58 0 88 -31 88 -89v-125c14 -9 35 -12 68 -12h24v-123h-39c-22 0 -49 0 -75 10c-31 -94 -104 -192 -271 -192c-164 0 -280 134 -280 296c0 90 38 156 114 156h72c-57 -50 -76 -115 -76 -155c0 -87 62 -172 155 -172c102 0 171 56 171 246v160h49zM351 349
c-38 0 -68 31 -68 69c0 39 30 68 68 68s69 -29 69 -68c0 -38 -31 -69 -69 -69z" />
    <glyph glyph-name="noon.init" unicode="&#x646;" horiz-adv-x="314" arabic-form="initial" 
d="M264 470c0 -38 -32 -69 -68 -69c-38 0 -68 31 -68 69c0 37 30 68 68 68c36 0 68 -31 68 -68zM178 349c57 0 86 -30 86 -89v-86c0 -96 -56 -170 -173 -174h-101v123h91c34 3 48 22 48 57v169h49z" />
    <glyph glyph-name="noon.medi" unicode="&#x646;" horiz-adv-x="326" arabic-form="medial" 
d="M238 470c0 -38 -36 -69 -68 -69c-37 0 -68 31 -68 69c0 37 28 68 68 68c36 0 68 -31 68 -68zM238 261v-56c3 -57 27 -81 98 -82v-123h-17c-58 0 -102 11 -137 40c-29 -24 -69 -38 -119 -40h-63v123h54c35 2 48 21 48 56v170h48c58 0 88 -29 88 -88z" />
    <glyph glyph-name="heh.isol" unicode="&#x647;" horiz-adv-x="494" arabic-form="isolated" 
d="M263 429c124 0 196 -100 196 -209c0 -123 -71 -221 -204 -221c-125 0 -195 98 -195 208c0 122 70 222 203 222zM255 321c-49 0 -74 -42 -74 -101c0 -71 25 -113 82 -113c50 0 74 42 74 100c0 72 -26 114 -82 114z" />
    <glyph glyph-name="heh.fina" unicode="&#x647;" horiz-adv-x="564" arabic-form="final" 
d="M574 123v-123h-151h-81c-121 3 -282 26 -282 207c0 122 71 222 204 222c26 0 51 -5 73 -13c90 -36 128 -133 127 -227c0 -26 -1 -40 -1 -66h111zM182 220c0 -97 90 -97 151 -97h9v53c0 73 -8 145 -87 145c-49 0 -73 -42 -73 -101z" />
    <glyph glyph-name="heh.init" unicode="&#x647;" horiz-adv-x="583" arabic-form="initial" 
d="M147 0h-152v123h97c-18 29 -24 57 -24 82c0 97 68 148 152 148c113 0 156 -94 155 -183c0 -20 -1 -28 -1 -47h42c2 14 3 31 3 44c0 95 -46 219 -189 219c-50 0 -91 -18 -146 -70v69c0 69 18 124 166 124c222 0 293 -188 293 -354c0 -15 -1 -93 -27 -155
c-98 0 -147 -1 -184 24c-33 -16 -69 -24 -185 -24zM171 192c0 -4 -2 -65 97 -69v1c1 57 2 131 -52 131c-30 0 -45 -26 -45 -63z" />
    <glyph glyph-name="heh.medi" unicode="&#x647;" horiz-adv-x="617" arabic-form="medial" 
d="M542 123h80v-123h-192c-41 0 -76 10 -98 24c-33 -16 -68 -24 -185 -24h-152v123h97c-18 29 -24 57 -24 82c0 97 68 148 153 148c113 0 155 -95 154 -184c0 -20 -1 -27 -1 -46h42c2 14 3 29 3 44c0 95 -46 219 -189 219c-50 0 -91 -18 -146 -70v69c0 69 19 124 167 124
c221 0 292 -188 292 -354c0 -4 0 -18 -1 -30v-2zM269 123v2c1 56 1 130 -53 130c-29 0 -44 -27 -44 -64c0 -3 -1 -64 97 -68z" />
    <glyph glyph-name="waw.isol" unicode="&#x648;" horiz-adv-x="479" arabic-form="isolated" 
d="M430 268c5 -24 9 -50 9 -78l-2 -148c-1 -72 -58 -207 -262 -207c-49 0 -80 26 -80 59v49c103 2 167 30 196 58c-117 6 -256 39 -256 207c0 122 71 222 204 222c26 0 51 -5 74 -13c65 -26 106 -87 117 -149zM157 221c0 -90 61 -98 116 -98h42v22c-1 81 -2 177 -84 177
c-49 0 -74 -43 -74 -101z" />
    <glyph glyph-name="waw.fina" unicode="&#x648;" horiz-adv-x="523" arabic-form="final" 
d="M313 417c89 -37 126 -132 126 -227l-1 -67h100v-123h-107c-19 -72 -88 -165 -256 -165c-49 0 -80 26 -80 59v49c103 2 167 30 196 58c-117 6 -256 39 -256 207c0 122 71 222 204 222c26 0 51 -5 74 -13zM157 221c0 -90 61 -98 116 -98h42v22c-1 81 -2 177 -84 177
c-49 0 -74 -43 -74 -101z" />
    <glyph glyph-name="alefmaksura.isol" unicode="&#x649;" horiz-adv-x="892" arabic-form="isolated" 
d="M748 0h-43v304c-130 -8 -148 -107 -158 -212c-10 -132 -45 -241 -206 -241c-179 0 -271 91 -271 260c0 106 49 174 128 174l57 -5c-27 -30 -69 -93 -69 -161c0 -81 12 -148 162 -150c70 0 73 66 79 147c3 64 14 148 49 207c46 68 129 106 249 106h102v-342
c0 -60 -38 -87 -79 -87z" />
    <glyph glyph-name="alefmaksura.fina" unicode="&#x649;" horiz-adv-x="892" arabic-form="final" 
d="M695 0v304c-130 -8 -148 -107 -158 -212c-10 -132 -45 -241 -206 -241c-179 0 -271 91 -271 260c0 106 49 174 128 174l57 -5c-27 -30 -69 -93 -69 -161c0 -81 12 -148 162 -150c70 0 73 66 79 147c3 64 14 148 49 207c46 68 129 106 249 106h102v-306h85v-123h-207z" />
    <glyph glyph-name="yeh.isol" unicode="&#x64a;" horiz-adv-x="892" arabic-form="isolated" 
d="M748 0h-43v304c-130 -8 -148 -107 -158 -212c-10 -132 -45 -241 -206 -241c-179 0 -271 91 -271 260c0 106 49 174 128 174l57 -5c-27 -30 -69 -93 -69 -161c0 -81 12 -148 162 -150c70 0 73 66 79 147c3 64 14 148 49 207c46 68 129 106 249 106h102v-342
c0 -60 -38 -87 -79 -87zM398 -325c-38 0 -69 31 -69 68c0 39 31 67 69 67s69 -28 69 -67c0 -37 -31 -68 -69 -68zM246 -325c-38 0 -68 31 -68 68c0 39 30 67 68 67c36 0 68 -28 68 -67c0 -37 -32 -68 -68 -68z" />
    <glyph glyph-name="yeh.fina" unicode="&#x64a;" horiz-adv-x="892" arabic-form="final" 
d="M695 0v304c-130 -8 -148 -107 -158 -212c-10 -132 -45 -241 -206 -241c-179 0 -271 91 -271 260c0 106 49 174 128 174l57 -5c-27 -30 -69 -93 -69 -161c0 -81 12 -148 162 -150c70 0 73 66 79 147c3 64 14 148 49 207c46 68 129 106 249 106h102v-306h85v-123h-207z
M236 -325c-38 0 -68 31 -68 68c0 39 30 67 68 67c36 0 68 -28 68 -67c0 -37 -32 -68 -68 -68zM388 -325c-38 0 -69 31 -69 68c0 39 31 67 69 67s69 -28 69 -67c0 -37 -31 -68 -69 -68z" />
    <glyph glyph-name="yeh.init" unicode="&#x64a;" horiz-adv-x="339" arabic-form="initial" 
d="M187 349c58 0 87 -30 87 -89v-86c0 -96 -57 -170 -173 -174h-111v123h100c35 3 48 22 48 57v169h49zM77 -186c-38 0 -69 31 -69 69s31 68 69 68c37 0 68 -30 68 -68s-31 -69 -68 -69zM230 -186c-37 0 -68 31 -68 69s31 68 68 68s69 -30 69 -68s-32 -69 -69 -69z" />
    <glyph glyph-name="yeh.medi" unicode="&#x64a;" horiz-adv-x="326" arabic-form="medial" 
d="M73 -186c-38 0 -69 29 -69 69c0 37 31 68 69 68c37 0 68 -31 68 -68c0 -40 -31 -69 -68 -69zM225 -186c-37 0 -68 29 -68 69c0 37 31 68 68 68c36 0 69 -31 69 -68c0 -40 -33 -69 -69 -69zM238 261v-56c2 -57 27 -82 98 -82v-123h-17c-58 0 -102 11 -137 40
c-29 -24 -69 -38 -119 -40h-63v123h54c35 2 48 21 48 56v170h48c58 0 88 -29 88 -88z" />
    <glyph glyph-name="fathatan" unicode="&#xfe70;" arabic-form="isolated" 
d="M42 -100l1 -27c-55 -2 -102 -6 -154 -8c-28 -2 -28 36 -28 54c44 1 106 6 150 7c22 1 30 -12 31 -26zM42 -29l1 -27c-55 -2 -102 -6 -154 -8c-28 -2 -28 36 -28 54c44 1 106 6 150 7c22 1 30 -12 31 -26z" />
    <glyph glyph-name="dammatan" unicode="&#xfe72;" arabic-form="isolated" 
d="M-3 35c37 0 68 -27 68 -68c0 -99 -164 -102 -198 -102c-23 0 -29 13 -32 46h17c6 3 13 16 13 29c0 11 -8 19 -22 19c-7 0 -15 -14 -21 -25c-20 20 -20 32 -20 39c0 18 18 34 46 34c46 0 69 -35 69 -68c0 -8 -1 -15 -4 -24c4 1 21 2 29 4c-7 11 -14 28 -14 41
c0 43 32 75 69 75zM-1 -62c10 1 15 10 15 23c0 16 -8 27 -20 27c-10 0 -15 -11 -15 -23c0 -16 9 -27 20 -27z" />
    <glyph glyph-name="kasratan" unicode="&#xfe74;" arabic-form="isolated" 
d="M42 -97l1 -27c-55 -2 -102 -6 -154 -8c-28 -2 -28 36 -28 54c44 1 106 6 150 7c22 1 30 -12 31 -26zM42 -26l1 -27c-55 -2 -102 -6 -154 -8c-28 -2 -28 36 -28 54c44 1 106 6 150 7c22 1 30 -12 31 -26z" />
    <glyph glyph-name="fatha" unicode="&#xfe76;" arabic-form="isolated" 
d="M42 -60l1 -27c-55 -2 -102 -6 -154 -8c-28 -2 -28 36 -28 54c44 1 106 6 150 7c22 1 30 -12 31 -26z" />
    <glyph glyph-name="damma" unicode="&#xfe78;" arabic-form="isolated" 
d="M11 -63c10 2 13 12 13 25c0 17 -8 27 -18 27s-15 -11 -15 -25c0 -17 9 -27 20 -27zM8 35c37 0 68 -26 68 -67c0 -99 -142 -102 -189 -103c-25 0 -27 15 -30 46l33 1c18 1 43 2 63 6c-9 12 -12 27 -12 42c0 43 28 75 67 75z" />
    <glyph glyph-name="kasra" unicode="&#xfe7a;" arabic-form="isolated" 
d="M42 -26l1 -27c-55 -2 -102 -6 -154 -8c-28 -2 -28 36 -28 54c44 1 106 6 150 7c22 1 30 -12 31 -26z" />
    <glyph glyph-name="shadda" unicode="&#xfe7c;" arabic-form="isolated" 
d="M-110 11l6 -80c1 -13 7 -17 12 -17s8 3 8 14c0 13 -3 33 -3 48c0 29 10 34 32 35h18l7 -82c1 -8 4 -15 12 -15c6 0 8 6 8 17c-1 15 -4 31 -4 46c0 31 22 37 49 28l8 -79c2 -23 -14 -61 -57 -61c-11 0 -24 1 -40 12c-8 -7 -21 -10 -33 -10c-37 0 -61 25 -66 65
c-2 16 -5 33 -5 50s12 31 48 29z" />
    <glyph glyph-name="sukun" unicode="&#xfe7e;" arabic-form="isolated" 
d="M-34 47c52 0 77 -43 77 -83c0 -48 -40 -86 -85 -86c-52 0 -76 46 -76 84c0 52 38 85 84 85zM-37 -5c-16 -2 -23 -18 -23 -36c0 -19 8 -30 22 -30c15 0 21 19 21 40c0 15 -7 24 -20 26z" />
    <glyph glyph-name="alef_wasla.isol" unicode="&#x671;" horiz-adv-x="307" arabic-form="isolated" 
d="M233 0h-57c-40 0 -80 27 -80 87v513h62c34 0 75 -28 75 -68v-532zM40 686v23h25v77h21c16 0 26 -4 32 -12c18 20 41 33 68 33c61 0 81 -61 81 -103c0 -31 -10 -53 -30 -53h-157c-28 0 -40 13 -40 35zM179 745c-21 0 -36 -19 -44 -36h75c-1 17 -7 36 -31 36z" />
    <glyph glyph-name="alef_wasla.fina" unicode="&#x671;" horiz-adv-x="306" arabic-form="final" 
d="M316 123v-123c-155 0 -227 60 -227 174v426h62c35 0 75 -29 75 -69v-368c3 -22 19 -38 47 -40h43zM35 686v23h25v77h20c16 0 27 -4 32 -12c19 20 42 33 69 33c61 0 81 -61 81 -103c0 -31 -10 -53 -30 -53h-157c-29 0 -40 13 -40 35zM174 745c-21 0 -36 -19 -45 -36h76
c-1 17 -7 36 -31 36z" />
    <glyph glyph-name="tteh.isol" unicode="&#x679;" horiz-adv-x="780" arabic-form="isolated" 
d="M646 349c58 0 89 -30 89 -89v-86c0 -96 -58 -171 -176 -174h-300c-189 0 -199 161 -199 222c0 98 30 170 115 170h71c-56 -49 -77 -115 -77 -154c0 -33 2 -115 78 -115h303c35 2 47 22 47 57v169h49zM320 435v22h24c1 38 0 94 0 127v26h21c26 0 37 -8 37 -35v-48
c17 16 40 28 64 28c60 0 81 -60 81 -103c0 -31 -11 -52 -30 -52h-158c-28 0 -39 12 -39 35zM458 493c-21 0 -36 -19 -44 -36h75c-1 17 -6 36 -31 36z" />
    <glyph glyph-name="uniFB67" unicode="&#x679;" horiz-adv-x="844" arabic-form="final" 
d="M831 123h23v-123h-38c-59 0 -103 11 -138 40c-29 -24 -68 -38 -118 -40h-302c-187 0 -198 161 -198 222c0 96 31 170 115 170h72c-56 -49 -77 -115 -77 -154c0 -33 2 -115 77 -115h304c35 2 47 22 47 56v170h49c57 0 87 -30 87 -89v-57c4 -59 28 -80 97 -80zM319 435v22
h24c1 38 0 94 0 127v26h21c26 0 37 -8 37 -35v-48c17 16 40 28 64 28c60 0 81 -60 81 -103c0 -31 -11 -52 -30 -52h-158c-28 0 -39 12 -39 35zM457 493c-21 0 -36 -19 -44 -36h75c-1 17 -6 36 -31 36z" />
    <glyph glyph-name="uniFB68" unicode="&#x679;" horiz-adv-x="314" arabic-form="initial" 
d="M177 349c58 0 87 -30 87 -89v-86c0 -96 -57 -170 -174 -174h-100v123h90c35 3 48 22 48 57v169h49zM85 435v22h24c1 38 0 94 0 127v26h21c26 0 37 -8 37 -35v-48c17 16 40 28 64 28c60 0 81 -60 81 -103c0 -31 -11 -52 -30 -52h-158c-28 0 -39 12 -39 35zM223 493
c-21 0 -36 -19 -44 -36h75c-1 17 -6 36 -31 36z" />
    <glyph glyph-name="uniFB69" unicode="&#x679;" horiz-adv-x="326" arabic-form="medial" 
d="M238 261v-56c3 -57 27 -81 98 -82v-123h-17c-58 0 -102 11 -137 40c-29 -24 -69 -38 -119 -40h-63v123h54c35 2 48 21 48 56v170h48c58 0 88 -29 88 -88zM59 435v22h24c1 38 0 94 0 127v26h21c26 0 37 -8 37 -35v-48c17 16 40 28 64 28c60 0 81 -60 81 -103
c0 -31 -11 -52 -30 -52h-158c-28 0 -39 12 -39 35zM197 493c-21 0 -36 -19 -44 -36h75c-1 17 -6 36 -31 36z" />
    <glyph glyph-name="peh.isol" unicode="&#x67e;" horiz-adv-x="780" arabic-form="isolated" 
d="M646 350c58 0 89 -30 89 -89v-87c0 -96 -58 -170 -176 -174h-300c-189 -1 -199 162 -199 222c0 98 30 170 115 170h71c-56 -49 -77 -114 -77 -154c0 -33 2 -115 78 -115h302c35 3 48 22 48 57v170h49zM347 -49c-37 0 -69 -31 -69 -69c0 -37 32 -70 69 -70
c36 0 68 33 68 70c0 38 -32 69 -68 69zM498 -49c-36 0 -68 -31 -68 -69c0 -37 32 -70 68 -70c37 0 70 33 70 70c0 38 -33 69 -70 69zM422 -177c-35 0 -63 -30 -63 -63c0 -35 28 -64 63 -64c33 0 63 29 63 64c0 33 -30 63 -63 63z" />
    <glyph glyph-name="peh.fina" unicode="&#x67e;" horiz-adv-x="844" arabic-form="final" 
d="M831 123h23v-123h-38c-57 0 -104 14 -139 41c-29 -24 -67 -41 -117 -41h-302c-187 -1 -198 162 -198 222c0 98 31 170 115 170h72c-56 -49 -77 -114 -77 -154c0 -33 2 -115 77 -115h303c35 3 48 22 48 57v170h49c57 0 87 -30 87 -89v-57c4 -59 28 -81 97 -81zM347 -49
c-37 0 -69 -31 -69 -69c0 -37 32 -70 69 -70c36 0 68 33 68 70c0 38 -32 69 -68 69zM498 -49c-36 0 -68 -31 -68 -69c0 -37 32 -70 68 -70c37 0 70 33 70 70c0 38 -33 69 -70 69zM422 -177c-35 0 -63 -30 -63 -63c0 -35 28 -64 63 -64c33 0 63 29 63 64c0 33 -30 63 -63 63z
" />
    <glyph glyph-name="peh.init" unicode="&#x67e;" horiz-adv-x="314" arabic-form="initial" 
d="M178 349c57 0 86 -30 86 -89v-86c0 -96 -56 -170 -173 -174h-101v123h91c34 3 48 22 48 57v169h49zM67 -49c36 0 67 -31 67 -70c0 -36 -31 -67 -67 -67c-37 0 -69 31 -69 67c0 39 32 70 69 70zM218 -49c37 0 70 -31 70 -70c0 -36 -33 -67 -70 -67c-36 0 -68 31 -68 67
c0 39 32 70 68 70zM142 -176c34 0 63 -30 63 -63c0 -35 -29 -65 -63 -65c-35 0 -63 30 -63 65c0 33 28 63 63 63z" />
    <glyph glyph-name="peh.medi" unicode="&#x67e;" horiz-adv-x="326" arabic-form="medial" 
d="M238 261v-56c2 -57 23 -82 98 -82v-123h-17c-58 0 -102 11 -137 40c-29 -24 -69 -38 -119 -40h-63v123h54c35 2 48 21 48 56v170h48c58 0 88 -29 88 -88zM74 -49c36 0 67 -31 67 -70c0 -36 -31 -67 -67 -67c-37 0 -69 31 -69 67c0 39 32 70 69 70zM225 -49
c37 0 70 -31 70 -70c0 -36 -33 -67 -70 -67c-36 0 -68 31 -68 67c0 39 32 70 68 70zM149 -176c34 0 63 -30 63 -63c0 -35 -29 -65 -63 -65c-35 0 -63 30 -63 65c0 33 28 63 63 63z" />
    <glyph glyph-name="tcheh.isol" unicode="&#x686;" horiz-adv-x="574" arabic-form="isolated" 
d="M340 1c-106 0 -167 -33 -167 -140c0 -50 16 -120 102 -130c-28 -44 -61 -44 -74 -44c-81 0 -141 75 -141 193c0 191 113 243 285 243c24 0 29 1 55 0c-17 64 -59 182 -155 182c-50 0 -90 -18 -146 -70v68c0 72 18 126 167 126c195 0 268 -217 268 -384
c0 -34 -7 -82 -19 -140c-27 71 -103 96 -175 96zM269 -49c36 0 67 -31 67 -70c0 -36 -31 -67 -67 -67c-37 0 -69 31 -69 67c0 39 32 70 69 70zM420 -49c37 0 70 -31 70 -70c0 -36 -33 -67 -70 -67c-36 0 -68 31 -68 67c0 39 32 70 68 70zM344 -176c34 0 63 -30 63 -63
c0 -35 -29 -65 -63 -65c-35 0 -63 30 -63 65c0 33 28 63 63 63z" />
    <glyph glyph-name="tcheh.fina" unicode="&#x686;" horiz-adv-x="619" arabic-form="final" 
d="M60 -120c0 194 123 244 272 244c27 0 41 0 70 -2c-12 67 -77 182 -157 182c-49 0 -91 -18 -145 -71v70c0 69 16 125 166 125c167 0 227 -162 253 -266l-1 1c11 -29 37 -40 88 -40h23v-123h-38c-44 0 -75 9 -98 25c-14 -9 -47 -25 -113 -25h-48
c-121 -3 -159 -55 -159 -139c0 -50 16 -120 102 -130c-30 -46 -60 -44 -74 -44c-81 0 -141 75 -141 193zM270 -48c36 0 67 -31 67 -70c0 -36 -31 -67 -67 -67c-37 0 -69 31 -69 67c0 39 32 70 69 70zM421 -48c37 0 70 -31 70 -70c0 -36 -33 -67 -70 -67c-36 0 -68 31 -68 67
c0 39 32 70 68 70zM345 -175c34 0 63 -30 63 -63c0 -35 -29 -65 -63 -65c-35 0 -63 30 -63 65c0 33 28 63 63 63z" />
    <glyph glyph-name="tcheh.init" unicode="&#x686;" horiz-adv-x="541" arabic-form="initial" 
d="M154 -49c36 0 67 -31 67 -70c0 -36 -31 -67 -67 -67c-37 0 -69 31 -69 67c0 39 32 70 69 70zM305 -49c37 0 70 -31 70 -70c0 -36 -33 -67 -70 -67c-36 0 -68 31 -68 67c0 39 32 70 68 70zM229 -176c34 0 63 -30 63 -63c0 -35 -29 -65 -63 -65c-35 0 -63 30 -63 65
c0 33 28 63 63 63zM-10 0v123h353c-17 64 -60 182 -155 182c-49 0 -90 -18 -145 -70v68c0 70 55 126 167 126c195 0 266 -218 266 -387c0 -34 -3 -76 -16 -132c-29 59 -91 85 -153 90h-317z" />
    <glyph glyph-name="tcheh.medi" unicode="&#x686;" horiz-adv-x="555" arabic-form="medial" 
d="M153 -49c36 0 67 -31 67 -70c0 -36 -31 -67 -67 -67c-37 0 -69 31 -69 67c0 39 32 70 69 70zM304 -49c37 0 70 -31 70 -70c0 -36 -33 -67 -70 -67c-36 0 -68 31 -68 67c0 39 32 70 68 70zM228 -176c34 0 63 -30 63 -63c0 -35 -29 -65 -63 -65c-35 0 -63 30 -63 65
c0 33 28 63 63 63zM-5 0v123h350c-18 65 -61 182 -156 182c-50 0 -90 -18 -146 -70v68c0 71 51 125 167 125c167 0 240 -165 262 -305h88v-123h-565z" />
    <glyph glyph-name="ddal.isol" unicode="&#x688;" horiz-adv-x="472" arabic-form="isolated" 
d="M109 505v22h24c1 38 0 94 0 127v26h21c26 0 37 -8 37 -35v-48c17 16 40 28 64 28c60 0 81 -60 81 -103c0 -31 -11 -52 -30 -52h-158c-28 0 -39 12 -39 35zM247 563c-21 0 -36 -19 -44 -36h75c-1 17 -6 36 -31 36zM432 108v-108h-321c-44 0 -66 35 -66 71v52h260
c-6 89 -67 173 -164 173c-14 0 -37 -2 -74 -8l35 56c23 37 50 59 98 59c53 0 114 -29 151 -73c15 -19 81 -96 81 -222z" />
    <glyph glyph-name="ddal.fina" unicode="&#x688;" horiz-adv-x="532" arabic-form="final" 
d="M109 505v22h24c1 38 0 94 0 127v26h21c26 0 37 -8 37 -35v-48c17 16 40 28 64 28c60 0 81 -60 81 -103c0 -31 -11 -52 -30 -52h-158c-28 0 -39 12 -39 35zM247 563c-21 0 -36 -19 -44 -36h75c-1 17 -6 36 -31 36zM518 123h24v-123h-20c-52 0 -85 4 -119 32
c-19 -17 -39 -32 -70 -32h-222c-45 0 -66 35 -66 71v52h260c-7 87 -67 173 -164 173c-14 0 -26 -2 -64 -8l24 56c24 37 51 59 98 59c15 0 29 -2 44 -6c90 -26 148 -104 176 -198v1c21 -62 25 -77 99 -77z" />
    <glyph glyph-name="uni0691" unicode="&#x691;" horiz-adv-x="373" arabic-form="isolated" 
d="M96 435v22h23c1 38 1 94 1 127v26h21c26 0 37 -8 37 -35v-48c17 16 40 28 64 28c60 0 81 -60 81 -103c0 -31 -11 -52 -30 -52h-158c-28 0 -39 12 -39 35zM234 493c-21 0 -36 -19 -44 -36h75c-1 17 -6 36 -31 36zM281 -23c0 -74 -63 -142 -150 -142c-54 0 -91 27 -91 71
v54c25 -4 49 -6 51 -6c49 0 54 24 54 70v325h54c62 0 82 -25 82 -88v-284z" />
    <glyph glyph-name="uniFB8D" unicode="&#x691;" horiz-adv-x="357" arabic-form="final" 
d="M79 435v22h24c1 38 0 94 0 127v26h21c26 0 37 -8 37 -35v-48c17 16 40 28 64 28c60 0 81 -60 81 -103c0 -31 -11 -52 -30 -52h-158c-28 0 -39 12 -39 35zM217 493c-21 0 -36 -19 -44 -36h75c-1 17 -6 36 -31 36zM362 0h-91v-23c0 -74 -57 -142 -145 -142
c-54 0 -91 27 -91 71v54c25 -3 49 -6 51 -6c50 0 55 28 55 83v312h53c63 0 82 -25 82 -88v-138h86v-123z" />
    <glyph glyph-name="uni0698" unicode="&#x698;" horiz-adv-x="394" arabic-form="isolated" 
d="M123 401c-37 0 -69 31 -69 69c0 37 32 70 69 70c36 0 68 -33 68 -70c0 -38 -32 -69 -68 -69zM274 401c-36 0 -68 31 -68 69c0 37 32 70 68 70c37 0 70 -33 70 -70c0 -38 -33 -69 -70 -69zM198 529c-35 0 -63 30 -63 63c0 35 28 64 63 64c33 0 63 -29 63 -64
c0 -33 -30 -63 -63 -63zM281 -23c0 -74 -63 -142 -150 -142c-54 0 -91 27 -91 71v54c25 -4 49 -6 51 -6c49 0 54 24 54 70v325h54c62 0 82 -25 82 -88v-284z" />
    <glyph glyph-name="uniFB8B" unicode="&#x698;" horiz-adv-x="357" arabic-form="final" 
d="M123 401c-37 0 -69 31 -69 69c0 37 32 70 69 70c36 0 68 -33 68 -70c0 -38 -32 -69 -68 -69zM274 401c-36 0 -68 31 -68 69c0 37 32 70 68 70c37 0 70 -33 70 -70c0 -38 -33 -69 -70 -69zM198 529c-35 0 -63 30 -63 63c0 35 28 64 63 64c33 0 63 -29 63 -64
c0 -33 -30 -63 -63 -63zM362 0h-91v-23c0 -74 -57 -142 -145 -142c-54 0 -91 27 -91 71v54c25 -3 49 -6 51 -6c50 0 55 28 55 83v312h53c63 0 82 -25 82 -88v-138h86v-123z" />
    <glyph glyph-name="veh.isol" unicode="&#x6a4;" horiz-adv-x="839" arabic-form="isolated" 
d="M799 190v-190h-540c-189 0 -199 162 -199 222c0 98 30 170 115 170h71c-56 -49 -77 -115 -77 -154c0 -33 2 -115 78 -115h166c-11 24 -18 52 -18 85c0 122 71 222 204 222c123 0 200 -103 200 -240zM590 322c-49 0 -73 -42 -73 -101c0 -98 81 -98 143 -98h16v56
c0 72 -8 143 -86 143zM524 470c-37 0 -69 31 -69 69c0 37 32 70 69 70c36 0 68 -33 68 -70c0 -38 -32 -69 -68 -69zM675 470c-36 0 -68 31 -68 69c0 37 32 70 68 70c37 0 70 -33 70 -70c0 -38 -33 -69 -70 -69zM599 598c-35 0 -63 30 -63 63c0 35 28 64 63 64
c33 0 63 -29 63 -64c0 -33 -30 -63 -63 -63z" />
    <glyph glyph-name="veh.fina" unicode="&#x6a4;" horiz-adv-x="879" arabic-form="final" 
d="M856 123h33v-123h-48c-48 0 -90 10 -114 27c-31 -19 -67 -27 -113 -27h-355c-189 0 -199 162 -199 222c0 98 30 170 115 170h72c-57 -49 -78 -115 -78 -154c0 -33 2 -115 79 -115h165c-10 22 -17 54 -17 85c0 122 70 222 203 222c123 0 202 -103 200 -240
c0 -21 -1 -35 -1 -57c12 -9 32 -10 58 -10zM591 322c-49 0 -74 -42 -74 -101c0 -98 81 -98 143 -98h16v56c0 72 -8 143 -85 143zM524 470c-37 0 -69 31 -69 69c0 37 32 70 69 70c36 0 68 -33 68 -70c0 -38 -32 -69 -68 -69zM675 470c-36 0 -68 31 -68 69c0 37 32 70 68 70
c37 0 70 -33 70 -70c0 -38 -33 -69 -70 -69zM599 598c-35 0 -63 30 -63 63c0 35 28 64 63 64c33 0 63 -29 63 -64c0 -33 -30 -63 -63 -63z" />
    <glyph glyph-name="veh.init" unicode="&#x6a4;" horiz-adv-x="505" arabic-form="initial" 
d="M465 190v-190h-475v123h87c-9 22 -16 54 -16 85c0 122 71 222 204 222c124 0 200 -103 200 -240zM257 322c-49 0 -74 -42 -74 -101c0 -98 81 -98 143 -98h16v56c0 72 -8 143 -85 143zM190 470c-37 0 -69 31 -69 69c0 37 32 70 69 70c36 0 68 -33 68 -70
c0 -38 -32 -69 -68 -69zM341 470c-36 0 -68 31 -68 69c0 37 32 70 68 70c37 0 70 -33 70 -70c0 -38 -33 -69 -70 -69zM265 598c-35 0 -63 30 -63 63c0 35 28 64 63 64c33 0 63 -29 63 -64c0 -33 -30 -63 -63 -63z" />
    <glyph glyph-name="veh.medi" unicode="&#x6a4;" horiz-adv-x="548" arabic-form="medial" 
d="M470 123h83v-123h-558v123h87c-9 22 -15 54 -15 85c0 122 70 222 203 222c124 0 200 -103 200 -240v-67zM262 322c-49 0 -74 -42 -74 -101c0 -98 81 -98 144 -98h16v56c0 72 -9 143 -86 143zM195 470c-37 0 -69 31 -69 69c0 37 32 70 69 70c36 0 68 -33 68 -70
c0 -38 -32 -69 -68 -69zM346 470c-36 0 -68 31 -68 69c0 37 32 70 68 70c37 0 70 -33 70 -70c0 -38 -33 -69 -70 -69zM270 598c-35 0 -63 30 -63 63c0 35 28 64 63 64c33 0 63 -29 63 -64c0 -33 -30 -63 -63 -63z" />
    <glyph glyph-name="kheh.isol" unicode="&#x6a9;" horiz-adv-x="821" arabic-form="isolated" 
d="M774 658c9 -10 12 -26 12 -41c0 -16 -6 -35 -21 -47l-231 -173c125 -31 185 -164 190 -289v-108h-466c-188 0 -198 162 -198 222c0 96 30 170 115 170h71c-57 -49 -76 -115 -76 -154c0 -33 1 -115 77 -115h351c-6 99 -76 144 -80 148c-29 17 -55 25 -84 25
c-15 0 -32 -1 -53 -5l-25 35c-9 11 -16 27 -16 42c0 18 10 42 32 59l368 275z" />
    <glyph glyph-name="kheh.fina" unicode="&#x6a9;" horiz-adv-x="810" arabic-form="final" 
d="M724 123h91v-123h-557c-188 0 -198 162 -198 222c0 96 30 170 115 170h72c-57 -49 -78 -115 -78 -154c0 -33 2 -115 78 -115h350c-5 102 -74 146 -77 147c-29 18 -56 26 -86 26c-13 0 -29 -2 -53 -6l-26 36c-9 12 -14 27 -14 42c0 18 9 42 32 59l367 275l33 -44
c8 -10 14 -25 14 -41s-8 -35 -23 -47l-231 -173c100 -41 170 -89 191 -274z" />
    <glyph glyph-name="kheh.init" unicode="&#x6a9;" horiz-adv-x="529" arabic-form="initial" 
d="M471 658c8 -10 13 -25 13 -41s-6 -35 -22 -47l-231 -173c125 -25 185 -166 190 -289v-108h-431v123h306c-6 101 -76 146 -79 147c-29 18 -55 26 -86 26c-15 0 -31 -1 -52 -5l-27 35c-8 11 -15 27 -15 42c0 18 11 42 33 59l369 275z" />
    <glyph glyph-name="kheh.medi" unicode="&#x6a9;" horiz-adv-x="501" arabic-form="medial" 
d="M432 702l34 -44c8 -9 13 -25 13 -41c0 -17 -8 -35 -22 -47c-42 -33 -88 -65 -129 -97c-35 -25 -69 -51 -103 -76c12 -1 184 -49 191 -274h90v-123h-511v123h295c-6 102 -74 146 -77 148v-1c-29 18 -56 26 -86 26c-14 0 -31 -1 -52 -5c-3 4 -12 14 -15 18
c-13 16 -27 35 -27 59c0 18 11 42 32 59c117 88 251 188 367 275z" />
    <glyph glyph-name="Gaf.isol" unicode="&#x6af;" horiz-adv-x="821" arabic-form="isolated" 
d="M774 658c9 -10 12 -26 12 -41c0 -16 -6 -35 -21 -47l-231 -173c125 -31 185 -164 190 -289v-108h-466c-188 0 -198 162 -198 222c0 96 30 170 115 170h71c-57 -49 -76 -115 -76 -154c0 -33 1 -115 77 -115h351c-6 99 -76 144 -80 148c-29 17 -55 25 -84 25
c-15 0 -32 -1 -53 -5l-25 35c-9 11 -16 27 -16 42c0 18 10 42 32 59l368 275zM661 817l26 -35c7 -11 12 -22 12 -34c0 -17 -7 -35 -23 -51c-107 -80 -268 -202 -376 -284l-18 24c-12 15 -22 30 -22 53c0 15 6 31 17 40c102 79 288 217 384 287z" />
    <glyph glyph-name="Gaf.fina" unicode="&#x6af;" horiz-adv-x="810" arabic-form="final" 
d="M724 123h91v-123h-557c-188 0 -198 162 -198 222c0 96 30 170 115 170h72c-57 -49 -78 -115 -78 -154c0 -33 2 -115 78 -115h350c-5 102 -74 146 -77 147c-29 18 -56 26 -86 26c-13 0 -29 -2 -53 -6l-26 36c-9 12 -14 27 -14 42c0 18 9 42 32 59l367 275l33 -44
c8 -10 14 -25 14 -41s-8 -35 -23 -47l-231 -173c100 -41 170 -89 191 -274zM661 817l26 -35c7 -11 12 -22 12 -34c0 -17 -7 -35 -23 -51c-107 -80 -268 -202 -376 -284l-18 24c-12 15 -22 30 -22 53c0 15 6 31 17 40c102 79 288 217 384 287z" />
    <glyph glyph-name="Gaf.init" unicode="&#x6af;" horiz-adv-x="515" arabic-form="initial" 
d="M467 658c8 -10 13 -25 13 -41s-6 -35 -22 -47l-231 -173c125 -25 185 -166 190 -289v-108h-431v123h306c-6 101 -76 146 -79 147c-29 18 -55 26 -86 26c-15 0 -31 -1 -52 -5l-27 35c-8 11 -15 27 -15 42c0 18 11 42 33 59l369 275zM356 817l26 -35c7 -11 12 -22 12 -34
c0 -17 -7 -35 -23 -51c-107 -80 -268 -202 -376 -284l-18 24c-12 15 -22 30 -22 53c0 15 6 31 17 40c102 79 288 217 384 287z" />
    <glyph glyph-name="Gaf.medi" unicode="&#x6af;" horiz-adv-x="501" arabic-form="medial" 
d="M356 817l26 -35c7 -11 12 -22 12 -34c0 -17 -7 -35 -23 -51c-107 -80 -268 -202 -376 -284l-18 24c-12 15 -22 30 -22 53c0 15 6 31 17 40c102 79 288 217 384 287zM432 702l34 -44c8 -9 13 -25 13 -41c0 -17 -8 -35 -22 -47c-42 -33 -88 -65 -129 -97
c-35 -25 -69 -51 -103 -76c12 -1 184 -49 191 -274h90v-123h-511v123h295c-6 102 -74 146 -77 148v-1c-29 18 -56 26 -86 26c-14 0 -31 -1 -52 -5c-3 4 -12 14 -15 18c-13 16 -27 35 -27 59c0 18 11 42 32 59c117 88 251 188 367 275z" />
    <glyph glyph-name="ghunna.isol" unicode="&#x6ba;" horiz-adv-x="672" arabic-form="isolated" 
d="M545 349c58 0 87 -31 87 -89v-228c-5 -105 -154 -215 -292 -215c-164 0 -280 134 -280 296c0 90 38 156 114 156h72c-58 -50 -77 -115 -77 -155c0 -87 63 -172 156 -172c113 0 171 62 171 152v255h49z" />
    <glyph glyph-name="ghunna.fina" unicode="&#x6ba;" horiz-adv-x="714" arabic-form="final" 
d="M701 123h23v-123h-39c-20 0 -39 1 -58 6c-27 -97 -162 -187 -288 -187c-164 0 -279 133 -279 295c0 91 37 157 114 157h71c-57 -50 -76 -115 -76 -156c0 -86 62 -172 155 -172c114 0 171 63 171 152v254h49c58 0 88 -31 88 -88v-124c15 -10 37 -14 69 -14z" />
    <glyph glyph-name="uni06BE" unicode="&#x6be;" horiz-adv-x="643" arabic-form="isolated" 
d="M181 7l-1 -62h-47c-39 0 -73 24 -73 96c0 27 10 82 75 82h17c-18 29 -24 57 -24 82c0 97 68 148 152 148c113 0 156 -94 155 -183c0 -20 -1 -28 -1 -47h42c2 14 3 31 3 44c0 95 -46 219 -189 219c-50 0 -91 -18 -146 -70v69c0 69 18 124 166 124c222 0 293 -188 293 -354
c0 -15 -1 -93 -27 -155h-68c-47 0 -86 7 -113 22c-22 -19 -49 -22 -66 -22h-7c-28 0 -99 0 -141 7zM231 192c0 -4 -2 -65 97 -69v1c1 57 2 131 -52 131c-30 0 -45 -26 -45 -63z" />
    <glyph glyph-name="uniFBAB" unicode="&#x6be;" horiz-adv-x="566" arabic-form="final" 
d="M-10 0v123h88c5 102 30 230 182 230c108 0 175 -63 175 -179c0 -18 -2 -36 -7 -51h148v-123h-103c11 -25 16 -50 16 -78c0 -133 -80 -204 -202 -204c-181 0 -206 161 -209 282h-88zM299 -160c58 0 83 24 83 73c0 79 -55 87 -127 87h-53v-9c0 -61 0 -151 97 -151zM271 243
c-76 0 -82 -59 -82 -105v-15h56c54 0 93 0 93 59c0 41 -18 61 -67 61z" />
    <glyph glyph-name="hehhamza" unicode="&#x6c0;" horiz-adv-x="494" arabic-form="isolated" 
d="M263 429c124 0 196 -100 196 -209c0 -123 -71 -221 -204 -221c-125 0 -195 98 -195 208c0 122 70 222 203 222zM255 321c-49 0 -74 -42 -74 -101c0 -71 25 -113 82 -113c50 0 74 42 74 100c0 72 -26 114 -82 114zM259 523h89v-25c0 -13 -11 -28 -30 -28h-119
c-16 0 -27 15 -27 28v25h28c-1 4 -1 10 -1 17v7c0 44 27 79 74 79c29 0 57 -13 64 -47c0 -19 -11 -32 -22 -47c-14 49 -36 47 -45 47c-22 0 -22 -43 -11 -56z" />
    <glyph glyph-name="hehhamza.fina" unicode="&#x6c0;" horiz-adv-x="564" arabic-form="final" 
d="M261 524h89v-25c0 -13 -11 -28 -30 -28h-119c-16 0 -27 15 -27 28v25h28c-1 4 -1 10 -1 17v7c0 44 27 79 74 79c29 0 57 -13 64 -47c0 -19 -11 -32 -22 -47c-14 49 -36 47 -45 47c-22 0 -22 -43 -11 -56zM574 123v-123h-151h-81c-121 3 -282 26 -282 207
c0 122 71 222 204 222c143 0 200 -124 200 -240c0 -26 -1 -40 -1 -66h111zM182 220c0 -97 89 -97 151 -97h9v53c0 73 -9 145 -87 145c-49 0 -73 -42 -73 -101z" />
    <glyph glyph-name="uni06C1" unicode="&#x6c1;" horiz-adv-x="494" arabic-form="isolated" 
d="M263 429c124 0 196 -100 196 -209c0 -123 -71 -221 -204 -221c-125 0 -195 98 -195 208c0 122 70 222 203 222zM255 321c-49 0 -74 -42 -74 -101c0 -71 25 -113 82 -113c50 0 74 42 74 100c0 72 -26 114 -82 114z" />
    <glyph glyph-name="hehfinaltone" unicode="&#x6c1;" horiz-adv-x="557" arabic-form="final" 
d="M567 112v-112h-46c-148 0 -219 70 -219 219v14c-63 -19 -118 -67 -170 -149l-92 73c81 121 196 203 338 203c12 0 51 -3 51 -3v-121c0 -89 29 -124 99 -124h39z" />
    <glyph glyph-name="hehinitialaltone" unicode="&#x6c1;" horiz-adv-x="314" arabic-form="initial" 
d="M178 350c57 0 86 -30 86 -89v-87c0 -96 -56 -170 -173 -174h-101v123h91c34 3 48 22 48 57v170h49zM66 -146c0 68 50 132 111 132h46c-29 -30 -49 -71 -49 -88c0 -14 5 -21 12 -29c9 -11 18 -23 18 -44c0 -35 -29 -63 -66 -63c-43 0 -72 32 -72 92z" />
    <glyph glyph-name="hehmedialaltone" unicode="&#x6c1;" horiz-adv-x="679" arabic-form="medial" 
d="M689 123v-123h-115v-237h-103c-187 0 -274 101 -278 278c-32 -27 -73 -41 -124 -41h-79v123h89c69 0 114 56 114 146v113h126v-338c0 -101 47 -157 127 -167v246h243zM29 -146c0 68 50 132 110 132h46c-29 -30 -49 -71 -49 -88c0 -14 6 -21 13 -29c8 -11 17 -23 17 -44
c0 -35 -29 -63 -66 -63c-43 0 -71 32 -71 92z" />
    <glyph glyph-name="uni06CC" unicode="&#x6cc;" horiz-adv-x="892" arabic-form="isolated" 
d="M695 0v304c-130 -8 -148 -107 -158 -212c-10 -132 -45 -241 -206 -241c-179 0 -271 91 -271 260c0 106 49 174 128 174l57 -5c-27 -30 -69 -93 -69 -161c0 -81 12 -148 162 -150c70 0 73 66 79 147c3 64 14 148 49 207c46 68 129 106 249 106h102v-306h85v-123h-207z" />
    <glyph glyph-name="alefmaksura.init" unicode="&#x649;" horiz-adv-x="324" arabic-form="initial" 
d="M187 349c58 0 87 -30 87 -89v-86c0 -96 -57 -170 -173 -174h-111v123h100c35 3 48 22 48 57v169h49z" />
    <glyph glyph-name="alefmaksura.medi" unicode="&#x649;" horiz-adv-x="326" arabic-form="medial" 
d="M238 261v-56c2 -57 27 -82 98 -82v-123h-17c-58 0 -102 11 -137 40c-29 -24 -69 -38 -119 -40h-63v123h54c35 2 48 21 48 56v170h48c58 0 88 -29 88 -88z" />
    <glyph glyph-name="uniFBFD" unicode="&#x6cc;" horiz-adv-x="709" arabic-form="final" 
d="M331 -136c-179 0 -271 92 -271 260c0 106 49 174 129 174l85 -7s-98 -80 -98 -159c0 -80 13 -150 162 -150c69 0 72 64 78 143c2 24 2 39 5 64c-11 3 -24 5 -43 6c-35 0 -59 33 -59 62v60c36 0 39 1 43 1c128 0 195 -65 245 -138c23 -33 40 -57 70 -57h42v-123h-39
c-65 0 -114 25 -146 64c-12 -104 -36 -200 -203 -200z" />
    <glyph glyph-name="uniFBFE" unicode="&#x6cc;" horiz-adv-x="339" arabic-form="initial" 
d="M187 349c58 0 87 -30 87 -89v-86c0 -96 -57 -170 -173 -174h-111v123h100c35 3 48 22 48 57v169h49zM77 -186c-38 0 -69 31 -69 69s31 68 69 68c37 0 68 -30 68 -68s-31 -69 -68 -69zM230 -186c-37 0 -68 31 -68 69s31 68 68 68s69 -30 69 -68s-32 -69 -69 -69z" />
    <glyph glyph-name="uniFBFF" unicode="&#x6cc;" horiz-adv-x="326" arabic-form="medial" 
d="M73 -186c-38 0 -69 29 -69 69c0 37 31 68 69 68c37 0 68 -31 68 -68c0 -40 -31 -69 -68 -69zM225 -186c-37 0 -68 29 -68 69c0 37 31 68 68 68c36 0 69 -31 69 -68c0 -40 -33 -69 -69 -69zM238 261v-56c2 -57 27 -82 98 -82v-123h-17c-58 0 -102 11 -137 40
c-29 -24 -69 -38 -119 -40h-63v123h54c35 2 48 21 48 56v170h48c58 0 88 -29 88 -88z" />
    <glyph glyph-name="yehbarree" unicode="&#x6d2;" horiz-adv-x="541" arabic-form="isolated" 
d="M546 123v-123h-317c-62 -5 -124 -31 -153 -90c-13 56 -16 98 -16 132c0 169 71 387 266 387c112 0 167 -56 167 -126v-68c-55 52 -96 70 -145 70c-95 0 -138 -118 -155 -182h353z" />
    <glyph glyph-name="yehbarree.fina" unicode="&#x6d2;" horiz-adv-x="751" arabic-form="final" 
d="M664 -289h-601c-2 17 -3 43 -3 56c0 185 125 356 360 356h341v-123h-351c-140 0 -211 -93 -221 -177h475v-112z" />
    <glyph glyph-name="uni06D3" unicode="&#x6d3;" horiz-adv-x="541" arabic-form="isolated" 
d="M323 529h90v-25c0 -13 -11 -28 -30 -28h-119c-17 0 -28 15 -28 28v25h29c-1 4 -1 10 -1 17v7c0 44 27 79 73 79c29 0 58 -13 65 -47c0 -19 -11 -32 -22 -47c-15 49 -37 47 -46 47c-22 0 -22 -43 -11 -56zM546 0v123h-353c17 64 60 182 155 182c49 0 90 -18 145 -70v68
c0 70 -55 126 -167 126c-195 0 -266 -218 -266 -387c0 -34 3 -76 16 -132c29 59 91 85 153 90h317z" />
    <glyph glyph-name="uniFBB1" unicode="&#x6d3;" horiz-adv-x="758" arabic-form="final" 
d="M354 230h89v-25c0 -12 -11 -27 -29 -27h-119c-17 0 -28 15 -28 27v25h29c-1 4 -1 10 -1 17v7c0 45 26 79 73 79c29 0 58 -13 64 -46c0 -18 -5 -26 -12 -36c-2 -3 -7 -9 -9 -12c-15 50 -37 48 -46 48c-22 0 -22 -45 -11 -57zM658 -289h-601c-2 17 -3 43 -3 56
c0 185 125 356 360 356h341v-123h-351c-140 0 -211 -93 -221 -177h475v-112z" />
    <glyph glyph-name="shadda_dammatan" unicode="&#xfc5e;" arabic-form="isolated" 
d="M7 172c37 0 68 -27 68 -68c0 -99 -164 -102 -198 -102c-23 0 -29 13 -32 46h17c6 3 13 16 13 29c0 11 -8 19 -22 19c-7 0 -15 -14 -21 -25c-20 20 -20 32 -20 39c0 18 18 34 46 34c46 0 69 -35 69 -68c0 -8 -1 -15 -4 -24c4 1 21 2 29 4c-7 11 -14 28 -14 41
c0 43 32 75 69 75zM9 75c10 1 15 10 15 23c0 16 -8 27 -20 27c-10 0 -15 -11 -15 -23c0 -16 9 -27 20 -27zM-110 -24l6 -80c1 -13 7 -17 12 -17s8 3 8 14c0 13 -3 33 -3 48c0 29 10 34 32 35h18l7 -82c1 -8 4 -15 12 -15c6 0 8 6 8 17c-1 15 -4 31 -4 46c0 31 22 37 49 28
l8 -79c2 -23 -14 -61 -57 -61c-11 0 -24 1 -40 12c-8 -7 -21 -10 -33 -10c-37 0 -61 25 -66 65c-2 16 -5 33 -5 50s12 31 48 29z" />
    <glyph glyph-name="shadda_kasratan" unicode="&#xfc5f;" arabic-form="isolated" 
d="M-110 123l6 -80c1 -13 7 -17 12 -17s8 3 8 14c0 13 -3 33 -3 48c0 29 10 34 32 35h18l7 -82c1 -8 4 -15 12 -15c6 0 8 6 8 17c-1 15 -4 31 -4 46c0 31 22 37 49 28l8 -79c2 -23 -14 -61 -57 -61c-11 0 -24 1 -40 12c-8 -7 -21 -10 -33 -10c-37 0 -61 25 -66 65
c-2 16 -5 33 -5 50s12 31 48 29zM33 -135l1 -27c-55 -2 -102 -6 -154 -8c-28 -2 -28 36 -28 54c44 1 106 6 150 7c22 1 30 -12 31 -26zM33 -64l1 -27c-55 -2 -102 -6 -154 -8c-28 -2 -28 36 -28 54c44 1 106 6 150 7c22 1 30 -12 31 -26z" />
    <glyph glyph-name="shadda_fatha" unicode="&#xfc60;" arabic-form="isolated" 
d="M33 37l1 -27c-55 -2 -102 -6 -154 -8c-28 -2 -28 36 -28 54c44 1 106 6 150 7c22 1 30 -12 31 -26zM-110 -24l6 -80c1 -13 7 -17 12 -17s8 3 8 14c0 13 -3 33 -3 48c0 29 10 34 32 35h18l7 -82c1 -8 4 -15 12 -15c6 0 8 6 8 17c-1 15 -4 31 -4 46c0 31 22 37 49 28l8 -79
c2 -23 -14 -61 -57 -61c-11 0 -24 1 -40 12c-8 -7 -21 -10 -33 -10c-37 0 -61 25 -66 65c-2 16 -5 33 -5 50s12 31 48 29z" />
    <glyph glyph-name="shadda_damma" unicode="&#xfc61;" arabic-form="isolated" 
d="M-12 74c10 2 13 12 13 25c0 17 -8 27 -18 27s-15 -11 -15 -25c0 -17 9 -27 20 -27zM-15 172c37 0 68 -26 68 -67c0 -99 -142 -102 -189 -103c-25 0 -27 15 -30 46l33 1c18 1 43 2 63 6c-9 12 -12 27 -12 42c0 43 28 75 67 75zM-110 -24l6 -80c1 -13 7 -17 12 -17
s8 3 8 14c0 13 -3 33 -3 48c0 29 10 34 32 35h18l7 -82c1 -8 4 -15 12 -15c6 0 8 6 8 17c-1 15 -4 31 -4 46c0 31 22 37 49 28l8 -79c2 -23 -14 -61 -57 -61c-11 0 -24 1 -40 12c-8 -7 -21 -10 -33 -10c-37 0 -61 25 -66 65c-2 16 -5 33 -5 50s12 31 48 29z" />
    <glyph glyph-name="shadda_kasra" unicode="&#xfc62;" arabic-form="isolated" 
d="M-110 49l6 -80c1 -13 7 -17 12 -17s8 3 8 14c0 13 -3 33 -3 48c0 29 10 34 32 35h18l7 -82c1 -8 4 -15 12 -15c6 0 8 6 8 17c-1 15 -4 31 -4 46c0 31 22 37 49 28l8 -79c2 -23 -14 -61 -57 -61c-11 0 -24 1 -40 12c-8 -7 -21 -10 -33 -10c-37 0 -61 25 -66 65
c-2 16 -5 33 -5 50s12 31 48 29zM33 -135l1 -27c-55 -2 -102 -6 -154 -8c-28 -2 -28 36 -28 54c44 1 106 6 150 7c22 1 30 -12 31 -26z" />
    <glyph glyph-name="shadda_alefsuperscript" unicode="&#xfc63;" arabic-form="isolated" 
d="M-36 2h-23c-15 0 -28 11 -28 36v91h24c11 0 27 -14 27 -30v-97zM-110 -24l6 -80c1 -13 7 -17 12 -17s8 3 8 14c0 13 -3 33 -3 48c0 29 10 34 32 35h18l7 -82c1 -8 4 -15 12 -15c6 0 8 6 8 17c-1 15 -4 31 -4 46c0 31 22 37 49 28l8 -79c2 -23 -14 -61 -57 -61
c-11 0 -24 1 -40 12c-8 -7 -21 -10 -33 -10c-37 0 -61 25 -66 65c-2 16 -5 33 -5 50s12 31 48 29z" />
    <glyph glyph-name="alah" unicode="&#xfdf2;" horiz-adv-x="1067" arabic-form="isolated" 
d="M544 123c39 2 52 21 52 56v421h48c59 0 88 -30 88 -87v-309c4 -56 12 -81 74 -81h31c35 2 47 22 47 56v421h49c58 0 89 -30 89 -88v-338c0 -97 -58 -170 -176 -174c-103 -1 -138 12 -171 39c-45 -36 -100 -40 -333 -39c-121 0 -282 28 -282 207c0 122 71 222 204 222
c130 0 200 -115 199 -240v-66h81zM182 220c0 -97 86 -98 147 -98h13v53c0 73 -9 146 -87 146c-49 0 -73 -42 -73 -101z" />
    <glyph glyph-name=".notdef" horiz-adv-x="550" 
 />
    <glyph glyph-name=".null" 
 />
    <glyph glyph-name="CR" horiz-adv-x="500" 
 />
    <glyph glyph-name="space" unicode=" " horiz-adv-x="244" 
 />
    <glyph glyph-name="uni00A0" unicode="&#xa0;" horiz-adv-x="120" 
 />
    <glyph glyph-name="A" unicode="A" horiz-adv-x="562" 
d="M547 0h-64c-56 0 -87 33 -91 68l-3 18c-5 30 -5 40 -10 61h-207c-11 -47 -22 -102 -29 -147h-57c-49 0 -67 25 -67 70c0 84 112 431 204 534h53c50 0 87 -29 106 -61c52 -93 140 -353 165 -543zM275 454c-27 -52 -53 -120 -71 -187h141c-17 65 -45 137 -70 187z" />
    <glyph glyph-name="AE" unicode="&#xc6;" horiz-adv-x="807" 
d="M777 84c0 -60 -31 -91 -140 -91h-39c-131 0 -215 34 -234 158h-186c-14 -39 -31 -97 -45 -151h-57c-41 0 -61 21 -61 54c0 8 1 15 2 21c12 86 153 425 262 528h497v-52c0 -45 -37 -75 -93 -75h-227c6 -32 12 -69 17 -105h239v-55c0 -45 -29 -67 -84 -67h-143
c2 -13 5 -26 6 -39c9 -63 25 -90 97 -90h49c53 0 109 14 140 26v-62zM319 458c-35 -54 -69 -126 -92 -186h120c-4 55 -17 136 -28 186z" />
    <glyph glyph-name="B" unicode="B" horiz-adv-x="554" 
d="M513 193c0 -126 -98 -196 -211 -196h-63c-117 0 -175 53 -175 152v427c33 12 118 30 167 30h70c118 0 202 -63 202 -166c0 -59 -23 -99 -69 -122c46 -28 79 -80 79 -125zM359 431c0 39 -38 51 -74 51h-43c-10 0 -22 -2 -36 -4v-103h75c43 0 78 16 78 56zM369 189
c0 52 -27 68 -84 68h-78v-104c0 -13 16 -22 37 -22h46c53 0 79 23 79 58z" />
    <glyph glyph-name="C" unicode="C" horiz-adv-x="540" 
d="M498 422c-62 47 -130 62 -177 62c-94 0 -165 -69 -165 -172c0 -125 70 -189 169 -189c54 0 116 23 171 57v-58c0 -90 -99 -127 -186 -127c-161 0 -298 120 -298 301c0 185 124 317 308 317c103 0 178 -44 178 -133v-58z" />
    <glyph glyph-name="D" unicode="D" horiz-adv-x="604" 
d="M566 311c0 -183 -120 -316 -279 -316h-48c-106 0 -174 43 -174 142v443c33 12 112 26 156 26h60c139 0 285 -93 285 -295zM420 295c0 119 -66 185 -157 185h-24c-7 0 -30 -4 -30 -4v-318c0 -23 11 -34 43 -34h20c86 0 148 75 148 171z" />
    <glyph glyph-name="Eth" unicode="&#xd0;" horiz-adv-x="614" 
d="M57 355v225c34 12 112 26 157 26h59c139 0 286 -93 286 -295c0 -183 -121 -316 -279 -316h-49c-106 0 -174 43 -174 142v111h-62v52c0 32 20 55 57 55h5zM320 355v-51c0 -37 -21 -56 -59 -56h-60v-90c0 -23 12 -34 43 -34h20c87 0 148 75 148 171c0 119 -65 185 -156 185
h-25c-7 0 -30 -4 -30 -4v-121h119z" />
    <glyph glyph-name="E" unicode="E" horiz-adv-x="512" 
d="M490 140v-59c0 -55 -29 -85 -141 -85h-61c-150 0 -228 82 -228 239v106c0 55 4 118 11 164c11 74 47 99 103 99h315v-53c0 -50 -30 -75 -92 -75h-185c-4 -34 -6 -75 -7 -106h222v-55c0 -49 -28 -67 -84 -67h-138v-20c0 -88 29 -105 108 -105h36c41 0 88 5 141 17z" />
    <glyph glyph-name="F" unicode="F" horiz-adv-x="453" 
d="M448 554c0 -34 -25 -75 -80 -75h-163v-113h208v-49c0 -47 -37 -72 -70 -72h-133v-245h-62c-51 0 -83 27 -83 81v420c0 82 33 103 111 103h272v-50z" />
    <glyph glyph-name="G" unicode="G" horiz-adv-x="592" 
d="M550 148c0 -95 -52 -159 -206 -159c-160 0 -302 118 -302 306c0 178 125 319 330 319c117 0 169 -67 169 -127v-54c-62 33 -125 48 -183 48c-98 0 -169 -72 -169 -170c0 -135 73 -188 168 -188c44 0 55 15 55 40v46c0 43 -12 98 -12 98h77c39 0 73 -35 73 -66v-93z" />
    <glyph glyph-name="H" unicode="H" horiz-adv-x="619" 
d="M554 0h-62c-41 0 -81 32 -81 92v155h-203v-247h-59c-46 0 -84 32 -84 92v512h70c40 0 72 -34 72 -75v-157h204v232h66c36 0 77 -29 77 -75v-529z" />
    <glyph glyph-name="I" unicode="I" horiz-adv-x="280" 
d="M211 0h-59c-40 0 -84 31 -84 91v513h66c37 0 77 -30 77 -75v-529z" />
    <glyph glyph-name="J" unicode="J" horiz-adv-x="365" 
d="M310 169c0 -103 -58 -180 -186 -180c-71 0 -120 39 -120 82v66c30 -14 72 -18 105 -18c41 0 56 18 56 55v430h54c61 0 91 -31 91 -92v-343z" />
    <glyph glyph-name="K" unicode="K" horiz-adv-x="556" 
d="M116 604c66 0 91 -44 91 -91v-134c44 64 89 129 140 185c36 38 49 40 99 40h93v-25c-45 -45 -155 -178 -214 -259l23 -35c43 -63 87 -130 147 -180c16 -12 30 -19 56 -25c-15 -58 -38 -83 -93 -83c-31 0 -69 18 -91 42c-60 69 -113 143 -160 216v-255h-53
c-66 0 -89 45 -89 93v511h51z" />
    <glyph glyph-name="L" unicode="L" horiz-adv-x="477" 
d="M472 93c0 -60 -27 -98 -134 -98h-44c-145 0 -224 80 -224 227v382h61c56 0 86 -31 86 -98v-276c0 -76 17 -105 91 -105h30c51 0 106 17 134 29v-61z" />
    <glyph glyph-name="M" unicode="M" horiz-adv-x="802" 
d="M748 0h-57c-52 0 -89 30 -89 91c0 57 -7 197 -15 283l-6 -15c-24 -76 -55 -171 -80 -247c-14 -43 -34 -85 -53 -112h-39c-43 0 -83 32 -106 101l-82 243c-8 25 -3 14 -12 33c-11 -106 -17 -288 -17 -377h-55c-51 0 -87 32 -87 91c0 131 26 394 48 513h37
c87 0 147 -40 171 -107l81 -225c17 -49 14 -30 19 -57c1 3 2 4 3 7c21 65 45 138 66 204c31 93 70 156 99 178h18c72 0 118 -44 129 -131c10 -91 27 -349 27 -473z" />
    <glyph glyph-name="N" unicode="N" horiz-adv-x="627" 
d="M562 0h-59c-50 0 -103 14 -178 159c-109 211 -114 221 -116 226v-385h-60c-40 0 -84 30 -84 90v514h71c80 0 135 -44 176 -125c33 -66 70 -142 108 -217v342h65c36 0 77 -36 77 -81v-523z" />
    <glyph glyph-name="O" unicode="O" horiz-adv-x="651" 
d="M609 311c0 -183 -105 -322 -290 -322c-153 0 -277 124 -277 304c0 188 107 321 290 321c147 0 277 -112 277 -303zM462 295c0 126 -52 189 -141 189c-76 0 -132 -64 -132 -173c0 -130 46 -193 141 -193c81 0 132 60 132 177z" />
    <glyph glyph-name="OE" unicode="&#x152;" horiz-adv-x="820" 
d="M798 139l-1 -59c-1 -61 -28 -86 -139 -86h-29c-91 0 -144 28 -175 69c-35 -47 -85 -77 -158 -77c-126 0 -254 114 -254 307c0 180 92 326 270 326c45 0 95 -20 128 -55c16 22 43 39 73 39h284c0 -76 -6 -128 -92 -128h-154c-5 -29 -8 -76 -9 -106h202v-56
c0 -48 -29 -67 -84 -67h-118c0 -8 1 -11 1 -19c2 -85 34 -106 101 -106h14c57 0 115 11 140 18zM402 295c0 151 -28 192 -96 192c-74 0 -115 -79 -115 -179c0 -129 55 -191 118 -191c64 0 93 34 93 178z" />
    <glyph glyph-name="P" unicode="P" horiz-adv-x="514" 
d="M499 415c0 -130 -90 -211 -208 -211c-30 0 -59 4 -82 12v-216h-60c-38 0 -84 25 -84 96v481c38 13 122 31 164 31h65c120 0 205 -69 205 -193zM352 405c0 55 -22 77 -72 77h-37c-9 0 -22 -3 -34 -6v-140c18 -4 42 -6 67 -6c50 0 76 28 76 75z" />
    <glyph glyph-name="Thorn" unicode="&#xde;" horiz-adv-x="553" 
d="M367 305c0 54 -22 69 -72 69h-37c-10 0 -22 -1 -34 -3v-128c19 -2 45 -4 67 -4c50 0 76 20 76 66zM80 604h67c36 0 77 -30 77 -75v-30c7 1 14 1 20 1h65c120 0 205 -60 205 -185c0 -132 -90 -202 -208 -202c-30 0 -60 3 -82 8v-121h-60c-38 0 -84 25 -84 96v508z" />
    <glyph glyph-name="Q" unicode="Q" horiz-adv-x="658" 
d="M553 -80c-86 0 -212 34 -286 74c-102 20 -225 121 -225 300c0 178 92 320 294 320c141 0 273 -110 273 -303c0 -127 -62 -220 -128 -259c44 -7 105 -12 149 -12v-51c0 -42 -21 -69 -77 -69zM462 297c0 122 -43 187 -140 187c-83 0 -133 -70 -133 -173
c0 -131 55 -194 147 -194c80 0 126 79 126 180z" />
    <glyph glyph-name="R" unicode="R" horiz-adv-x="541" 
d="M515 36v-17c-17 -18 -29 -23 -66 -23c-43 0 -80 16 -98 59l-43 104c-23 56 -44 61 -68 64c-7 1 -14 2 -20 3h-1c-16 3 -12 4 -21 4v-230h-51c-61 0 -93 37 -93 92v491c31 12 119 26 163 26h64c123 0 203 -74 203 -179c0 -74 -39 -136 -97 -159c23 -18 38 -43 49 -70
c15 -34 32 -73 46 -107c11 -27 21 -40 28 -49zM267 481h-32c-8 0 -24 -1 -37 -3v-128c21 -2 44 -2 68 -2c39 0 73 22 73 63c0 58 -30 70 -72 70z" />
    <glyph glyph-name="S" unicode="S" horiz-adv-x="514" 
d="M468 193c0 -122 -82 -204 -231 -204c-126 0 -190 52 -190 128l2 84c50 -44 110 -80 175 -80c76 0 100 24 100 61c0 31 -15 45 -125 69c-105 23 -165 76 -165 162c0 104 86 201 231 201c146 0 187 -65 187 -120l-5 -86c-48 51 -103 76 -162 76c-79 0 -108 -24 -108 -60
c0 -27 25 -43 123 -63c113 -24 168 -83 168 -168z" />
    <glyph glyph-name="T" unicode="T" horiz-adv-x="497" 
d="M490 554c0 -34 -37 -79 -83 -79h-92v-475h-60c-49 0 -84 31 -84 92v383h-166v52c0 34 28 77 84 77h401v-50z" />
    <glyph glyph-name="U" unicode="U" horiz-adv-x="602" 
d="M551 274c0 -178 -83 -285 -257 -285c-148 0 -244 99 -244 275v340h59c42 0 85 -29 85 -120v-213c0 -97 33 -145 112 -145c71 0 100 49 100 141v337h59c52 0 86 -37 86 -117v-213z" />
    <glyph glyph-name="V" unicode="V" horiz-adv-x="554" 
d="M457 274c-35 -85 -75 -180 -137 -278h-18c-41 0 -74 18 -97 53c-86 146 -169 368 -196 555h83c51 0 81 -34 87 -75v1c18 -98 43 -196 102 -325c54 123 95 259 116 399h76c36 0 64 -23 64 -64c0 -33 -41 -173 -80 -266z" />
    <glyph glyph-name="W" unicode="W" horiz-adv-x="834" 
d="M759 302v-1c-29 -92 -66 -186 -134 -306h-37c-15 0 -44 1 -67 44c-36 64 -75 162 -103 263c-28 -107 -73 -219 -126 -307h-35c-17 0 -48 1 -71 44c-86 153 -151 366 -177 565h82c48 0 77 -42 84 -78c15 -88 36 -186 80 -297c47 120 82 272 97 353h51c43 0 90 -23 104 -87
c17 -84 44 -176 81 -267c42 111 78 244 95 375h72c35 0 64 -23 64 -67c0 -32 -41 -172 -60 -234z" />
    <glyph glyph-name="X" unicode="X" horiz-adv-x="612" 
d="M597 34c-20 -23 -41 -41 -94 -41c-56 0 -101 35 -159 119c-22 33 -40 56 -62 90c-65 -82 -96 -147 -110 -202h-68c-38 0 -62 28 -62 59c0 48 8 97 113 209l46 52c-20 28 -42 56 -61 84c-59 83 -94 146 -110 200h98c28 0 66 -11 128 -104l59 -88c84 98 106 139 120 193h55
c46 0 66 -30 66 -72c0 -45 -61 -124 -161 -239c22 -33 49 -69 71 -102c44 -61 94 -110 131 -158z" />
    <glyph glyph-name="Y" unicode="Y" horiz-adv-x="518" 
d="M503 545c0 -46 -116 -227 -169 -290v-255h-63c-40 0 -84 30 -84 90v165c-67 88 -143 232 -182 349h75c52 0 81 -27 90 -48c25 -59 64 -133 97 -183c37 55 89 147 113 231h62c40 0 61 -23 61 -59z" />
    <glyph glyph-name="Z" unicode="Z" horiz-adv-x="534" 
d="M494 74c0 -36 -27 -74 -79 -74h-288c-49 0 -87 31 -87 87c0 53 42 108 91 162c45 53 96 109 142 162c21 23 39 43 50 64h-283v45c0 55 28 84 100 84h262c66 0 91 -33 91 -89c0 -37 -32 -95 -73 -143c-46 -51 -96 -108 -141 -159c-28 -31 -54 -62 -66 -83h281v-56z" />
    <glyph glyph-name="a" unicode="a" horiz-adv-x="465" 
d="M424 160c0 -99 -73 -168 -176 -168h-21c-111 0 -186 64 -186 150c0 85 59 148 227 148h23c-3 43 -27 56 -77 56c-72 0 -134 -29 -154 -49v48c0 55 46 119 169 119c102 0 195 -47 195 -206v-98zM292 159v27h-24c-70 0 -89 -14 -89 -40c0 -24 21 -39 59 -39
c36 0 54 18 54 52z" />
    <glyph glyph-name="ae" unicode="&#xe6;" horiz-adv-x="758" 
d="M703 294c0 -93 -51 -119 -202 -119l-59 2c10 -39 39 -66 99 -66c56 0 104 19 147 56v-64c0 -64 -41 -111 -160 -111c-66 0 -121 27 -151 62c-25 -36 -72 -63 -132 -63h-22c-103 0 -168 59 -168 144c0 84 59 152 217 152h32c-2 43 -26 59 -78 59c-73 0 -122 -37 -152 -70
v71c0 55 44 119 168 119c61 0 114 -22 141 -62c32 40 87 63 142 63c87 0 178 -61 178 -173zM515 351c-43 0 -72 -31 -76 -67v-1h29c7 0 12 -1 18 -1h14c61 0 75 5 75 23c0 29 -23 46 -60 46zM305 158v25h-25c-69 0 -87 -14 -87 -41c0 -24 17 -36 57 -36c29 0 55 22 55 52z
" />
    <glyph glyph-name="b" unicode="b" horiz-adv-x="551" 
d="M509 237c0 -136 -88 -246 -226 -246c-117 0 -216 95 -216 231v405h51c50 0 84 -28 84 -88v-113c24 22 57 40 101 40c118 0 206 -95 206 -229zM371 219c0 93 -32 124 -88 124c-45 0 -80 -47 -80 -105c0 -88 36 -125 90 -125c46 0 78 45 78 106z" />
    <glyph glyph-name="c" unicode="c" horiz-adv-x="447" 
d="M417 289c-40 25 -78 45 -134 45c-54 0 -102 -44 -102 -99c0 -69 40 -116 103 -116c57 0 92 20 131 39v-63c0 -60 -55 -103 -141 -103c-125 0 -232 97 -232 228c0 129 89 240 244 240c76 0 131 -48 131 -107v-64z" />
    <glyph glyph-name="d" unicode="d" horiz-adv-x="537" 
d="M472 211c0 -133 -63 -220 -220 -220c-121 0 -212 104 -212 229c0 149 72 246 206 246c33 0 67 -15 92 -39v200h47c59 0 87 -35 87 -87v-329zM337 216c0 97 -41 132 -90 132c-46 0 -75 -46 -75 -108c0 -80 40 -132 93 -132c50 0 72 40 72 108z" />
    <glyph glyph-name="eth" unicode="&#xf0;" horiz-adv-x="555" 
d="M498 235c0 -137 -79 -244 -225 -244c-138 0 -216 108 -216 229c0 108 47 197 139 228c-4 3 -8 5 -8 6c-12 10 -24 20 -24 39c0 21 11 33 24 43c-24 15 -34 36 -34 55v47c79 -2 115 -13 142 -22c23 17 51 38 73 54l25 -22c9 -9 12 -16 12 -27c0 -24 -13 -38 -29 -51
c83 -64 121 -171 121 -335zM279 501c-19 -15 -43 -33 -64 -48c18 5 37 7 58 7c18 0 37 -3 53 -8c-13 17 -31 37 -47 49zM360 220c0 76 -27 119 -87 119c-52 0 -78 -42 -78 -104c0 -77 26 -121 87 -121c52 0 78 44 78 106z" />
    <glyph glyph-name="e" unicode="e" horiz-adv-x="487" 
d="M449 286c0 -89 -64 -118 -215 -118h-51c13 -39 52 -60 101 -60c41 0 91 9 149 41v-48c0 -63 -41 -110 -169 -110c-113 0 -224 89 -224 229c0 150 93 246 223 246c96 0 186 -70 186 -180zM320 299c0 33 -26 50 -66 50c-44 0 -73 -37 -76 -78h33c90 0 109 8 109 28z" />
    <glyph glyph-name="f" unicode="f" horiz-adv-x="331" 
d="M341 475c-36 6 -55 10 -79 10c-36 0 -62 -13 -62 -58v-24h121v-44c0 -46 -47 -74 -89 -74h-32v-285h-57c-41 0 -78 32 -78 77v358c0 66 45 171 180 171c54 0 96 -31 96 -81v-50z" />
    <glyph glyph-name="g" unicode="g" horiz-adv-x="530" 
d="M462 191c0 -16 0 -35 1 -55s2 -41 2 -57c0 -115 -75 -217 -223 -217c-97 0 -162 49 -162 108v62c50 -26 97 -46 154 -46c68 0 98 31 98 85v10c-22 -20 -56 -34 -98 -34c-112 0 -191 77 -191 187c0 127 84 232 231 232c115 0 188 -84 188 -202v-73zM262 343
c-46 0 -82 -40 -82 -96c0 -47 29 -83 71 -83c44 0 77 35 77 94c0 57 -28 85 -66 85z" />
    <glyph glyph-name="h" unicode="h" horiz-adv-x="539" 
d="M474 0h-49c-53 0 -87 30 -87 86v173c0 60 -31 84 -70 84c-27 0 -63 -22 -63 -87v-256h-49c-59 0 -86 33 -86 86v513h47c60 0 89 -34 89 -82v-85c21 19 47 34 78 34c119 0 190 -71 190 -202v-264z" />
    <glyph glyph-name="i" unicode="i" horiz-adv-x="308" 
d="M223 534c0 -41 -36 -76 -78 -76c-41 0 -75 35 -75 76c0 42 34 76 75 76c42 0 78 -34 78 -76zM298 74c0 -56 -22 -78 -77 -78c-92 0 -142 51 -142 147v304h45c55 0 89 -30 89 -94v-199c0 -33 15 -43 51 -43h34v-37z" />
    <glyph glyph-name="j" unicode="j" horiz-adv-x="272" 
d="M207 536c-1 -42 -33 -77 -75 -77s-77 35 -77 77s35 76 77 76c41 0 75 -34 75 -76zM197 17c0 -99 -67 -156 -159 -156c-50 0 -82 30 -82 63v52c61 0 106 2 106 51v420h44c57 0 91 -30 91 -89v-341z" />
    <glyph glyph-name="k" unicode="k" horiz-adv-x="498" 
d="M118 599c62 0 87 -35 87 -85v-215c35 45 69 89 107 125c29 28 58 32 94 32h75c-30 -50 -123 -153 -170 -212c6 -7 12 -14 18 -22v1c28 -34 60 -73 80 -94c35 -36 58 -45 89 -55c-15 -49 -38 -77 -89 -77c-26 0 -59 13 -80 35v-1c-43 44 -84 95 -124 149v-179l-48 -1
c-60 -2 -87 30 -87 90v509h48z" />
    <glyph glyph-name="l" unicode="l" horiz-adv-x="300" 
d="M305 74c0 -56 -30 -78 -86 -78c-97 0 -149 51 -149 147v456h44c62 0 90 -38 90 -86v-359c0 -33 18 -43 58 -43h43v-37z" />
    <glyph glyph-name="m" unicode="m" horiz-adv-x="780" 
d="M715 0h-41c-67 0 -94 32 -94 91v165c0 61 -26 87 -64 87c-35 0 -58 -25 -58 -74v-269h-43c-55 0 -91 32 -91 91v165c0 61 -28 87 -65 87c-33 0 -59 -28 -59 -77v-266h-42c-51 0 -92 33 -92 91v166c0 125 66 209 205 209c53 0 96 -22 129 -58c28 34 74 58 124 58
c105 0 191 -64 191 -195v-271z" />
    <glyph glyph-name="n" unicode="n" horiz-adv-x="534" 
d="M469 0h-43c-56 0 -92 36 -92 84v170c0 62 -26 89 -72 89c-37 0 -63 -30 -63 -82v-261h-46c-53 0 -88 36 -88 84v185c0 96 64 197 206 197c108 0 198 -73 198 -203v-263z" />
    <glyph glyph-name="o" unicode="o" horiz-adv-x="521" 
d="M40 220c0 135 78 246 225 246c138 0 216 -111 216 -231c0 -136 -78 -244 -225 -244c-138 0 -216 108 -216 229zM343 220c0 77 -27 122 -87 122c-52 0 -78 -45 -78 -107c0 -77 26 -121 87 -121c52 0 78 44 78 106z" />
    <glyph glyph-name="oe" unicode="&#x153;" horiz-adv-x="777" 
d="M739 294c0 -90 -51 -125 -201 -125h-60c13 -37 51 -59 99 -59c58 0 106 21 146 57v-66c0 -63 -46 -110 -166 -110c-50 0 -113 25 -152 65c-34 -40 -89 -65 -151 -65c-127 0 -214 101 -214 230c0 147 88 245 223 245c42 0 106 -25 145 -63c40 46 91 63 151 63
c87 0 180 -64 180 -172zM547 351c-57 0 -73 -54 -73 -75v-4h31c88 0 106 7 106 31c0 28 -26 48 -64 48zM257 341c-51 0 -80 -42 -80 -105c0 -85 39 -121 90 -121c44 0 70 37 70 113c0 82 -34 113 -80 113z" />
    <glyph glyph-name="p" unicode="p" horiz-adv-x="541" 
d="M501 240c0 -145 -73 -249 -207 -249c-38 0 -69 13 -93 36v-162h-47c-46 0 -89 34 -89 88v258c0 151 67 255 227 255c123 0 209 -111 209 -226zM363 213c0 91 -28 130 -87 130c-49 0 -77 -45 -77 -110c0 -77 37 -120 91 -120c43 0 73 41 73 100z" />
    <glyph glyph-name="thorn" unicode="&#xfe;" horiz-adv-x="581" 
d="M211 263v-41c0 -66 42 -105 95 -105c45 0 77 42 77 105c0 96 -30 137 -92 137c-47 0 -80 -39 -80 -96zM71 626h47c64 0 93 -40 93 -90v-70c26 12 62 20 98 20c127 0 217 -115 217 -234c0 -153 -76 -262 -215 -262c-39 0 -74 14 -99 35v-166h-49c-47 0 -93 34 -93 91v271
c0 5 1 10 1 15v390z" />
    <glyph glyph-name="q" unicode="q" horiz-adv-x="539" 
d="M271 466c132 0 203 -88 203 -230v-371l-49 1c-53 1 -83 27 -83 85v70c-25 -20 -58 -30 -90 -30c-115 0 -212 90 -212 224c0 143 92 251 231 251zM257 343c-42 0 -83 -39 -83 -108c0 -79 32 -122 88 -122c50 0 80 32 80 110c0 81 -30 120 -85 120z" />
    <glyph glyph-name="r" unicode="r" horiz-adv-x="349" 
d="M339 324c-36 6 -54 13 -80 13c-38 0 -59 -23 -59 -78v-259h-44c-55 0 -91 28 -91 82v197c0 92 48 181 171 181c76 0 103 -45 103 -84v-52z" />
    <glyph glyph-name="s" unicode="s" horiz-adv-x="434" 
d="M395 149c0 -99 -69 -158 -192 -158c-88 0 -152 47 -152 98v62c46 -21 99 -41 146 -41c43 0 64 11 64 33c0 16 -17 24 -76 32c-96 14 -146 56 -146 129c0 86 77 162 195 162c107 0 151 -58 151 -106v-55c-47 23 -94 40 -141 40c-54 0 -71 -14 -71 -33c0 -13 11 -19 73 -28
c96 -16 149 -60 149 -135z" />
    <glyph glyph-name="germandbls" unicode="&#xdf;" horiz-adv-x="577" 
d="M532 154c0 -96 -54 -162 -174 -162c-77 0 -119 44 -119 84v62c44 -13 73 -22 105 -22s46 13 46 33c0 26 -15 37 -49 56c-59 30 -83 56 -83 111c0 37 21 77 75 110c25 14 35 30 35 42c0 27 -18 40 -67 40s-90 -38 -90 -116v-392h-50c-66 0 -91 29 -91 95v304
c0 151 97 234 236 234c119 0 203 -55 203 -160c0 -51 -25 -85 -75 -112c-42 -23 -49 -30 -49 -40c0 -9 17 -20 66 -49c46 -27 81 -67 81 -118z" />
    <glyph glyph-name="t" unicode="t" horiz-adv-x="367" 
d="M70 424c0 63 46 128 94 128h40v-96h148v-58c0 -28 -25 -64 -79 -64h-69v-154c0 -44 19 -62 52 -62c31 0 56 5 96 15v-52c0 -53 -37 -86 -109 -86c-117 0 -173 64 -173 173v256z" />
    <glyph glyph-name="u" unicode="u" horiz-adv-x="533" 
d="M468 205c0 -142 -68 -214 -201 -214c-113 0 -202 74 -202 208v257h34c69 0 101 -31 101 -90v-157c0 -69 32 -96 72 -96c36 0 60 27 60 89v254h34c71 0 102 -31 102 -90v-161z" />
    <glyph glyph-name="v" unicode="v" horiz-adv-x="443" 
d="M428 391c0 -29 -70 -261 -167 -396h-28c-35 0 -57 13 -81 49c-60 90 -133 287 -143 412h71c44 0 72 -35 78 -62c12 -70 33 -147 67 -221c34 77 66 182 81 283h58c46 0 64 -21 64 -65z" />
    <glyph glyph-name="w" unicode="w" horiz-adv-x="676" 
d="M661 398c0 -17 -17 -93 -50 -183c-32 -92 -74 -174 -104 -220h-26c-64 0 -116 103 -144 204c-22 -70 -61 -160 -92 -204h-22c-39 0 -72 37 -88 64c-64 111 -105 241 -126 397h73c42 0 70 -35 76 -64c10 -61 26 -130 54 -197c31 76 51 161 69 245h46c38 0 76 -20 89 -71
c12 -47 33 -126 54 -175c33 81 54 173 69 264h56c39 0 66 -17 66 -60z" />
    <glyph glyph-name="x" unicode="x" horiz-adv-x="477" 
d="M465 61c0 -37 -28 -68 -84 -68c-52 0 -86 28 -126 89l-35 55c-46 -54 -60 -89 -66 -139h-61c-32 0 -58 24 -58 53c0 56 30 98 87 158l27 29c-13 19 -25 37 -39 56c-48 68 -77 111 -80 162h78c26 0 55 -15 106 -87l34 -48c55 65 66 87 73 134h52c42 0 58 -28 58 -59
c0 -32 -38 -93 -112 -176c13 -20 28 -39 41 -59v1c44 -64 60 -80 105 -101z" />
    <glyph glyph-name="y" unicode="y" horiz-adv-x="438" 
d="M328 100c-82 -193 -125 -239 -211 -239c-47 0 -89 32 -89 81v33l74 5c30 2 40 12 60 62c-58 89 -136 307 -152 414h73c36 0 70 -24 76 -61c15 -78 35 -146 70 -216c32 79 61 191 71 277h59c44 0 64 -20 64 -64c0 -47 -75 -245 -95 -292z" />
    <glyph glyph-name="z" unicode="z" horiz-adv-x="445" 
d="M405 64c0 -34 -36 -64 -69 -64h-209c-58 0 -87 28 -87 71c0 35 25 79 69 126l108 117c6 6 14 18 22 25h-199v47c0 39 27 70 84 70h194c60 0 81 -37 81 -69c0 -36 -19 -80 -58 -122l-108 -116c-12 -13 -16 -13 -24 -29h196v-56z" />
    <glyph glyph-name="ordfeminine" unicode="&#xaa;" horiz-adv-x="382" 
d="M315 386c0 -71 -51 -120 -123 -120h-13c-75 0 -127 45 -127 108c0 61 40 107 154 107h4c-4 15 -17 20 -39 20c-45 0 -72 -17 -108 -32v40c0 41 34 88 118 88c70 0 134 -33 134 -145v-66zM212 385v10h-6c-41 0 -48 -7 -48 -18s9 -18 28 -18c18 0 26 8 26 26z" />
    <glyph glyph-name="ordmasculine" unicode="&#xba;" horiz-adv-x="375" 
d="M337 435c0 -93 -53 -169 -153 -169c-92 0 -147 76 -147 159c0 94 53 171 153 171c92 0 147 -77 147 -161zM231 425c0 47 -15 73 -47 73c-26 0 -42 -25 -42 -63c0 -46 16 -71 48 -71c27 0 41 24 41 61z" />
    <glyph glyph-name="grave" unicode="`" horiz-adv-x="518" 
d="M137 606c0 41 24 57 60 57c60 0 117 -66 155 -149h-51c-78 0 -164 41 -164 92z" />
    <glyph glyph-name="acute" unicode="&#xb4;" horiz-adv-x="482" 
d="M335 606c0 -51 -87 -92 -164 -92h-51c38 83 95 149 155 149c36 0 60 -16 60 -57z" />
    <glyph glyph-name="circumflex" unicode="&#x2c6;" horiz-adv-x="581" 
d="M434 486l-143 67c-43 -19 -104 -47 -144 -66v49c0 47 15 70 55 94l90 50l85 -49c34 -22 57 -48 57 -97v-48z" />
    <glyph glyph-name="tilde" unicode="&#x2dc;" horiz-adv-x="384" 
d="M346 604c0 -52 -35 -94 -97 -94c-27 0 -52 13 -73 24c-14 8 -28 16 -38 16s-19 -18 -19 -47h-35c-23 0 -46 18 -46 56c0 71 57 97 96 97c29 0 51 -12 72 -24h-1c15 -9 28 -17 42 -17s19 13 19 45h40c20 0 40 -27 40 -56z" />
    <glyph glyph-name="dieresis" unicode="&#xa8;" horiz-adv-x="473" 
d="M399 582c0 -40 -34 -74 -74 -74s-74 34 -74 74c0 39 34 72 74 72s74 -33 74 -72zM221 582c0 -40 -34 -74 -73 -74c-41 0 -74 34 -74 74c0 39 33 72 74 72c39 0 73 -33 73 -72z" />
    <glyph glyph-name="macron" unicode="&#xaf;" horiz-adv-x="315" 
d="M282 620v-51c0 -27 -29 -56 -66 -56h-183v44c0 35 27 63 75 63h174z" />
    <glyph glyph-name="macron" unicode="&#x2c9;" horiz-adv-x="315" 
d="M282 620v-51c0 -27 -29 -56 -66 -56h-183v44c0 35 27 63 75 63h174z" />
    <glyph glyph-name="cedilla" unicode="&#xb8;" horiz-adv-x="533" 
d="M383 -103c0 -77 -72 -107 -138 -107c-40 0 -114 8 -114 71v42h24c23 -18 57 -24 84 -24c18 0 37 3 37 15c0 10 -13 13 -34 13c-16 0 -47 -4 -74 -7c3 10 12 42 14 51c6 20 11 36 17 77h85c0 -5 0 -28 -1 -37c47 -6 100 -33 100 -94z" />
    <glyph glyph-name="mu" unicode="&#xb5;" horiz-adv-x="548" 
d="M493 220c0 -146 -73 -225 -184 -225c-39 0 -73 13 -96 34v-156l-55 -1c-49 -1 -84 31 -84 85v518h36c65 0 106 -24 106 -93v-159c0 -52 18 -101 75 -101c37 0 62 28 62 94v259h34c75 0 106 -32 106 -93v-162z" />
    <glyph glyph-name="mu" unicode="&#x3bc;" horiz-adv-x="548" 
d="M493 220c0 -146 -73 -225 -184 -225c-39 0 -73 13 -96 34v-156l-55 -1c-49 -1 -84 31 -84 85v518h36c65 0 106 -24 106 -93v-159c0 -52 18 -101 75 -101c37 0 62 28 62 94v259h34c75 0 106 -32 106 -93v-162z" />
    <glyph glyph-name="exclam" unicode="!" horiz-adv-x="345" 
d="M237 524l-9 -325h-49c-48 0 -78 35 -80 86c-3 100 -6 225 -9 324h65c52 0 82 -30 82 -85zM256 87c0 -47 -39 -87 -86 -87c-48 0 -88 40 -88 87c0 48 40 87 88 87c47 0 86 -39 86 -87z" />
    <glyph glyph-name="exclamdown" unicode="&#xa1;" horiz-adv-x="320" 
d="M221 284l9 -325c0 -55 -30 -85 -82 -85h-65l9 324c2 51 32 86 80 86h49zM249 396c0 -48 -39 -88 -86 -88c-48 0 -88 40 -88 88c0 47 40 87 88 87c47 0 86 -40 86 -87z" />
    <glyph glyph-name="question" unicode="?" horiz-adv-x="432" 
d="M414 463c0 -49 -15 -82 -64 -124c-23 -19 -45 -38 -68 -57v1c-28 -24 -32 -25 -32 -50v-44h-54c-32 0 -66 28 -66 64c0 46 15 70 61 108c20 16 41 34 61 50c11 11 20 28 20 40c0 31 -24 49 -71 49c-60 0 -105 -21 -158 -57v54c0 64 55 132 175 132
c128 0 196 -77 196 -166zM111 87c0 -47 39 -87 86 -87c48 0 88 40 88 87c0 48 -40 87 -88 87c-47 0 -86 -39 -86 -87z" />
    <glyph glyph-name="questiondown" unicode="&#xbf;" horiz-adv-x="432" 
d="M158 391c0 46 39 85 86 85c46 0 85 -39 85 -85c0 -47 -39 -86 -85 -86c-47 0 -86 39 -86 86zM223 -145c-121 0 -188 72 -188 159c0 44 16 78 62 118l63 55c27 21 30 34 30 55v46h54c34 0 66 -29 66 -64c0 -45 -16 -74 -57 -111l-58 -51c-14 -13 -19 -25 -19 -37
c0 -27 21 -43 64 -43c57 0 99 21 152 54v-54c0 -62 -53 -127 -169 -127z" />
    <glyph glyph-name="comma" unicode="," horiz-adv-x="313" 
d="M246 43c0 -83 -60 -160 -133 -160h-36v25c22 21 38 60 38 82c0 15 -7 23 -15 33c-11 13 -21 26 -21 54c0 42 34 77 81 77c52 0 86 -39 86 -111z" />
    <glyph glyph-name="semicolon" unicode=";" horiz-adv-x="336" 
d="M256 399c-1 -48 -38 -88 -87 -88c-47 0 -86 40 -86 88s39 86 86 86s87 -38 87 -86zM249 43c0 -83 -60 -160 -132 -160h-37c22 46 38 85 38 107c0 15 -7 24 -15 34v-1c-11 13 -20 25 -20 54c0 42 33 77 80 77c53 0 86 -39 86 -111z" />
    <glyph glyph-name="semicolon" unicode="&#x37e;" horiz-adv-x="336" 
d="M256 399c-1 -48 -38 -88 -87 -88c-47 0 -86 40 -86 88s39 86 86 86s87 -38 87 -86zM249 43c0 -83 -60 -160 -132 -160h-37c22 46 38 85 38 107c0 15 -7 24 -15 34v-1c-11 13 -20 25 -20 54c0 42 33 77 80 77c53 0 86 -39 86 -111z" />
    <glyph glyph-name="colon" unicode=":" horiz-adv-x="319" 
d="M246 400c0 -48 -39 -88 -88 -88c-47 0 -86 40 -86 88s39 86 86 86c49 0 88 -38 88 -86zM246 87c0 -47 -39 -87 -88 -87c-47 0 -86 40 -86 87c0 48 39 87 86 87c49 0 88 -39 88 -87z" />
    <glyph glyph-name="period" unicode="." horiz-adv-x="299" 
d="M226 87c0 -47 -39 -87 -87 -87c-47 0 -87 40 -87 87c0 48 40 87 87 87c48 0 87 -39 87 -87z" />
    <glyph glyph-name="ellipsis" unicode="&#x2026;" horiz-adv-x="779" 
d="M699 86c0 -47 -40 -86 -86 -86s-86 39 -86 86c0 46 40 85 86 85s86 -39 86 -85zM475 86c0 -47 -39 -86 -86 -86c-46 0 -85 39 -85 86c0 46 39 85 85 85c47 0 86 -39 86 -85zM250 86c0 -47 -38 -86 -85 -86s-85 39 -85 86c0 46 38 85 85 85s85 -39 85 -85z" />
    <glyph glyph-name="quoteleft" unicode="&#x2018;" horiz-adv-x="259" 
d="M46 487c0 80 59 157 131 157h35c-21 -45 -37 -83 -37 -105c0 -15 7 -23 15 -33c10 -11 21 -26 21 -53c0 -41 -33 -75 -80 -75c-51 0 -85 38 -85 109z" />
    <glyph glyph-name="quoteright" unicode="&#x2019;" horiz-adv-x="259" 
d="M213 518c0 -81 -58 -157 -130 -157h-36c22 45 38 83 38 105c0 14 -7 23 -15 33v-1c-11 13 -21 24 -21 53c0 41 33 75 80 75c51 0 84 -38 84 -108z" />
    <glyph glyph-name="quotedblleft" unicode="&#x201c;" horiz-adv-x="411" 
d="M205 486c0 81 60 157 130 157h37c-22 -45 -38 -83 -38 -105c0 -16 7 -24 14 -33c10 -12 21 -25 21 -52c0 -42 -33 -76 -78 -76c-51 0 -86 39 -86 109zM33 486c0 81 58 157 130 157h36c-22 -45 -37 -83 -37 -105c0 -16 6 -24 14 -33c9 -12 21 -25 21 -52
c0 -42 -33 -76 -79 -76c-51 0 -85 39 -85 109z" />
    <glyph glyph-name="quotedblright" unicode="&#x201d;" horiz-adv-x="403" 
d="M363 516c0 -81 -58 -157 -130 -157h-37v25c23 20 39 58 39 80c0 15 -8 23 -15 33c-11 11 -21 26 -21 53c0 40 35 75 79 75c51 0 85 -38 85 -109zM189 516c0 -81 -59 -157 -131 -157h-35v25c21 20 37 58 37 80c0 15 -7 23 -15 33c-10 11 -20 26 -20 53c0 40 33 75 79 75
c52 0 85 -38 85 -109z" />
    <glyph glyph-name="quotesinglbase" unicode="&#x201a;" horiz-adv-x="260" 
d="M211 42c0 -81 -59 -156 -131 -156h-36c22 45 38 83 38 104c0 15 -7 23 -15 33v-1c-11 13 -20 25 -20 53c0 42 33 76 78 76c52 0 86 -38 86 -109z" />
    <glyph glyph-name="quotedblbase" unicode="&#x201e;" horiz-adv-x="405" 
d="M414 42c0 -81 -58 -156 -130 -156h-37v24c23 21 39 59 39 80c0 15 -7 23 -15 33v-1c-11 13 -21 25 -21 53c0 42 33 76 79 76c51 0 85 -38 85 -109zM215 42c0 -81 -58 -156 -130 -156h-36v24c22 21 38 59 38 80c0 15 -7 23 -15 33v-1c-11 13 -21 25 -21 53
c0 42 33 76 79 76c52 0 85 -38 85 -109z" />
    <glyph glyph-name="guilsinglleft" unicode="&#x2039;" horiz-adv-x="340" 
d="M289 77h-61c-51 0 -78 14 -99 44l-88 128l88 129c18 25 41 41 99 41h60l-108 -170c33 -51 78 -123 109 -172z" />
    <glyph glyph-name="guilsinglright" unicode="&#x203a;" horiz-adv-x="340" 
d="M112 77h-61l109 172c-33 51 -78 121 -109 170h61c58 0 81 -16 99 -41l88 -129l-88 -128c-20 -30 -48 -44 -99 -44z" />
    <glyph glyph-name="guillemotleft" unicode="&#xab;" horiz-adv-x="421" 
d="M400 60h-43c-51 0 -80 14 -99 46c-24 39 -55 86 -79 126l79 128c17 26 43 43 99 43h43l-99 -171c30 -51 71 -124 99 -172zM247 60h-45c-51 0 -79 14 -99 46v-1c-28 39 -61 87 -88 127l88 129c17 25 40 42 99 42h44l-109 -171c33 -51 79 -123 110 -172z" />
    <glyph glyph-name="guillemotright" unicode="&#xbb;" horiz-adv-x="422" 
d="M64 60h-43l99 172c-29 51 -71 123 -99 171h43c57 0 82 -17 99 -43l80 -128l-80 -126c-19 -32 -48 -46 -99 -46zM220 60h-44l109 172c-33 51 -79 122 -110 171h45c58 0 82 -17 99 -42l88 -129l-88 -127c-22 -31 -48 -45 -99 -45z" />
    <glyph glyph-name="slash" unicode="/" horiz-adv-x="460" 
d="M400 534l-253 -534h-30c-29 0 -55 21 -55 59c0 15 3 34 11 49l242 518h39c28 0 53 -17 53 -52c0 -10 -2 -29 -7 -40z" />
    <glyph glyph-name="bar" unicode="|" horiz-adv-x="245" 
d="M162 -141h-31c-22 0 -48 19 -48 51v716h30c24 0 49 -17 49 -48v-719z" />
    <glyph glyph-name="brokenbar" unicode="&#xa6;" horiz-adv-x="274" 
d="M173 267h-31c-23 0 -48 20 -48 52v307h30c24 0 49 -17 49 -48v-311zM173 -141h-31c-23 0 -48 19 -48 51v308h30c24 0 49 -17 49 -48v-311z" />
    <glyph glyph-name="backslash" unicode="\" horiz-adv-x="398" 
d="M398 0h-68c-36 0 -87 27 -111 82l-215 515h75c32 0 77 -27 95 -67c71 -168 153 -362 224 -530z" />
    <glyph glyph-name="hyphen" unicode="-" horiz-adv-x="439" 
d="M359 329v-59c0 -40 -26 -62 -69 -62h-210v58c0 37 26 63 67 63h212z" />
    <glyph glyph-name="hyphen" unicode="&#xad;" horiz-adv-x="439" 
d="M359 329v-59c0 -40 -26 -62 -69 -62h-210v58c0 37 26 63 67 63h212z" />
    <glyph glyph-name="uni00AD" horiz-adv-x="330" 
d="M256 209h-226v91h226v-91z" />
    <glyph glyph-name="endash" unicode="&#x2013;" horiz-adv-x="533" 
d="M488 322v-58c0 -38 -27 -60 -69 -60h-376v56c0 36 24 62 65 62h380z" />
    <glyph glyph-name="emdash" unicode="&#x2014;" horiz-adv-x="880" 
d="M839 322v-58c0 -38 -26 -60 -68 -60h-726v56c0 36 25 62 65 62h729z" />
    <glyph glyph-name="underscore" unicode="_" horiz-adv-x="502" 
d="M502 -238h-502v98h502v-98z" />
    <glyph glyph-name="bullet" unicode="&#x2022;" horiz-adv-x="395" 
d="M198 425c65 0 117 -52 117 -118c0 -68 -51 -118 -117 -118c-64 0 -118 50 -118 118c0 66 53 118 118 118z" />
    <glyph glyph-name="periodcentered" unicode="&#xb7;" horiz-adv-x="251" 
d="M125 162c-48 0 -83 35 -83 85c0 51 35 88 84 88s84 -36 84 -88c0 -50 -33 -85 -84 -85h-1z" />
    <glyph glyph-name="periodcentered" unicode="&#x2219;" horiz-adv-x="251" 
d="M125 162c-48 0 -83 35 -83 85c0 51 35 88 84 88s84 -36 84 -88c0 -50 -33 -85 -84 -85h-1z" />
    <glyph glyph-name="parenleft" unicode="(" horiz-adv-x="350" 
d="M336 -144h-72c-22 0 -55 13 -78 31c-58 45 -133 192 -133 353c0 212 105 399 213 399h71c-76 -105 -139 -219 -139 -382c0 -178 64 -310 138 -401z" />
    <glyph glyph-name="parenright" unicode=")" horiz-adv-x="370" 
d="M9 638h74c19 0 54 -14 76 -31c58 -50 133 -196 133 -353c0 -213 -105 -399 -212 -399h-71v24c77 80 139 195 139 358c0 177 -63 309 -139 377v24z" />
    <glyph glyph-name="bracketleft" unicode="[" horiz-adv-x="309" 
d="M298 -141h-219v767h156c41 0 63 -25 63 -62v-41h-106v-562h47c33 0 59 -21 59 -61v-41z" />
    <glyph glyph-name="bracketright" unicode="]" horiz-adv-x="309" 
d="M230 -141h-219v41c0 40 27 61 60 61h47v562h-107v41c0 37 23 62 64 62h155v-767z" />
    <glyph glyph-name="braceleft" unicode="{" horiz-adv-x="341" 
d="M110 142c0 25 -12 45 -34 48c-13 2 -38 7 -52 9v44c0 28 14 44 52 50c26 4 32 28 32 48c0 16 -1 32 -2 48c-1 17 -2 34 -2 51c0 105 27 186 142 186h84v-48c0 -32 -19 -56 -58 -56h-14c-41 0 -40 -56 -40 -99c0 -12 1 -23 2 -37c0 -14 1 -30 1 -46
c0 -52 -13 -84 -43 -102c26 -17 45 -51 45 -99c0 -16 -2 -30 -3 -42s-2 -23 -2 -39c0 -41 1 -96 36 -96h77v-48c0 -37 -34 -55 -63 -55h-22c-118 0 -142 84 -142 188c0 20 1 36 3 52c2 15 3 29 3 43z" />
    <glyph glyph-name="braceright" unicode="}" horiz-adv-x="340" 
d="M230 142c0 -14 1 -28 3 -43c2 -16 4 -32 4 -52c0 -104 -25 -188 -142 -188h-22c-29 0 -63 18 -63 55v48h76c36 0 37 55 37 96c0 16 -1 27 -3 39c-1 12 -3 26 -3 42c0 50 17 83 46 100c-25 18 -44 53 -44 101c0 16 1 32 2 46s1 25 1 37c0 43 2 99 -40 99h-14
c-38 0 -57 24 -57 56v48h84c114 0 142 -81 142 -186c0 -17 -2 -34 -3 -51c-1 -16 -2 -32 -2 -48c0 -20 7 -44 32 -48c39 -6 52 -22 52 -50v-44l-52 -9c-21 -3 -34 -23 -34 -48z" />
    <glyph glyph-name="asterisk" unicode="*" horiz-adv-x="502" 
d="M372 406c-23 0 -21 1 -38 -1c34 -40 31 -52 94 -70c-23 -50 -44 -85 -84 -85c-64 0 -72 61 -97 105c-22 -35 -29 -69 -29 -113c-76 4 -115 29 -115 78s35 76 68 99c-20 5 -36 7 -55 7c-11 0 -30 -6 -73 -19c6 76 29 137 87 137c39 0 60 -14 83 -32c0 -1 1 -1 2 -2
c-1 34 -8 73 -43 117c2 1 20 9 22 10c15 5 36 12 52 12c46 0 86 -21 86 -76c0 -17 -12 -73 -17 -73v-1c32 16 67 47 93 86c31 -47 51 -77 51 -106c0 -54 -45 -73 -87 -73z" />
    <glyph glyph-name="dagger" unicode="&#x2020;" horiz-adv-x="542" 
d="M462 430c0 -39 -29 -80 -88 -80h-41v-481h-44c-37 0 -80 29 -80 88v393h-129v52c0 33 28 71 73 71h56v163h52c34 0 72 -28 72 -72v-91h129v-43z" />
    <glyph glyph-name="daggerdbl" unicode="&#x2021;" horiz-adv-x="548" 
d="M388 80h-53v-221h-52c-45 0 -70 33 -70 72v149h-133v53c0 33 26 72 71 72h62v149h-133v51c0 34 26 72 71 72h62v149h59c38 0 63 -30 63 -65v-84h133v-51c0 -43 -32 -72 -80 -72h-53v-149h133v-52c0 -45 -32 -73 -80 -73z" />
    <glyph glyph-name="section" unicode="&#xa7;" horiz-adv-x="543" 
d="M469 246c0 -44 -23 -85 -53 -106c24 -24 38 -56 38 -90c0 -101 -68 -166 -202 -166c-104 0 -159 53 -159 111v59c55 -33 104 -56 155 -56c38 0 68 10 68 42c0 21 -10 32 -119 69c-80 29 -122 80 -122 142c0 43 27 82 63 104c-29 21 -45 50 -45 97c0 87 79 153 209 153
c79 0 131 -45 131 -101l-4 -72c-46 44 -90 61 -137 61c-44 0 -65 -18 -65 -31c0 -23 11 -33 88 -61c81 -30 154 -69 154 -155zM297 276l-2 1c-2 1 -2 0 -4 1c-31 10 -46 14 -75 27c-10 -8 -17 -20 -17 -34c0 -34 37 -48 86 -66c17 -6 29 -9 48 -17c7 9 12 22 12 40
c0 21 -13 35 -48 48z" />
    <glyph glyph-name="paragraph" unicode="&#xb6;" horiz-adv-x="487" 
d="M413 -10h-38c-34 0 -64 21 -64 80v425c0 11 -4 13 -18 13h-13v-518h-32c-38 0 -70 21 -70 80v165c-55 5 -147 58 -147 169c0 95 49 202 255 202c88 0 127 -32 127 -99v-517z" />
    <glyph glyph-name="asciicircum" unicode="^" horiz-adv-x="467" 
d="M405 366c-17 -22 -27 -23 -37 -23c-35 1 -70 23 -82 49c-8 23 -35 73 -56 109c-27 -41 -66 -105 -87 -155h-25c-34 0 -56 19 -56 46c0 24 78 159 145 234h23c42 0 135 -143 175 -260z" />
    <glyph glyph-name="asciitilde" unicode="~" horiz-adv-x="540" 
d="M471 285c0 -65 -46 -117 -124 -117c-40 0 -66 16 -93 32h1c-21 13 -45 20 -58 20c-17 0 -31 -23 -31 -61h-41c-28 0 -55 22 -55 68c0 90 71 122 122 122c40 0 69 -16 96 -32h-1c20 -12 39 -23 58 -23c21 0 31 17 31 59h47c23 0 48 -31 48 -68z" />
    <glyph glyph-name="quotesingle" unicode="'" horiz-adv-x="366" 
d="M259 523l-14 -147h-40c-48 0 -76 31 -80 84l-13 149h67c52 0 80 -31 80 -86z" />
    <glyph glyph-name="quotedbl" unicode="&#x22;" horiz-adv-x="442" 
d="M371 524l-13 -147h-41c-49 0 -76 30 -80 84c-3 44 -9 105 -13 149h67c53 0 80 -32 80 -86zM211 524l-13 -147h-41c-49 0 -76 30 -80 84c-4 44 -9 105 -13 149h67c53 0 80 -32 80 -86z" />
    <glyph glyph-name="ampersand" unicode="&#x26;" horiz-adv-x="631" 
d="M594 82l14 -14c0 -52 -22 -79 -71 -79c-28 0 -64 5 -96 37l-19 19c-28 -25 -80 -55 -158 -55c-138 0 -208 78 -208 183c0 70 49 130 105 165c-26 32 -47 70 -47 110c0 84 63 163 183 163c94 0 159 -57 159 -148c0 -59 -46 -113 -116 -156c23 -27 57 -68 82 -94
c24 33 45 89 47 141h37c33 0 61 -19 61 -73c0 -46 -34 -108 -64 -149c3 -3 5 -6 8 -8c36 -34 57 -41 83 -42zM332 460c0 26 -15 41 -41 41c-28 0 -44 -17 -44 -48c0 -20 14 -40 27 -58l2 -2c31 20 56 44 56 67zM279 108c21 0 45 7 63 19c-32 32 -83 87 -109 123
c-23 -16 -41 -39 -41 -65c0 -56 32 -77 87 -77z" />
    <glyph glyph-name="at" unicode="@" horiz-adv-x="706" 
d="M665 359c0 -136 -77 -228 -183 -228c-35 0 -62 15 -78 42c-27 -28 -55 -42 -94 -42c-59 0 -120 62 -120 150c0 115 82 209 196 209c55 0 127 -47 127 -90c0 -25 -4 -47 -8 -66l-3 -12v1c-6 -28 -9 -52 -9 -68s2 -19 4 -19c23 0 59 34 59 120c0 97 -62 171 -177 171
c-117 0 -217 -92 -217 -240c0 -125 79 -196 189 -196c41 0 93 4 158 36v-50c0 -56 -27 -84 -174 -84c-152 0 -286 109 -286 287c0 183 134 345 339 345c163 0 277 -112 277 -266zM334 247c38 0 50 44 62 125c-5 3 -12 5 -22 5c-29 0 -58 -37 -58 -88c0 -35 11 -42 18 -42z
" />
    <glyph glyph-name="copyright" unicode="&#xa9;" horiz-adv-x="726" 
d="M662 289c0 -165 -135 -299 -299 -299c-165 0 -299 134 -299 299s134 300 299 300c164 0 299 -135 299 -300zM579 289c0 120 -97 217 -216 217s-216 -97 -216 -217c0 -118 97 -215 216 -215s216 97 216 215zM499 335c-48 24 -81 34 -106 34c-45 0 -78 -31 -78 -77
c0 -58 31 -85 78 -85c29 0 60 12 104 31v-46c0 -59 -74 -85 -118 -85c-60 0 -181 38 -181 176c0 52 29 185 181 185c64 0 120 -29 120 -88v-45z" />
    <glyph glyph-name="registered" unicode="&#xae;" horiz-adv-x="717" 
d="M653 289c0 -165 -135 -299 -300 -299s-299 134 -299 299s134 300 299 300s300 -135 300 -300zM570 289c0 120 -97 217 -217 217c-119 0 -216 -97 -216 -217c0 -118 97 -215 216 -215c120 0 217 97 217 215zM512 151l-5 -11c-21 -20 -33 -22 -56 -22c-58 0 -72 36 -87 71
c-8 21 -15 42 -36 48v-119h-47c-46 0 -71 27 -71 65v270c32 12 86 19 111 19h36c79 0 132 -46 132 -112c0 -38 -12 -66 -47 -86c12 -12 21 -31 29 -48c3 -8 7 -19 9 -23c1 -2 13 -19 19 -27c7 -9 13 -18 13 -25zM371 351c0 20 -10 25 -22 25h-19h-1h-1v-41h20
c13 0 23 5 23 16z" />
    <glyph glyph-name="trademark" unicode="&#x2122;" horiz-adv-x="741" 
d="M691 252h-49c-58 0 -62 36 -64 104c-12 -38 -27 -80 -43 -105h-29c-41 0 -60 43 -83 113c-1 -39 -1 -79 -1 -113l-48 1c-33 1 -59 21 -59 60c0 84 12 191 26 259h33c51 0 84 -26 98 -56c10 -26 21 -57 32 -88c16 52 44 128 80 145h9c50 0 78 -32 84 -78
c9 -68 14 -153 14 -242zM322 526c0 -23 -24 -55 -60 -55h-22v-223h-50c-33 0 -60 16 -60 56v167h-80v46c0 22 20 53 61 53h211v-44z" />
    <glyph glyph-name="degree" unicode="&#xb0;" horiz-adv-x="391" 
d="M338 474c0 -77 -56 -138 -141 -138c-89 0 -144 61 -144 137c0 78 51 141 144 141c91 0 141 -60 141 -140zM234 474c0 24 -12 47 -38 47c-25 0 -38 -24 -38 -48c0 -21 14 -43 38 -43c25 0 38 21 38 44z" />
    <glyph glyph-name="currency" unicode="&#xa4;" horiz-adv-x="568" 
d="M495 138l-78 -59l-69 93c-22 -13 -42 -17 -69 -17c-19 0 -37 3 -52 8c-19 -25 -45 -61 -62 -84l-81 58l65 78c-20 27 -30 62 -30 109c0 41 13 77 33 104c-20 25 -49 60 -68 84l80 57l63 -85c21 9 40 11 65 11c19 0 40 -4 61 -11c21 27 47 61 66 86l76 -57l-66 -85
c15 -24 24 -57 24 -99c0 -38 -11 -74 -29 -101c22 -28 50 -64 71 -90zM356 329c0 46 -19 81 -73 81c-37 0 -67 -31 -67 -84c0 -48 18 -87 71 -87c37 0 69 33 69 90z" />
    <glyph glyph-name="Euro" unicode="&#x20ac;" horiz-adv-x="529" 
d="M485 163v-56c0 -49 -50 -117 -150 -117c-129 0 -216 76 -238 206h-73v40c0 32 20 52 48 52h17v20h-65v43c0 34 25 52 48 52h25c28 135 128 203 243 203c85 0 145 -55 145 -122v-52c-47 28 -87 49 -130 49c-51 0 -97 -22 -114 -78h175v-39c0 -33 -22 -56 -55 -56h-130v-20
h185v-40c0 -30 -19 -52 -55 -52h-120c13 -56 49 -79 113 -79c42 0 85 19 131 46z" />
    <glyph glyph-name="dollar" unicode="$" horiz-adv-x="549" 
d="M488 188c0 -114 -87 -177 -159 -186v-117h-40c-45 0 -66 21 -66 62v53c-119 8 -154 66 -154 131l2 74c43 -43 108 -81 175 -81c75 0 98 18 98 55c0 33 -19 45 -124 63h1c-94 15 -165 60 -165 159c0 104 81 169 167 185v116h48c39 0 58 -21 58 -62v-50
c93 -9 143 -51 143 -118v-59c-58 37 -108 53 -167 53c-82 0 -107 -22 -107 -53c0 -29 14 -40 123 -59c107 -18 167 -78 167 -166z" />
    <glyph glyph-name="cent" unicode="&#xa2;" horiz-adv-x="529" 
d="M279 561c43 0 63 -22 63 -69v-37c53 -10 92 -49 92 -100v-67c-45 28 -77 45 -134 45c-54 0 -99 -43 -99 -98c0 -70 40 -115 102 -115c45 0 86 15 129 38v-65c0 -42 -33 -81 -90 -94v-111h-30c-45 0 -69 27 -69 70v40c-100 22 -180 109 -180 221c0 110 63 207 180 233v109
h36z" />
    <glyph glyph-name="sterling" unicode="&#xa3;" horiz-adv-x="533" 
d="M254 125h219v-51c0 -53 -33 -74 -97 -74h-311v45c0 21 15 44 33 69c20 27 42 59 42 91c0 11 -1 22 -3 33h-103v35c0 51 26 76 76 76h3c-3 16 -6 37 -6 61c0 110 89 187 214 187c69 0 124 -46 124 -96v-56c-50 16 -85 24 -124 24s-68 -26 -68 -69c0 -17 2 -35 5 -51h154
v-42c0 -45 -32 -69 -77 -69h-62c1 -6 1 -18 1 -23c0 -33 -8 -65 -20 -90z" />
    <glyph glyph-name="florin" unicode="&#x192;" horiz-adv-x="534" 
d="M496 475c-43 8 -70 13 -81 13c-29 0 -48 -25 -56 -69c-2 -17 -4 -20 -6 -38h111v-45c0 -33 -27 -65 -85 -65h-38c-7 -60 -16 -121 -22 -180c-14 -107 -41 -196 -165 -196c-62 0 -99 34 -99 72v59c38 -9 70 -14 83 -14c21 0 39 15 47 73c7 66 13 120 20 186h-95v44
c0 38 37 64 72 65l38 1c0 11 2 22 3 33c10 68 42 191 184 191c59 0 89 -34 89 -72v-58z" />
    <glyph glyph-name="yen" unicode="&#xa5;" horiz-adv-x="533" 
d="M505 543c0 -34 -73 -131 -130 -200h103v-50c0 -27 -28 -52 -68 -52h-76v-39h144v-50c0 -24 -29 -52 -68 -52h-76v-100h-61c-31 0 -66 29 -66 71v29h-140v44c0 32 23 58 67 58h73v39h-140v45c0 31 23 57 67 57h35c-54 71 -117 164 -146 254h73c50 0 77 -24 87 -41
c24 -50 60 -111 94 -154c36 44 87 126 117 195h55c37 0 56 -25 56 -54z" />
    <glyph glyph-name="numbersign" unicode="#" horiz-adv-x="573" 
d="M534 412c0 -44 -28 -69 -75 -69h-14c-6 -27 -11 -45 -16 -75h67v-41c0 -43 -26 -71 -75 -71h-13c-10 -50 -21 -106 -30 -156h-47c-45 0 -62 24 -62 62c0 10 1 18 3 26v-1c6 28 8 41 13 69h-59c-10 -49 -21 -107 -30 -156h-47c-45 0 -61 24 -61 62c0 9 1 17 2 25l13 69
h-72v42c0 43 28 70 75 70h20c5 25 9 47 14 75h-72v40c0 43 27 70 76 70h18c10 50 21 107 30 156h39c44 0 68 -22 68 -65c0 -6 0 -12 -1 -16c0 -1 -1 -4 -1 -4l-14 -71h60c9 51 21 106 30 156h39c42 0 68 -23 68 -64c0 -7 0 -17 -1 -24c-5 -27 -9 -39 -14 -68h69v-41z
M323 343h-61c-5 -25 -10 -47 -14 -75h59c6 27 10 45 16 75z" />
    <glyph glyph-name="zero" unicode="0" horiz-adv-x="555" 
d="M511 317c0 -227 -99 -327 -234 -327c-137 0 -234 104 -234 304c0 221 95 325 242 325c144 0 226 -118 226 -302zM186 318c0 -149 35 -198 99 -198c48 0 82 52 82 170c0 150 -30 199 -90 199c-51 0 -91 -48 -91 -171z" />
    <glyph glyph-name="one" unicode="1" horiz-adv-x="402" 
d="M302 0h-60c-48 0 -84 30 -84 90v365c-13 -4 -24 -9 -37 -14c-17 -6 -34 -9 -49 -9c-39 0 -62 22 -69 53c-2 11 -6 33 -8 42l116 51c57 24 83 31 115 31c46 0 76 -39 76 -75v-534z" />
    <glyph glyph-name="two" unicode="2" horiz-adv-x="554" 
d="M486 71c0 -46 -37 -71 -92 -71h-269c-40 0 -72 32 -72 72c0 44 19 88 114 166l135 114c28 22 35 44 35 66c0 44 -32 71 -86 71c-80 0 -126 -23 -190 -75v55c0 75 55 150 210 150c121 0 209 -85 209 -185c0 -91 -35 -135 -127 -207c-100 -77 -114 -93 -123 -103h256v-53z
" />
    <glyph glyph-name="three" unicode="3" horiz-adv-x="548" 
d="M477 187c0 -118 -81 -197 -243 -197c-100 0 -182 43 -182 131v60c61 -39 114 -63 188 -63c66 0 93 28 93 65c0 45 -32 62 -95 64c-61 1 -85 21 -85 58v50c16 2 52 5 77 6c75 3 101 29 101 62c0 44 -32 69 -100 69c-61 0 -118 -22 -174 -62v63c0 54 66 126 194 126
c135 0 222 -69 222 -176c0 -73 -31 -114 -76 -136c41 -24 80 -72 80 -120z" />
    <glyph glyph-name="four" unicode="4" horiz-adv-x="549" 
d="M527 202c0 -39 -20 -64 -62 -64h-29v-138h-58c-49 0 -82 30 -82 89v49h-183c-47 0 -79 33 -79 67s9 53 17 69c42 74 170 266 254 335h47c50 0 84 -31 84 -95v-253h91v-59zM296 261v174c-37 -49 -84 -122 -115 -174h115z" />
    <glyph glyph-name="five" unicode="5" horiz-adv-x="558" 
d="M508 203c0 -134 -94 -213 -238 -213c-134 0 -189 50 -189 123v58c63 -34 103 -51 177 -51s103 27 103 76s-39 69 -123 69c-45 0 -102 -11 -150 -23v250c0 76 27 117 107 117h294v-44c0 -51 -32 -85 -94 -85h-166v-99c19 2 43 3 63 3c118 0 216 -68 216 -181z" />
    <glyph glyph-name="six" unicode="6" horiz-adv-x="546" 
d="M504 211c0 -101 -60 -221 -229 -221c-123 0 -222 88 -222 289c0 228 111 340 276 340c87 0 146 -52 146 -119v-49c-84 64 -275 65 -275 -83c27 25 64 37 105 37c107 0 199 -68 199 -194zM200 212c0 -52 28 -96 82 -96c55 0 80 29 80 86c0 54 -36 79 -78 79
c-56 0 -84 -32 -84 -69z" />
    <glyph glyph-name="seven" unicode="7" horiz-adv-x="531" 
d="M470 538c0 -29 -23 -82 -52 -144c-18 -37 -37 -69 -57 -101c-43 -72 -93 -154 -93 -230v-63h-61c-43 0 -73 21 -73 79c0 45 18 105 39 143c88 160 123 223 140 251c2 3 2 4 3 5c0 0 0 1 1 2h-265v54c0 46 22 76 78 76h263c56 0 77 -28 77 -72z" />
    <glyph glyph-name="eight" unicode="8" horiz-adv-x="536" 
d="M496 179c0 -108 -59 -189 -227 -189c-132 0 -213 73 -213 181c0 54 36 109 80 136c-42 23 -77 64 -77 127c0 114 95 185 221 185c128 0 213 -78 213 -177c0 -69 -35 -108 -76 -129c42 -26 79 -74 79 -134zM272 490c-44 0 -68 -26 -68 -58c0 -35 22 -61 75 -61
c45 0 70 25 70 57c0 39 -24 62 -77 62zM354 183c0 39 -29 68 -82 68c-39 0 -72 -28 -72 -62c0 -45 22 -70 79 -70c52 0 75 28 75 64z" />
    <glyph glyph-name="nine" unicode="9" horiz-adv-x="543" 
d="M491 319c0 -225 -96 -329 -245 -329c-102 0 -175 45 -175 121v56c52 -27 100 -49 170 -49c56 0 89 34 101 110c-21 -20 -52 -33 -88 -33c-129 0 -214 78 -214 196c0 133 80 228 233 228c133 0 218 -83 218 -300zM346 391c0 72 -31 103 -83 103c-50 0 -78 -38 -78 -90
c0 -58 31 -84 77 -84c53 0 84 29 84 71z" />
    <glyph glyph-name="onesuperior" unicode="&#xb9;" horiz-adv-x="365" 
d="M249 233h-60c-38 0 -68 26 -68 69v179c-3 -1 -7 -3 -11 -4c-9 -3 -15 -4 -22 -4c-28 0 -53 16 -58 42l-6 37c31 15 102 44 102 44c16 6 38 11 61 11c29 0 62 -21 62 -59v-315z" />
    <glyph glyph-name="twosuperior" unicode="&#xb2;" horiz-adv-x="408" 
d="M282 224h-166c-33 0 -63 23 -63 58c0 38 28 70 67 102l78 61c8 8 16 19 16 28c0 13 -12 23 -41 23c-40 0 -69 -15 -113 -63v68c0 56 39 105 142 105c88 0 141 -58 141 -122c0 -58 -20 -81 -84 -127c-5 -3 -9 -5 -14 -9c-14 -9 1 6 -22 -13h127v-49c0 -38 -23 -62 -68 -62
z" />
    <glyph glyph-name="threesuperior" unicode="&#xb3;" horiz-adv-x="350" 
d="M149 219c-60 0 -122 23 -122 90v54c48 -22 83 -34 120 -34c29 0 36 7 36 13c0 14 -6 20 -44 23c-33 2 -56 18 -56 53v36l63 6c35 4 35 9 35 18s-8 20 -44 20c-31 0 -61 -13 -108 -35v55c0 46 43 89 134 89c74 0 141 -43 141 -117c0 -32 -15 -57 -34 -73
c19 -16 36 -42 36 -69c0 -84 -60 -129 -157 -129z" />
    <glyph glyph-name="onehalf" unicode="&#xbd;" horiz-adv-x="818" 
d="M534 574c0 -9 -3 -28 -9 -40h1c-82 -175 -170 -359 -252 -534h-30c-29 0 -56 21 -56 59c0 15 4 34 12 49l242 518h39c28 0 53 -17 53 -52zM664 0h-166c-33 0 -62 22 -62 58s26 68 67 101l78 62c11 7 16 17 16 26c0 13 -12 24 -41 24c-40 0 -70 -16 -113 -65v71
c0 55 38 105 141 105c88 0 142 -60 142 -124c0 -55 -21 -81 -84 -125c-3 -2 -7 -4 -10 -6v-1c-14 -8 3 7 -25 -17h126v-49c0 -37 -23 -60 -69 -60zM189 233c-38 0 -68 26 -68 69v179c-4 -1 -8 -3 -12 -4c-8 -3 -15 -4 -21 -4c-29 0 -54 16 -59 42l-5 37c31 15 101 44 101 44
c16 6 38 11 62 11c29 0 61 -21 61 -59v-315h-59z" />
    <glyph glyph-name="onequarter" unicode="&#xbc;" horiz-adv-x="766" 
d="M534 574c0 -9 -3 -28 -9 -40h1c-82 -175 -169 -359 -251 -534h-31c-29 0 -56 21 -56 59c0 15 5 34 12 49l242 518h39c28 0 53 -17 53 -52zM248 233h-59c-38 0 -68 26 -68 69v179c-4 -1 -8 -3 -11 -4c-9 -3 -15 -4 -22 -4c-28 0 -54 16 -59 42l-5 37c31 15 102 44 102 44
c16 6 37 11 61 11c29 0 61 -21 61 -59v-315zM693 75h-12v-75h-63c-43 0 -66 17 -66 62v13h-77c-34 0 -69 24 -69 57c0 63 116 210 168 244h36c42 0 71 -27 71 -72v-119h70v-53c0 -33 -22 -57 -58 -57zM539 184h13v19c-5 -7 -9 -14 -13 -19z" />
    <glyph glyph-name="threequarters" unicode="&#xbe;" horiz-adv-x="783" 
d="M758 132c0 -33 -22 -57 -57 -57h-12v-75h-64c-42 0 -66 17 -66 62v13h-76c-34 0 -70 24 -70 57c0 63 115 210 169 244h36c41 0 71 -27 71 -72v-119h69v-53zM555 546c0 -10 -3 -28 -9 -41l1 1c-78 -166 -160 -340 -238 -506h-31c-29 0 -56 21 -56 59c0 14 6 35 12 49
c73 157 157 333 229 490h39c28 0 53 -17 53 -52zM559 184v19c-3 -6 -7 -14 -11 -19h11zM148 219c-59 0 -121 23 -121 90v54h27c21 -22 56 -34 92 -34c30 0 37 7 37 13c0 14 -6 20 -44 23c-33 2 -56 18 -56 53v36l63 6c34 4 35 9 35 18s-8 20 -44 20c-31 0 -61 -13 -82 -35
h-26v55c0 46 43 89 134 89c74 0 141 -43 141 -117c0 -32 -15 -57 -34 -73c19 -16 36 -42 36 -69c0 -84 -61 -129 -158 -129z" />
    <glyph glyph-name="percent" unicode="%" horiz-adv-x="920" 
d="M387 419c0 -117 -59 -211 -170 -211c-102 0 -161 93 -161 197c0 117 59 211 169 211c102 0 162 -93 162 -197zM617 519l-246 -519h-30c-36 0 -61 19 -61 58c0 20 4 32 15 52c75 160 161 339 236 498h39c28 0 54 -17 54 -51c0 -14 -2 -27 -7 -38zM857 202
c0 -117 -60 -210 -170 -210c-102 0 -162 93 -162 197c0 116 58 209 169 209c101 0 163 -93 163 -196zM265 405c0 63 -15 100 -47 100c-27 0 -39 -36 -39 -86c0 -64 13 -100 45 -100c27 0 41 35 41 86zM737 191c0 64 -14 100 -46 100c-27 0 -41 -36 -41 -86
c0 -64 14 -100 47 -100c27 0 40 35 40 86z" />
    <glyph glyph-name="perthousand" unicode="&#x2030;" horiz-adv-x="1233" 
d="M374 412c0 -114 -58 -206 -166 -206c-101 0 -159 91 -159 193c0 115 58 206 166 206c101 0 159 -90 159 -193zM598 508l-240 -508h-30c-36 0 -60 19 -60 58c0 16 7 33 14 50c75 158 158 329 232 487h38c28 0 53 -16 53 -50c0 -12 -2 -27 -8 -38zM1182 203
c0 -115 -57 -207 -166 -207c-100 0 -158 92 -158 194c0 114 57 205 165 205c100 0 159 -91 159 -192zM833 203c0 -115 -59 -207 -166 -207c-100 0 -160 92 -160 194c0 114 58 205 166 205c99 0 160 -91 160 -192zM253 399c0 62 -13 98 -44 98c-27 0 -39 -35 -39 -85
c0 -61 13 -97 44 -97c27 0 39 35 39 84zM1065 192c0 63 -14 97 -45 97c-25 0 -39 -34 -39 -84c0 -62 13 -98 45 -98c25 0 39 36 39 85zM715 192c0 63 -13 97 -45 97c-26 0 -39 -34 -39 -84c0 -62 13 -98 45 -98c27 0 39 36 39 85z" />
    <glyph glyph-name="zero.basic" horiz-adv-x="555" 
d="M511 317c0 -227 -99 -327 -234 -327c-137 0 -234 104 -234 304c0 221 95 325 242 325c144 0 226 -118 226 -302zM186 318c0 -149 35 -198 99 -198c48 0 82 52 82 170c0 150 -30 199 -90 199c-51 0 -91 -48 -91 -171z" />
    <glyph glyph-name="one.basic" horiz-adv-x="402" 
d="M302 0h-60c-48 0 -84 30 -84 90v365c-13 -4 -24 -9 -37 -14c-17 -6 -34 -9 -49 -9c-59 0 -67 48 -77 95l116 51c57 24 83 31 115 31c46 0 76 -39 76 -75v-534z" />
    <glyph glyph-name="two.basic" horiz-adv-x="554" 
d="M486 71c0 -46 -37 -71 -92 -71h-269c-40 0 -72 32 -72 72c0 44 19 88 114 166l135 114c28 22 35 44 35 66c0 44 -32 71 -86 71c-80 0 -126 -23 -190 -75v55c0 75 55 150 210 150c121 0 209 -85 209 -185c0 -91 -35 -135 -127 -207c-100 -77 -114 -94 -123 -104h256v-52z
" />
    <glyph glyph-name="three.basic" horiz-adv-x="548" 
d="M477 187c0 -118 -81 -197 -243 -197c-100 0 -182 43 -182 131v60c61 -39 114 -63 188 -63c66 0 93 28 93 65c0 45 -32 62 -95 64c-61 1 -85 21 -85 58v50c16 2 52 5 77 6c75 3 101 29 101 62c0 44 -32 69 -100 69c-61 0 -118 -22 -174 -62v63c0 54 66 126 194 126
c135 0 222 -69 222 -176c0 -73 -31 -114 -76 -136c41 -24 80 -72 80 -120z" />
    <glyph glyph-name="four.basic" horiz-adv-x="549" 
d="M527 202c0 -39 -20 -64 -62 -64h-29v-138h-58c-49 0 -82 30 -82 89v49h-183c-47 0 -79 33 -79 67s9 53 17 69c42 74 170 266 254 335h47c50 0 84 -31 84 -95v-253h91v-59zM296 261v174c-37 -49 -84 -122 -115 -174h115z" />
    <glyph glyph-name="five.basic" horiz-adv-x="558" 
d="M508 203c0 -134 -94 -213 -238 -213c-134 0 -189 50 -189 123v58c63 -34 103 -51 177 -51s103 27 103 76s-39 69 -123 69c-45 0 -102 -11 -150 -23v250c0 76 27 117 107 117h294v-44c0 -51 -32 -85 -94 -85h-166v-99c19 2 43 3 63 3c118 0 216 -68 216 -181z" />
    <glyph glyph-name="six.basic" horiz-adv-x="546" 
d="M504 211c0 -101 -60 -221 -229 -221c-123 0 -222 88 -222 289c0 228 111 340 276 340c87 0 146 -52 146 -119v-49c-84 64 -275 65 -275 -83c27 25 64 37 105 37c107 0 199 -68 199 -194zM200 212c0 -52 28 -96 82 -96c55 0 80 29 80 86c0 54 -36 79 -78 79
c-56 0 -84 -32 -84 -69z" />
    <glyph glyph-name="seven.basic" horiz-adv-x="531" 
d="M470 536c0 -27 -23 -82 -52 -144c-51 -104 -146 -202 -150 -329v-63h-61c-43 0 -73 21 -73 79c0 45 18 105 39 143c90 165 126 227 142 253c1 1 1 2 1 3h-264v55c0 45 22 75 78 75h263c56 0 77 -28 77 -72z" />
    <glyph glyph-name="eight.basic" horiz-adv-x="536" 
d="M496 179c0 -108 -59 -189 -227 -189c-132 0 -213 73 -213 181c0 54 36 109 80 136c-42 23 -77 64 -77 127c0 114 95 185 221 185c128 0 213 -78 213 -177c0 -69 -35 -108 -76 -129c42 -26 79 -74 79 -134zM272 490c-44 0 -68 -26 -68 -58c0 -35 22 -61 75 -61
c45 0 70 25 70 57c0 39 -24 62 -77 62zM354 183c0 39 -29 68 -82 68c-39 0 -72 -28 -72 -62c0 -45 22 -70 79 -70c52 0 75 28 75 64z" />
    <glyph glyph-name="nine.basic" horiz-adv-x="543" 
d="M491 319c0 -225 -96 -329 -245 -329c-102 0 -175 45 -175 121v56c52 -27 100 -49 170 -49c56 0 89 34 101 110c-21 -20 -52 -33 -88 -33c-129 0 -214 78 -214 196c0 133 80 228 233 228c133 0 218 -83 218 -300zM346 391c0 72 -31 103 -83 103c-50 0 -78 -38 -78 -90
c0 -58 31 -84 77 -84c53 0 84 29 84 71z" />
    <glyph glyph-name="Euro.basic" horiz-adv-x="527" 
d="M489 163v-56c0 -49 -50 -117 -150 -117c-129 0 -216 76 -238 206h-73v40c0 32 20 52 48 52h17v20h-65v43c0 34 25 52 48 52h25c28 135 128 203 243 203c85 0 145 -55 145 -122v-52c-47 28 -87 49 -130 49c-51 0 -97 -22 -114 -78h175v-39c0 -33 -22 -56 -55 -56h-130v-20
h185v-40c0 -30 -19 -52 -55 -52h-120c13 -56 49 -79 113 -79c42 0 85 19 131 46z" />
    <glyph glyph-name="dollar.basic" horiz-adv-x="549" 
d="M488 188c0 -114 -87 -177 -159 -186v-117h-40c-45 0 -66 21 -66 62v53c-119 8 -154 66 -154 131l2 74c43 -43 108 -81 175 -81c75 0 98 18 98 55c0 33 -19 45 -124 63h1c-94 15 -165 60 -165 159c0 104 81 169 167 185v116h48c39 0 58 -21 58 -62v-50
c93 -9 143 -51 143 -118v-59c-58 37 -108 53 -167 53c-82 0 -107 -22 -107 -53c0 -29 14 -40 123 -59c107 -18 167 -78 167 -166z" />
    <glyph glyph-name="cent.basic" horiz-adv-x="530" 
d="M284 561c43 0 63 -22 63 -69v-37c53 -10 92 -49 92 -100v-67c-45 28 -77 45 -134 45c-54 0 -99 -43 -99 -98c0 -70 40 -115 102 -115c45 0 86 15 129 38v-65c0 -42 -33 -81 -90 -94v-111h-30c-45 0 -69 27 -69 70v40c-100 22 -180 109 -180 221c0 110 63 207 180 233v109
h36z" />
    <glyph glyph-name="sterling.basic" horiz-adv-x="547" 
d="M274 123h219v-49c0 -53 -33 -74 -97 -74h-311v45c0 21 15 44 33 69c20 27 42 59 42 91c0 11 -1 22 -3 33h-103v35c0 51 26 76 76 76h3c-3 16 -6 37 -6 61c0 110 89 187 214 187c69 0 124 -46 124 -96v-56c-50 16 -85 24 -124 24s-68 -26 -68 -69c0 -17 2 -35 5 -51h154
v-42c0 -45 -32 -69 -77 -69h-62c1 -6 1 -18 1 -23c0 -33 -8 -67 -20 -92z" />
    <glyph glyph-name="florin.basic" horiz-adv-x="562" 
d="M501 475c-43 8 -70 13 -81 13c-29 0 -48 -25 -56 -69c-2 -17 -4 -20 -6 -38h111v-45c0 -33 -27 -65 -85 -65h-38c-7 -60 -16 -121 -22 -180c-14 -107 -41 -196 -165 -196c-62 0 -99 34 -99 72v59c38 -9 70 -14 83 -14c21 0 39 15 47 73c7 66 13 120 20 186h-95v44
c0 38 37 64 72 65l38 1c0 11 2 22 3 33c10 68 42 191 184 191c59 0 89 -34 89 -72v-58z" />
    <glyph glyph-name="yen.basic" horiz-adv-x="545" 
d="M510 543c0 -34 -73 -131 -130 -200h103v-50c0 -27 -28 -52 -68 -52h-76v-39h144v-50c0 -24 -29 -52 -68 -52h-76v-100h-61c-31 0 -66 29 -66 71v29h-140v44c0 32 23 58 67 58h73v39h-140v45c0 31 23 57 67 57h35c-54 71 -117 164 -146 254h73c50 0 77 -24 87 -41
c24 -50 60 -111 94 -154c36 44 87 126 117 195h55c37 0 56 -25 56 -54z" />
    <glyph glyph-name="numbersign.basic" horiz-adv-x="573" 
d="M534 412c0 -44 -28 -69 -75 -69h-14c-6 -27 -11 -45 -16 -75h67v-41c0 -43 -26 -71 -75 -71h-13c-10 -50 -21 -106 -30 -156h-47c-45 0 -62 24 -62 62c0 10 1 18 3 26v-1c6 28 8 41 13 69h-59c-10 -49 -21 -107 -30 -156h-47c-45 0 -61 24 -61 62c0 9 1 17 2 25l13 69
h-72v42c0 43 28 70 75 70h20c5 25 9 47 14 75h-72v40c0 43 27 70 76 70h18c10 50 21 107 30 156h39c44 0 68 -22 68 -65c0 -6 0 -12 -1 -16c0 -1 -1 -4 -1 -4l-14 -71h60c9 51 21 106 30 156h39c42 0 68 -23 68 -64c0 -7 0 -17 -1 -24c-5 -27 -9 -39 -14 -68h69v-41z
M323 343h-61c-5 -25 -10 -47 -14 -75h59c6 27 10 45 16 75z" />
    <glyph glyph-name="percent.basic" horiz-adv-x="920" 
d="M387 419c0 -117 -59 -211 -170 -211c-102 0 -161 93 -161 197c0 117 59 211 169 211c102 0 162 -93 162 -197zM617 519l-246 -519h-30c-36 0 -61 19 -61 58c0 20 4 32 15 52c75 160 161 339 236 498h39c28 0 54 -17 54 -51c0 -14 -2 -27 -7 -38zM857 202
c0 -117 -60 -210 -170 -210c-102 0 -162 93 -162 197c0 116 58 209 169 209c101 0 163 -93 163 -196zM265 405c0 63 -15 100 -47 100c-27 0 -39 -36 -39 -86c0 -64 13 -100 45 -100c27 0 41 35 41 86zM737 191c0 64 -14 100 -46 100c-27 0 -41 -36 -41 -86
c0 -64 14 -100 47 -100c27 0 40 35 40 86z" />
    <glyph glyph-name="perthousand.basic" horiz-adv-x="1256" 
d="M383 412c0 -114 -58 -206 -166 -206c-101 0 -159 91 -159 193c0 115 58 206 166 206c101 0 159 -90 159 -193zM607 508l-240 -508h-30c-36 0 -60 19 -60 58c0 16 7 33 14 50c75 158 158 329 232 487h38c28 0 53 -16 53 -50c0 -12 -2 -27 -8 -38zM1191 203
c0 -115 -57 -207 -166 -207c-100 0 -158 92 -158 194c0 114 57 205 165 205c100 0 159 -91 159 -192zM842 203c0 -115 -59 -207 -166 -207c-100 0 -160 92 -160 194c0 114 58 205 166 205c99 0 160 -91 160 -192zM262 399c0 62 -13 98 -44 98c-27 0 -39 -35 -39 -85
c0 -61 13 -97 44 -97c27 0 39 35 39 84zM1074 192c0 63 -14 97 -45 97c-25 0 -39 -34 -39 -84c0 -62 13 -98 45 -98c25 0 39 36 39 85zM724 192c0 63 -13 97 -45 97c-26 0 -39 -34 -39 -84c0 -62 13 -98 45 -98c27 0 39 36 39 85z" />
    <glyph glyph-name="zero.onum" horiz-adv-x="555" 
d="M511 317c0 -227 -99 -327 -234 -327c-137 0 -234 104 -234 304c0 221 95 325 242 325c144 0 226 -118 226 -302zM186 318c0 -149 35 -198 99 -198c48 0 82 52 82 170c0 150 -30 199 -90 199c-51 0 -91 -48 -91 -171z" />
    <glyph glyph-name="one.onum" horiz-adv-x="344" 
d="M295 0h-60c-48 0 -84 30 -84 90v365c-13 -4 -24 -9 -37 -14c-17 -6 -34 -9 -49 -9c-59 0 -67 48 -77 95l116 51c57 24 83 31 115 31c46 0 76 -39 76 -75v-534z" />
    <glyph glyph-name="two.onum" horiz-adv-x="554" 
d="M486 71c0 -46 -37 -71 -92 -71h-269c-40 0 -72 32 -72 72c0 44 19 88 114 166l135 114c28 22 35 44 35 66c0 44 -32 71 -86 71c-80 0 -126 -23 -190 -75v55c0 75 55 150 210 150c121 0 209 -85 209 -185c0 -91 -35 -135 -127 -207c-100 -77 -114 -94 -123 -104h256v-52z
" />
    <glyph glyph-name="three.onum" horiz-adv-x="548" 
d="M477 187c0 -118 -81 -197 -243 -197c-100 0 -182 43 -182 131v60c61 -39 114 -63 188 -63c66 0 93 28 93 65c0 45 -32 62 -95 64c-61 1 -85 21 -85 58v50c16 2 52 5 77 6c75 3 101 29 101 62c0 44 -32 69 -100 69c-61 0 -118 -22 -174 -62v63c0 54 66 126 194 126
c135 0 222 -69 222 -176c0 -73 -31 -114 -76 -136c41 -24 80 -72 80 -120z" />
    <glyph glyph-name="four.onum" horiz-adv-x="549" 
d="M527 202c0 -39 -20 -64 -62 -64h-29v-138h-58c-49 0 -82 30 -82 89v49h-183c-47 0 -79 33 -79 67s9 53 17 69c42 74 170 266 254 335h47c50 0 84 -31 84 -95v-253h91v-59zM296 261v174c-37 -49 -84 -122 -115 -174h115z" />
    <glyph glyph-name="five.onum" horiz-adv-x="558" 
d="M508 203c0 -134 -94 -213 -238 -213c-134 0 -189 50 -189 123v58c63 -34 103 -51 177 -51s103 27 103 76s-39 69 -123 69c-45 0 -102 -11 -150 -23v250c0 76 27 117 107 117h294v-44c0 -51 -32 -85 -94 -85h-166v-99c19 2 43 3 63 3c118 0 216 -68 216 -181z" />
    <glyph glyph-name="six.onum" horiz-adv-x="546" 
d="M504 211c0 -101 -60 -221 -229 -221c-123 0 -222 88 -222 289c0 228 111 340 276 340c87 0 146 -52 146 -119v-49c-84 64 -275 65 -275 -83c27 25 64 37 105 37c107 0 199 -68 199 -194zM200 212c0 -52 28 -96 82 -96c55 0 80 29 80 86c0 54 -36 79 -78 79
c-56 0 -84 -32 -84 -69z" />
    <glyph glyph-name="seven.onum" horiz-adv-x="531" 
d="M470 537c0 -27 -24 -85 -51 -143c-50 -107 -147 -201 -151 -331v-63h-61c-43 0 -73 21 -73 79c0 45 18 105 39 143c89 163 126 225 142 252v-1l3 6h-266v55c0 45 22 75 78 75h263c56 0 77 -28 77 -72z" />
    <glyph glyph-name="eight.onum" horiz-adv-x="536" 
d="M496 179c0 -108 -59 -189 -227 -189c-132 0 -213 73 -213 181c0 54 36 109 80 136c-42 23 -77 64 -77 127c0 114 95 185 221 185c128 0 213 -78 213 -177c0 -69 -35 -108 -76 -129c42 -26 79 -74 79 -134zM272 490c-44 0 -68 -26 -68 -58c0 -35 22 -61 75 -61
c45 0 70 25 70 57c0 39 -24 62 -77 62zM354 183c0 39 -29 68 -82 68c-39 0 -72 -28 -72 -62c0 -45 22 -70 79 -70c52 0 75 28 75 64z" />
    <glyph glyph-name="nine.onum" horiz-adv-x="543" 
d="M491 319c0 -225 -96 -329 -245 -329c-102 0 -175 45 -175 121v56c52 -27 100 -49 170 -49c56 0 89 34 101 110c-21 -20 -52 -33 -88 -33c-129 0 -214 78 -214 196c0 133 80 228 233 228c133 0 218 -83 218 -300zM346 391c0 72 -31 103 -83 103c-50 0 -78 -38 -78 -90
c0 -58 31 -84 77 -84c53 0 84 29 84 71z" />
    <glyph glyph-name="plus" unicode="+" horiz-adv-x="561" 
d="M514 256c0 -33 -28 -68 -82 -68h-93v-178h-54c-34 0 -70 29 -70 82v96h-180v60c0 31 29 64 70 64h110v160h62c30 0 62 -28 62 -69v-91h175v-56z" />
    <glyph glyph-name="minus" unicode="&#x2212;" horiz-adv-x="571" 
d="M536 362v-64c0 -43 -28 -66 -75 -66h-426v62c0 40 27 68 72 68h429z" />
    <glyph glyph-name="multiply" unicode="&#xd7;" horiz-adv-x="538" 
d="M138 41l-41 42c-13 12 -18 25 -18 40c0 18 8 34 24 50l91 92c-45 45 -95 94 -138 138l40 40c12 12 27 18 43 18c14 -1 31 -7 46 -21l93 -91l132 132l39 -42c11 -13 19 -25 19 -42c0 -16 -7 -33 -21 -47l-86 -86l147 -147l-41 -41c-12 -12 -25 -18 -41 -18
c-18 0 -34 8 -50 24l-98 98c-46 -45 -96 -94 -140 -139z" />
    <glyph glyph-name="divide" unicode="&#xf7;" horiz-adv-x="506" 
d="M394 237h-355v54c0 32 28 59 73 59h354v-55c0 -27 -32 -58 -72 -58zM338 471c0 -48 -38 -86 -85 -86s-85 38 -85 86c0 46 38 84 85 84s85 -38 85 -84zM338 115c0 -47 -38 -86 -85 -86s-85 39 -85 86c0 46 38 85 85 85s85 -39 85 -85z" />
    <glyph glyph-name="equal" unicode="=" horiz-adv-x="587" 
d="M441 302h-355v54c0 32 28 59 73 59h354v-55c0 -27 -32 -58 -72 -58zM441 139h-355v53c0 32 28 59 73 59h354v-55c0 -34 -32 -57 -72 -57z" />
    <glyph glyph-name="notequal" unicode="&#x2260;" horiz-adv-x="507" 
d="M411 453l-19 -38h75v-55c0 -27 -32 -58 -72 -58h-57c-9 -21 -13 -28 -24 -51h153v-55c0 -34 -32 -57 -72 -57h-136c-19 -41 -39 -86 -58 -126h-30c-36 0 -62 19 -62 59c0 18 6 31 16 52c3 5 2 5 7 15h-92v53c0 32 28 59 73 59h73c9 20 13 27 24 51h-170v54
c0 32 28 59 73 59h152c20 40 42 88 62 128c24 -4 91 -11 91 -51c0 -12 -2 -26 -7 -39z" />
    <glyph glyph-name="less" unicode="&#x3c;" horiz-adv-x="580" 
d="M494 434c0 -39 -24 -73 -75 -94c-41 -15 -134 -53 -188 -80c69 -35 191 -90 259 -118v-35c0 -44 -39 -58 -75 -58c-45 0 -256 105 -361 180v21c0 36 19 56 55 78c67 39 271 129 385 164v-58z" />
    <glyph glyph-name="greater" unicode="&#x3e;" horiz-adv-x="580" 
d="M80 434v58c113 -35 318 -124 385 -164h-1c36 -21 56 -43 56 -78v-21c-105 -75 -317 -180 -360 -180c-39 0 -77 14 -77 58v35c69 28 190 83 259 118c-62 28 -156 68 -188 80c-54 21 -74 54 -74 94z" />
    <glyph glyph-name="plusminus" unicode="&#xb1;" horiz-adv-x="514" 
d="M464 323c0 -34 -25 -61 -67 -61h-80v-131h-49c-33 0 -63 25 -63 74v57h-152v50c0 31 29 60 66 60h86v116h56c27 0 56 -24 56 -61v-55h147v-49zM450 47c0 -22 -23 -47 -55 -47h-331v47c0 29 21 53 61 53h325v-53z" />
    <glyph glyph-name="logicalnot" unicode="&#xac;" horiz-adv-x="567" 
d="M507 396v-324h-135v188h-332v136h467z" />
    <glyph glyph-name="comma.arabic" unicode="&#x60c;" horiz-adv-x="280" 
d="M40 104c0 77 56 151 125 151h35c-21 -45 -36 -81 -36 -101c0 -15 7 -23 14 -31c10 -13 20 -25 20 -50c0 -41 -32 -73 -76 -73c-49 0 -82 36 -82 104z" />
    <glyph glyph-name="uni0615" unicode="&#x615;" 
d="M-109 35v22h24c1 38 0 94 0 127v26h21c26 0 37 -8 37 -35v-48c17 16 40 28 64 28c60 0 81 -60 81 -103c0 -31 -11 -52 -30 -52h-158c-28 0 -39 12 -39 35zM29 93c-21 0 -36 -19 -44 -36h75c-1 17 -6 36 -31 36z" />
    <glyph glyph-name="semicolon.arabic" unicode="&#x61b;" horiz-adv-x="247" 
d="M60 299c0 68 50 132 110 132h47c-30 -30 -49 -71 -49 -88c0 -14 5 -22 12 -29c8 -11 18 -23 18 -44c0 -35 -30 -64 -66 -64c-44 0 -72 32 -72 93zM132 4c-35 0 -63 30 -63 63c0 35 28 64 63 64c33 0 63 -29 63 -64c0 -33 -30 -63 -63 -63z" />
    <glyph glyph-name="questionmark.arabic" unicode="&#x61f;" horiz-adv-x="462" 
d="M43 463c0 89 68 166 196 166c120 0 175 -68 175 -132v-54c-53 36 -98 57 -158 57c-47 0 -71 -18 -71 -49c0 -12 9 -29 20 -40c20 -16 41 -34 61 -50c46 -38 61 -62 61 -108c0 -36 -34 -64 -66 -64h-54v44c0 25 -4 26 -32 50v-1c-23 19 -45 38 -68 57
c-49 42 -64 75 -64 124zM346 87c0 -47 -39 -87 -86 -87c-48 0 -88 40 -88 87c0 48 40 87 88 87c47 0 86 -39 86 -87z" />
    <glyph glyph-name="kashida" unicode="&#x640;" horiz-adv-x="115" 
d="M-12 0v123h151v-123h-151z" />
    <glyph glyph-name="madda" unicode="&#x653;" 
d="M98 91v-34c0 -23 -16 -57 -49 -57h-139v47c0 20 16 44 40 44h148z" />
    <glyph glyph-name="hamza_above" unicode="&#x654;" 
d="M-1 52h90v-25c0 -13 -11 -27 -30 -27h-119c-17 0 -28 14 -28 27v25h29c-1 4 -1 10 -1 17v7c0 45 27 79 73 79c29 0 58 -13 65 -46c0 -20 -4 -36 -22 -48c-15 50 -37 48 -46 48c-13 0 -17 -13 -17 -30c0 -11 1 -22 6 -27z" />
    <glyph glyph-name="hamza_below" unicode="&#x655;" 
d="M5 -103h90v-25c0 -13 -11 -27 -30 -27h-119c-17 0 -28 14 -28 27v25h29c-1 4 -1 10 -1 17v7c0 45 27 79 73 79c29 0 58 -13 65 -46c0 -20 -4 -36 -22 -48c-15 50 -37 48 -46 48c-13 0 -17 -13 -17 -30c0 -11 1 -22 6 -27z" />
    <glyph glyph-name="alef_subscript" unicode="&#x656;" 
d="M-46 -180v208h93v-192z" />
    <glyph glyph-name="uni0658" unicode="&#x658;" horiz-adv-x="400" 
d="M240 891h86c0 -82 -41 -156 -134 -156s-130 75 -130 156h86c0 -35 15 -64 45 -64c29 0 47 23 47 64z" />
    <glyph glyph-name="zero.indic" unicode="&#x660;" horiz-adv-x="269" 
d="M141 220c-42 0 -76 35 -76 76s34 76 76 76c43 0 78 -35 78 -76s-35 -76 -78 -76z" />
    <glyph glyph-name="one.indic" unicode="&#x661;" horiz-adv-x="251" 
d="M186 0h-56c-42 0 -80 27 -80 86v522c96 0 136 -47 136 -52v-556z" />
    <glyph glyph-name="two.indic" unicode="&#x662;" horiz-adv-x="581" 
d="M448 461h-231c-29 0 -31 -22 -31 -43v-349c0 -42 -40 -69 -75 -69h-61v423c0 97 57 171 174 175h292v-63c0 -34 -27 -74 -68 -74z" />
    <glyph glyph-name="three.indic" unicode="&#x663;" horiz-adv-x="717" 
d="M563 608c58 0 89 -29 89 -88v-146c0 -97 -58 -171 -184 -175c-6 0 -68 2 -117 32c-35 -25 -76 -32 -138 -32h-27v-199h-46c-59 0 -89 30 -89 88l-1 520h19c28 1 117 5 117 -69v-218h48c36 4 49 23 49 58v229h48c58 0 88 -30 88 -88v-134c0 -18 -2 -36 -5 -50
c10 -10 25 -15 41 -15c46 4 59 24 59 58v229h49z" />
    <glyph glyph-name="four.indic" unicode="&#x664;" horiz-adv-x="523" 
d="M373 0h-115c-135 0 -200 72 -200 178c0 48 13 94 26 122c-15 27 -34 75 -34 133c0 86 48 178 208 178h200v-46c0 -55 -23 -78 -85 -78h-146c-20 -1 -53 -1 -53 -36c0 -22 6 -63 16 -89h244v-45c0 -57 -25 -78 -84 -78h-163c-9 -17 -13 -34 -13 -50c0 -46 17 -66 53 -66
h231v-47c0 -52 -22 -76 -85 -76z" />
    <glyph glyph-name="five.indic" unicode="&#x665;" horiz-adv-x="631" 
d="M50 281c0 161 243 313 264 326c20 -13 252 -165 252 -308c0 -166 -84 -299 -265 -299c-168 0 -251 133 -251 281zM415 280c0 96 -91 166 -115 182c-15 -9 -100 -77 -100 -161c0 -109 27 -174 114 -174c77 0 101 65 101 153z" />
    <glyph glyph-name="six.indic" unicode="&#x666;" horiz-adv-x="581" 
d="M350 470h-231c-42 0 -69 40 -69 75v62h291c118 -4 175 -77 175 -174v-433h-61c-35 0 -74 27 -74 69v358c0 22 -3 43 -31 43z" />
    <glyph glyph-name="seven.indic" unicode="&#x667;" horiz-adv-x="573" 
d="M362 74c-14 -49 -48 -74 -82 -74c-35 0 -70 26 -84 74c-28 98 -57 197 -85 297c-19 69 -42 150 -61 217c62 19 70 20 77 20c28 0 64 -23 76 -64l77 -264c24 87 50 177 74 264c12 45 43 64 77 64c16 0 34 -7 50 -11c3 -2 7 -3 27 -7z" />
    <glyph glyph-name="eight.indic" unicode="&#x668;" horiz-adv-x="573" 
d="M362 534l146 -515l-54 -16c-8 -3 -16 -4 -23 -4c-33 0 -65 19 -77 64c-29 104 -46 161 -75 265c-8 -26 -16 -56 -24 -83c-18 -63 -36 -128 -52 -183c-15 -40 -46 -63 -76 -63c-15 0 -33 7 -49 11c-6 2 -23 7 -28 9c26 88 55 193 81 285c22 78 43 156 65 230
c14 48 49 74 83 74s69 -26 83 -74z" />
    <glyph glyph-name="nine.indic" unicode="&#x669;" horiz-adv-x="518" 
d="M417 0c-63 0 -86 29 -86 84v105c-121 3 -281 28 -281 209c0 121 71 221 203 221c145 0 200 -123 200 -239l-1 -380h-35zM171 410c0 -97 91 -97 151 -97h10v54c0 72 -9 145 -87 145c-49 0 -74 -43 -74 -102z" />
    <glyph glyph-name="percentsign.arabic" unicode="&#x66a;" horiz-adv-x="509" 
d="M422 519l-246 -519h-30c-36 0 -61 19 -61 58c0 20 5 32 15 52c75 160 161 339 237 498h38c29 0 54 -17 54 -51c0 -14 -2 -27 -7 -38zM137 461c-39 0 -67 31 -67 69c0 39 28 67 67 67c37 0 69 -28 69 -67c0 -38 -32 -69 -69 -69zM360 0c-39 0 -67 31 -67 69
c0 39 28 67 67 67c37 0 69 -28 69 -67c0 -38 -32 -69 -69 -69z" />
    <glyph glyph-name="decimal.arabic" unicode="&#x66b;" horiz-adv-x="230" 
d="M177 45c0 -77 -56 -151 -125 -151h-35v25c21 20 36 56 36 76c0 15 -8 23 -14 31c-11 13 -20 25 -20 50c0 41 32 73 76 73c49 0 82 -36 82 -104z" />
    <glyph glyph-name="thousands.arabic" unicode="&#x66c;" horiz-adv-x="230" 
d="M177 445c0 -77 -56 -151 -125 -151h-35v25c21 19 36 55 36 76c0 15 -8 23 -14 31c-11 12 -20 25 -20 50c0 41 32 73 76 73c49 0 82 -36 82 -104z" />
    <glyph glyph-name="fivept_star.arabic" unicode="&#x66d;" horiz-adv-x="604" 
d="M209 26l-83 64l93 115c-46 12 -101 28 -144 38l34 100l131 -55v150h105l-10 -150c44 18 96 39 137 55l37 -100l-147 -37c31 -38 64 -79 93 -116l-83 -63l-81 129c-26 -41 -57 -91 -82 -130z" />
    <glyph glyph-name="alef_superscript" unicode="&#x670;" 
d="M38 0h-31c-23 0 -49 20 -49 52v193h31c23 0 49 -17 49 -48v-197z" />
    <glyph glyph-name="uni06C3" unicode="&#x6c3;" horiz-adv-x="494" 
d="M263 429c124 0 196 -99 196 -208c0 -123 -71 -221 -204 -221c-125 0 -195 98 -195 208c0 122 70 221 203 221zM255 321c-49 0 -74 -42 -74 -100c0 -72 25 -114 82 -114c50 0 74 42 74 101c0 71 -26 113 -82 113zM333 471c-36 0 -62 28 -62 62c0 35 26 61 62 61
c33 0 61 -26 61 -61c0 -34 -28 -62 -61 -62zM195 471c-36 0 -63 28 -63 62c0 35 27 61 63 61c33 0 63 -26 63 -61c0 -34 -30 -62 -63 -62z" />
    <glyph glyph-name="arabicae" unicode="&#x6d5;" horiz-adv-x="494" 
d="M263 429c124 0 196 -99 196 -208c0 -123 -71 -221 -204 -221c-125 0 -195 98 -195 208c0 122 70 221 203 221zM255 321c-49 0 -74 -42 -74 -100c0 -72 25 -114 82 -114c50 0 74 42 74 101c0 71 -26 113 -82 113z" />
    <glyph glyph-name="zero_ext.indic" unicode="&#x6f0;" horiz-adv-x="268" 
d="M141 219c-42 0 -76 35 -76 76c0 42 34 76 76 76c43 0 77 -34 77 -76c0 -41 -34 -76 -77 -76z" />
    <glyph glyph-name="one_ext.indic" unicode="&#x6f1;" horiz-adv-x="251" 
d="M186 0h-56c-42 0 -80 27 -80 86v522c96 0 136 -47 136 -52v-556z" />
    <glyph glyph-name="two_ext.indic" unicode="&#x6f2;" horiz-adv-x="581" 
d="M448 471h-231c-29 0 -31 -21 -31 -43v-359c0 -42 -40 -69 -75 -69h-61v434c0 97 57 170 174 174h292v-62c0 -35 -27 -75 -68 -75z" />
    <glyph glyph-name="three_ext.indic" unicode="&#x6f3;" horiz-adv-x="717" 
d="M563 608c58 0 89 -29 89 -88v-135c0 -97 -58 -181 -184 -185c-6 0 -68 2 -117 32c-35 -25 -76 -32 -138 -32h-27v-200h-46c-59 0 -89 30 -89 88l-1 520h19c28 1 117 5 117 -69v-217h48c36 4 49 23 49 58v228h48c58 0 88 -30 88 -88v-133c0 -18 -2 -36 -5 -50
c10 -10 25 -15 41 -15c46 4 59 24 59 58v228h49z" />
    <glyph glyph-name="four_ext.indic" unicode="&#x6f4;" horiz-adv-x="523" 
d="M373 0h-115c-135 0 -200 72 -200 178c0 48 13 94 26 122c-15 27 -34 75 -34 133c0 86 48 178 208 178h200v-46c0 -55 -23 -78 -85 -78h-146c-20 -1 -53 -1 -53 -36c0 -22 6 -63 16 -89h244v-45c0 -57 -25 -78 -84 -78h-163c-9 -17 -13 -34 -13 -50c0 -46 17 -66 53 -66
h231v-47c0 -52 -22 -76 -85 -76z" />
    <glyph glyph-name="five_ext.indic" unicode="&#x6f5;" horiz-adv-x="631" 
d="M50 281c0 161 243 313 264 326c20 -13 252 -165 252 -308c0 -166 -84 -299 -265 -299c-168 0 -251 133 -251 281zM415 280c0 96 -91 166 -115 182c-15 -9 -100 -77 -100 -161c0 -109 27 -174 114 -174c77 0 101 65 101 153z" />
    <glyph glyph-name="six_ext.indic" unicode="&#x6f6;" horiz-adv-x="581" 
d="M350 470h-231c-42 0 -69 40 -69 75v62h291c118 -4 175 -77 175 -174v-433h-61c-35 0 -74 27 -74 69v358c0 22 -3 43 -31 43z" />
    <glyph glyph-name="seven_ext.indic" unicode="&#x6f7;" horiz-adv-x="573" 
d="M362 74c-14 -49 -48 -74 -82 -74c-35 0 -70 26 -84 74c-28 98 -57 197 -85 297c-19 69 -42 150 -61 217c62 19 70 20 77 20c28 0 64 -23 76 -64l77 -264c24 87 50 177 74 264c12 45 43 64 77 64c26 0 51 -12 77 -18z" />
    <glyph glyph-name="eight_ext.indic" unicode="&#x6f8;" horiz-adv-x="573" 
d="M362 534l146 -515c-62 -19 -70 -20 -77 -20c-33 0 -65 19 -77 64c-29 104 -46 161 -75 265c-8 -26 -16 -56 -24 -83c-18 -63 -36 -128 -52 -183c-15 -40 -46 -63 -76 -63c-15 0 -33 7 -49 11c-6 2 -23 7 -28 9c26 88 55 193 81 285c22 78 43 156 65 230
c14 48 49 74 83 74s69 -26 83 -74z" />
    <glyph glyph-name="nine_ext.indic" unicode="&#x6f9;" horiz-adv-x="518" 
d="M417 0c-63 0 -86 29 -86 84v105c-121 2 -281 27 -281 208c0 121 71 221 203 221c145 0 200 -123 200 -239v-379h-36zM171 409c0 -97 91 -97 151 -97h10v54c0 72 -9 145 -87 145c-49 0 -74 -43 -74 -102z" />
    <glyph glyph-name="parenthesis_left_ornate" unicode="&#xfd3e;" horiz-adv-x="405" 
d="M209 281c0 -196 83 -351 178 -440c-120 2 -164 15 -188 34c-64 51 -146 213 -146 387c0 234 117 437 233 437h99c-97 -102 -176 -237 -176 -418z" />
    <glyph glyph-name="parenthesis_right_ornate" unicode="&#xfd3f;" horiz-adv-x="406" 
d="M197 259c0 196 -83 351 -179 440c121 -1 164 -15 189 -33c64 -51 146 -214 146 -388c0 -234 -118 -437 -234 -437h-99c97 102 177 237 177 418z" />
    <glyph glyph-name="wasla" 
d="M-109 35v23h25v77h21c16 0 26 -4 32 -12c18 20 41 33 68 33c61 0 81 -61 81 -103c0 -31 -10 -53 -30 -53h-157c-28 0 -40 13 -40 35zM30 94c-21 0 -36 -19 -44 -36h75c-1 17 -7 36 -31 36z" />
    <glyph glyph-name="hamza_medial" 
d="M-233 123h59c-11 25 -16 55 -16 85c0 122 71 222 204 222c71 0 156 -36 171 -124c0 -18 -3 -35 -11 -51l-29 -67c-36 116 -109 134 -139 134c-48 0 -73 -43 -73 -101c0 -48 9 -80 33 -98h252v-57c0 -30 -28 -66 -69 -66h-313c-42 0 -69 36 -69 66v57z" />
    <glyph glyph-name="xx.TahAbove" 
d="M-109 35v22h24c1 38 0 94 0 127v26h21c26 0 37 -8 37 -35v-48c17 16 40 28 64 28c60 0 81 -60 81 -103c0 -31 -11 -52 -30 -52h-158c-28 0 -39 12 -39 35zM29 93c-21 0 -36 -19 -44 -36h75c-1 17 -6 36 -31 36z" />
    <glyph glyph-name="shadda_fathatan" 
d="M-110 146l6 -80c1 -13 7 -17 12 -17s8 3 8 14c0 13 -3 33 -3 48c0 29 10 34 32 35h18l7 -82c1 -8 4 -15 12 -15c6 0 8 6 8 17c-1 15 -4 31 -4 46c0 31 22 37 49 28l8 -79c2 -23 -14 -61 -57 -61c-11 0 -24 1 -40 12c-8 -7 -21 -10 -33 -10c-37 0 -61 25 -66 65
c-2 16 -5 33 -5 50s12 31 48 29zM33 207l1 -27c-55 -2 -102 -6 -154 -8c-28 -2 -28 36 -28 54c44 1 106 6 150 7c22 1 30 -12 31 -26zM33 278l1 -27c-55 -2 -102 -6 -154 -8c-28 -2 -28 36 -28 54c44 1 106 6 150 7c22 1 30 -12 31 -26z" />
    <glyph glyph-name="hamza_above_damma" 
d="M-1 52h90v-25c0 -13 -11 -27 -30 -27h-119c-17 0 -28 14 -28 27v25h29c-1 4 -1 10 -1 17v7c0 45 27 79 73 79c29 0 58 -13 65 -46c0 -20 -4 -36 -22 -48c-15 50 -37 48 -46 48c-13 0 -17 -13 -17 -30c0 -11 1 -22 6 -27zM11 244c10 2 13 12 13 25c0 17 -8 27 -18 27
s-15 -11 -15 -25c0 -17 9 -27 20 -27zM8 342c37 0 68 -26 68 -67c0 -99 -142 -102 -189 -103c-25 0 -27 15 -30 46l33 1c18 1 43 2 63 6c-9 12 -12 27 -12 42c0 43 28 75 67 75z" />
    <glyph glyph-name="hamza_above_sukun" 
d="M-1 52h90v-25c0 -13 -11 -27 -30 -27h-119c-17 0 -28 14 -28 27v25h29c-1 4 -1 10 -1 17v7c0 45 27 79 73 79c29 0 58 -13 65 -46c0 -20 -4 -36 -22 -48c-15 50 -37 48 -46 48c-13 0 -17 -13 -17 -30c0 -11 1 -22 6 -27zM4 341c52 0 77 -43 77 -83c0 -48 -40 -86 -85 -86
c-52 0 -76 46 -76 84c0 52 38 85 84 85zM1 289c-16 -2 -23 -18 -23 -36c0 -19 8 -30 22 -30c15 0 21 19 21 40c0 15 -7 24 -20 26z" />
    <glyph glyph-name="hamza_above_fathatan" 
d="M-1 52h90v-25c0 -13 -11 -27 -30 -27h-119c-17 0 -28 14 -28 27v25h29c-1 4 -1 10 -1 17v7c0 45 27 79 73 79c29 0 58 -13 65 -46c0 -20 -4 -36 -22 -48c-15 50 -37 48 -46 48c-13 0 -17 -13 -17 -30c0 -11 1 -22 6 -27zM90 207l1 -27c-55 -2 -102 -6 -154 -8
c-28 -2 -28 36 -28 54c44 1 106 6 150 7c22 1 30 -12 31 -26zM90 278l1 -27c-55 -2 -102 -6 -154 -8c-28 -2 -28 36 -28 54c44 1 106 6 150 7c22 1 30 -12 31 -26z" />
    <glyph glyph-name="hamza_above_dammatan" 
d="M-1 52h90v-25c0 -13 -11 -27 -30 -27h-119c-17 0 -28 14 -28 27v25h29c-1 4 -1 10 -1 17v7c0 45 27 79 73 79c29 0 58 -13 65 -46c0 -20 -4 -36 -22 -48c-15 50 -37 48 -46 48c-13 0 -17 -13 -17 -30c0 -11 1 -22 6 -27zM64 342c37 0 68 -27 68 -68
c0 -99 -164 -102 -198 -102c-23 0 -29 13 -32 46h17c6 3 13 16 13 29c0 11 -8 19 -22 19c-7 0 -15 -14 -21 -25c-20 20 -20 32 -20 39c0 18 18 34 46 34c46 0 69 -35 69 -68c0 -8 -1 -15 -4 -24c4 1 21 2 29 4c-7 11 -14 28 -14 41c0 43 32 75 69 75zM66 245
c10 1 15 10 15 23c0 16 -8 27 -20 27c-10 0 -15 -11 -15 -23c0 -16 9 -27 20 -27z" />
    <glyph glyph-name="hamza_above_fatha" 
d="M-1 52h90v-25c0 -13 -11 -27 -30 -27h-119c-17 0 -28 14 -28 27v25h29c-1 4 -1 10 -1 17v7c0 45 27 79 73 79c29 0 58 -13 65 -46c0 -20 -4 -36 -22 -48c-15 50 -37 48 -46 48c-13 0 -17 -13 -17 -30c0 -11 1 -22 6 -27zM90 207l1 -27c-55 -2 -102 -6 -154 -8
c-28 -2 -28 36 -28 54c44 1 106 6 150 7c22 1 30 -12 31 -26z" />
    <glyph glyph-name="hamza_below_kasratan" 
d="M90 -267l1 -27c-55 -2 -102 -6 -154 -8c-28 -2 -28 36 -28 54c44 1 106 6 150 7c22 1 30 -12 31 -26zM90 -196l1 -27c-55 -2 -102 -6 -154 -8c-28 -2 -28 36 -28 54c44 1 106 6 150 7c22 1 30 -12 31 -26zM-1 -103h90v-25c0 -13 -11 -27 -30 -27h-119
c-17 0 -28 14 -28 27v25h29c-1 4 -1 10 -1 17v7c0 45 27 79 73 79c29 0 58 -13 65 -46c0 -20 -4 -36 -22 -48c-15 50 -37 48 -46 48c-13 0 -17 -13 -17 -30c0 -11 1 -22 6 -27z" />
    <glyph glyph-name="hamza_below_kasra" 
d="M-1 -103h90v-25c0 -13 -11 -27 -30 -27h-119c-17 0 -28 14 -28 27v25h29c-1 4 -1 10 -1 17v7c0 45 27 79 73 79c29 0 58 -13 65 -46c0 -20 -4 -36 -22 -48c-15 50 -37 48 -46 48c-13 0 -17 -13 -17 -30c0 -11 1 -22 6 -27zM90 -196l1 -27c-55 -2 -102 -6 -154 -8
c-28 -2 -28 36 -28 54c44 1 106 6 150 7c22 1 30 -12 31 -26z" />
    <glyph glyph-name="wasle" horiz-adv-x="103" 
d="M-12 0v123h138v-123h-138z" />
    <glyph glyph-name="Kashida.Narrow" horiz-adv-x="189" 
d="M-12 0v124h228v-124h-228z" />
    <glyph glyph-name="kashida.long" horiz-adv-x="209" 
d="M-12 0v123h227v-123h-227z" />
    <glyph glyph-name="tooth.init" horiz-adv-x="304" 
d="M178 349c57 0 86 -30 86 -89v-86c0 -96 -56 -170 -173 -174h-101v123h91c34 3 48 22 48 57v169h49z" />
    <glyph glyph-name="tooth.init.long" horiz-adv-x="304" 
d="M178 349c57 0 86 -30 86 -89v-86c0 -96 -56 -170 -173 -174h-101v123h91c34 3 48 22 48 57v169h49z" />
    <glyph glyph-name="logo.001" unicode="&#xfb;" horiz-adv-x="1492" 
d="M1408 188c-31 0 -43 -9 -43 -23c0 -9 8 -14 47 -22c44 -9 70 -33 70 -66c0 -49 -39 -76 -93 -76c-42 0 -72 20 -72 51l2 33c18 -20 46 -36 71 -36c28 0 39 8 39 25c0 13 -9 18 -51 27c-43 9 -65 26 -65 62c0 39 33 75 92 75c36 0 72 -16 72 -48v-23c-24 11 -45 21 -69 21
zM1223 194c13 14 20 26 20 38c0 15 -22 21 -22 43c0 19 12 34 36 34c19 0 37 -16 37 -52c0 -38 -21 -65 -55 -65c-5 0 -10 1 -16 2zM1130 39v254h24c13 0 28 -11 28 -26v-263h-21c-19 0 -31 12 -31 35zM968 4h-24c-52 0 -77 25 -77 65v217c18 5 47 8 68 8h34
c70 0 129 -56 129 -143c0 -89 -53 -147 -130 -147zM961 247h-16c-6 0 -17 -1 -26 -3v-165c0 -20 10 -28 31 -28h16c51 0 80 38 80 94c0 71 -31 102 -85 102zM779 42c0 35 -5 119 -12 174c-1 -8 -8 -24 -8 -28l-3 -9c-13 -40 -28 -81 -43 -121c-3 -8 -1 -10 -25 -54h-11
c-13 0 -32 19 -53 78c-19 63 -45 135 -45 135c-11 -70 -12 -157 -13 -213h-19c-18 0 -33 14 -33 38c0 76 15 190 26 251h21c48 0 65 -54 75 -88l13 -43c6 -14 11 -28 15 -42v1c4 -16 9 -27 10 -29c3 8 4 21 10 29h-1c19 58 52 139 75 172h14c30 0 41 -23 46 -57
c6 -69 13 -168 14 -232h-22c-20 0 -31 12 -31 38zM483 4c-39 0 -33 38 -43 73h-115c-6 -20 -12 -49 -17 -73h-20c-15 0 -24 10 -24 26c0 38 56 210 100 263h16c40 0 103 -137 127 -289h-24zM427 121c-13 44 -28 81 -45 116c-19 -35 -33 -72 -45 -116h90zM198 39v92h-122
v-127h-22c-14 0 -30 12 -30 35v254h26c12 0 26 -11 26 -26v-88h122v114h25c14 0 27 -11 27 -26v-263h-20c-14 0 -32 12 -32 35zM212 346h-29c-56 0 -85 25 -85 72v207c16 4 55 14 80 14h33c58 0 97 -32 97 -81c0 -29 -9 -48 -30 -59c19 -13 35 -38 35 -59
c0 -62 -46 -94 -101 -94zM202 527c21 0 36 8 36 26s-17 24 -34 24h-21s-11 -1 -16 -1v-49h35zM204 469h-37v-47c0 -7 7 -10 16 -10h24c24 0 36 10 36 25c0 25 -12 32 -39 32zM0 391v246h33c17 0 37 -14 37 -38v-251h-29c-18 0 -41 15 -41 43zM1420 391c0 26 -2 91 -7 133
c0 -2 -1 -5 -1 -6c-9 -24 -15 -50 -25 -73l-13 -45c-5 -18 -18 -38 -28 -52h-18c-22 0 -40 15 -52 47l-40 122c-2 1 -2 0 -3 5c-5 -51 -8 -134 -8 -174h-26c-27 0 -43 15 -43 43c0 61 14 188 23 246h19c41 0 69 -17 83 -50l37 -109c4 -10 6 -17 9 -23c0 4 3 8 4 13
c26 80 51 152 73 169h12c33 0 57 -24 62 -63c5 -45 14 -167 14 -226h-29c-26 0 -43 13 -43 43zM1065 391v246h31c18 0 37 -14 37 -38v-251h-27c-20 0 -41 15 -41 43zM966 392v74h-95v-118h-28c-24 0 -41 15 -41 44v245h35c20 0 33 -16 33 -37v-74h96v111h34
c17 0 37 -14 37 -37v-252h-30c-21 0 -41 15 -41 44zM722 380c-1 17 -3 26 -6 37h-97c-5 -16 -14 -52 -14 -69h-27c-24 0 -33 11 -33 33c0 41 53 207 98 256h25c25 0 42 -14 51 -30c25 -46 68 -169 78 -259h-30c-28 0 -43 15 -45 32zM700 475c-9 32 -22 64 -32 88
c-12 -24 -25 -58 -34 -88h66zM514 444l24 -52l-1 1c9 -19 16 -27 17 -34c-8 -10 -14 -14 -35 -14c-63 0 -60 109 -99 109l-20 3v-109h-24c-30 0 -45 16 -45 44v235c11 7 56 13 78 13h31c59 0 98 -37 98 -88c0 -33 -21 -63 -45 -76c9 -8 15 -19 21 -32zM466 543
c0 28 -14 34 -33 34h-16s-12 -1 -17 -1v-61c10 -1 22 -1 32 -1c18 0 34 11 34 29z" />
    <glyph glyph-name="logo" horiz-adv-x="1245" 
 />
    </font>
</defs>
</svg>
