<svg xmlns="http://www.w3.org/2000/svg" viewBox="0 0 31.77 42.24"><defs><style>.cls-1{fill:#232020;}</style></defs><g id="Layer_2" data-name="Layer 2"><g id="Layer_2-2" data-name="Layer 2"><path class="cls-1" d="M13.06,20.73A10.37,10.37,0,1,1,23.42,10.36,10.38,10.38,0,0,1,13.06,20.73Zm0-19.56a9.2,9.2,0,1,0,9.19,9.19A9.21,9.21,0,0,0,13.06,1.17Z"/><path class="cls-1" d="M18.45,42.24H.59A.59.59,0,0,1,0,41.65V32.86a13.31,13.31,0,0,1,25.19-6,.58.58,0,1,1-1,.52,12.14,12.14,0,0,0-23,5.46v8.2H18.45a.59.59,0,0,1,0,1.18Z"/><path class="cls-1" d="M31.19,37.07H20.86a.58.58,0,0,1-.58-.58.59.59,0,0,1,.58-.59H31.19a.59.59,0,0,1,.58.59A.58.58,0,0,1,31.19,37.07Z"/><path class="cls-1" d="M26,42.24a.59.59,0,0,1-.59-.59V31.33a.59.59,0,1,1,1.17,0V41.65A.59.59,0,0,1,26,42.24Z"/></g></g></svg>