<svg xmlns="http://www.w3.org/2000/svg" viewBox="0 0 42.23 42.27"><g id="Layer_2" data-name="Layer 2"><g id="Layer_2-2" data-name="Layer 2"><path d="M42.22,16.6a.78.78,0,0,0-.27-.51c-1.56-1.13-3.28-2.35-5.24-3.73a.85.85,0,0,1-.4-.78c0-2.91,0-5.83,0-8.75v-2c0-.69-.17-.87-.86-.87H6.68C6,0,5.83.17,5.83.84v2q0,4.41,0,8.82a.8.8,0,0,1-.37.71c-1.11.77-2.21,1.55-3.31,2.34L.38,16a.77.77,0,0,0-.38.69q0,10.59,0,21.2v3.38a.91.91,0,0,1,0,.17v.3c0,.26.1.38.31.41l.27,0a2.4,2.4,0,0,0,.52.07H41.46c.35,0,.53,0,.63-.14s.14-.29.14-.63C42.23,33.56,42.24,25,42.22,16.6Zm-5.89-3,4.23,3-4.23,3ZM7.05,6.77V1.68a1.79,1.79,0,0,1,0-.23s0-.07,0-.11V1.23h28v3.6c0,5.07,0,10.13,0,15.19a.8.8,0,0,1-.37.75q-2.2,1.55-4.39,3.12L28.8,25l-.25.17-.21.14-.07-.12A.91.91,0,0,1,28.2,25a2.32,2.32,0,0,0-.14-.23.58.58,0,0,1,.05-.81,7.17,7.17,0,0,0,.52-.71l.06-.08a.58.58,0,0,0-.05-.84c-.46-.48-.94-1-1.47-1.48a.61.61,0,0,0-.85,0l-.76.54-.35.25-.57-.22c-.44-.17-.86-.34-1.28-.49a.52.52,0,0,1-.41-.48c0-.32-.09-.65-.15-1v-.07a.62.62,0,0,0-.69-.59c-.67,0-1.35,0-2,0a.61.61,0,0,0-.67.57c0,.13,0,.27-.05.42a1.73,1.73,0,0,1-.25.92,1.53,1.53,0,0,1-.81.41,4,4,0,0,0-.41.13q-.25.11-.51.24l-.28.13-.07,0-.39-.29L16,20.9a.66.66,0,0,0-1,.08l-.06.06c-.42.42-.84.83-1.25,1.26a.61.61,0,0,0-.07,1l.29.4.06.08c.48.66.48.72,0,1.43l-.07.11-.66-.47L12,24l-1.74-1.24-2.86-2a.67.67,0,0,1-.34-.61ZM26.68,32.93c.16.21.3.42.45.64s.13.19.19.28l.06.09-.77.76-.4-.27L25.58,34a.81.81,0,0,0-.93,0,15.62,15.62,0,0,1-2.11.89c-.58.21-.66.26-.75.84,0,.22-.07.44-.11.66l-.08.44h-1l0-.11c0-.1,0-.21-.05-.32q-.07-.39-.12-.78a.68.68,0,0,0-.6-.68,6.53,6.53,0,0,1-2.36-1,.63.63,0,0,0-.75,0l-.68.47-.43.29-.74-.78.27-.38.46-.65a.77.77,0,0,0,0-.9,21,21,0,0,1-.93-2.26.78.78,0,0,0-.69-.62L13.14,29l-.41-.06V27.86l1.34-.26a.63.63,0,0,0,.54-.55,6,6,0,0,1,1-2.25.68.68,0,0,0,0-.9l-.47-.64-.27-.38.78-.75.09.06c.3.21.62.44.93.68a.78.78,0,0,0,.87,0c.74-.36,1.49-.67,2.21-.94.51-.18.61-.25.68-.76l.12-.72.06-.34,0,0a.23.23,0,0,1,.14-.07c.85-.08.91,0,1.05.79,0,.14,0,.27,0,.4,0,.38.23.58.71.75a22.61,22.61,0,0,1,2.26.92.7.7,0,0,0,.79,0l1.08-.77.77.76-.29.38c-.16.21-.32.43-.49.64a.64.64,0,0,0-.05.86,6.28,6.28,0,0,1,1,2.33.67.67,0,0,0,.65.58l1.23.19v1.09l-.16,0-1,.15c-.48.08-.57.21-.74.71a16.27,16.27,0,0,1-.9,2.16A.79.79,0,0,0,26.68,32.93ZM5.81,13.62v6l-4.18-3Zm-4.6,4.17,12.21,8.69-.66.12-.69.12a.61.61,0,0,0-.59.7c0,.68,0,1.34,0,2a.6.6,0,0,0,.57.68q.45.09,1,.15a.62.62,0,0,1,.63.51,2.75,2.75,0,0,0,.14.4l.09.22,0,.09-.08,0-12.62,9ZM2.52,41l11.22-8-.17.4c-.28.65-.26.76.2,1.22l.29.29.88.88a.65.65,0,0,0,1,.07l.33-.23.74-.53.06,0,.54.21c.43.18.84.34,1.25.48a.52.52,0,0,1,.4.49q.06.53.18,1.08a.58.58,0,0,0,.64.54H22.1a.6.6,0,0,0,.65-.58,1.89,1.89,0,0,1,.05-.23,3.4,3.4,0,0,0,.08-.53.8.8,0,0,1,.68-.85,8.35,8.35,0,0,0,1.07-.41l.49-.2.06,0,.34.25.7.51a.65.65,0,0,0,1-.07l1.1-1.1.16-.16c.4-.4.43-.5.16-1.15L28.45,33l11.23,8ZM41,40.44l-12.64-9,0-.08a2.17,2.17,0,0,0,.07-.24,5.84,5.84,0,0,1,.2-.59.53.53,0,0,1,.37-.28,5.59,5.59,0,0,1,.59-.11,5.07,5.07,0,0,0,.54-.09.59.59,0,0,0,.56-.67c0-.64,0-1.31,0-2,0-.42-.16-.6-.59-.69l-.65-.11-.69-.12L41,17.8Z"/><path d="M21.12,23.31h-.05a5,5,0,0,0-5,5.1A5.11,5.11,0,0,0,17.58,32a5.05,5.05,0,0,0,3.55,1.47,5.11,5.11,0,0,0,3.52-8.73A5,5,0,0,0,21.12,23.31Zm0,8.89h0a3.8,3.8,0,0,1-3.83-3.84,3.84,3.84,0,0,1,3.86-3.82,3.83,3.83,0,1,1,0,7.66Z"/></g></g></svg>