<svg xmlns="http://www.w3.org/2000/svg" viewBox="0 0 42.96 42.23"><defs><style>.cls-1{fill:#222020;}</style></defs><g id="Layer_2" data-name="Layer 2"><g id="Layer_2-2" data-name="Layer 2"><path class="cls-1" d="M21.48,21.48a.48.48,0,0,1-.26-.07L.32,10.9A.59.59,0,0,1,0,10.37a.56.56,0,0,1,.34-.52L21.23.06a.55.55,0,0,1,.5,0l20.9,9.79a.56.56,0,0,1,.33.52.57.57,0,0,1-.32.53L21.75,21.41A.54.54,0,0,1,21.48,21.48ZM1.93,10.4l19.55,9.84L41,10.4,21.48,1.23Z"/><path class="cls-1" d="M21.48,28.19a.58.58,0,0,1-.26-.06L.32,17.62A.59.59,0,0,1,0,17.09a.58.58,0,0,1,.34-.53l4.48-2.1a.59.59,0,0,1,.78.29.58.58,0,0,1-.29.77L1.93,17.11,21.48,27,41,17.11,37.59,15.5a.58.58,0,0,1-.28-.78.57.57,0,0,1,.77-.28l4.55,2.12a.59.59,0,0,1,.33.53.57.57,0,0,1-.32.53L21.75,28.13A.66.66,0,0,1,21.48,28.19Z"/><path class="cls-1" d="M21.48,34.85a.48.48,0,0,1-.26-.07L.32,24.27A.59.59,0,0,1,0,23.74a.58.58,0,0,1,.34-.53l4.48-2.09a.58.58,0,1,1,.49,1.06L1.93,23.76l19.55,9.85L41,23.76l-3.45-1.61a.58.58,0,0,1-.28-.78.57.57,0,0,1,.77-.28l4.55,2.12a.59.59,0,0,1,.33.53.57.57,0,0,1-.32.53L21.75,34.78A.54.54,0,0,1,21.48,34.85Z"/><path class="cls-1" d="M21.48,42.23a.58.58,0,0,1-.26-.06L.32,31.65a.58.58,0,0,1,0-1l4.48-2.1a.6.6,0,0,1,.78.28.59.59,0,0,1-.29.78L1.93,31.15,21.48,41,41,31.15l-3.45-1.62a.58.58,0,0,1,.49-1.06l4.55,2.13a.59.59,0,0,1,.33.52.56.56,0,0,1-.32.53L21.75,42.17A.66.66,0,0,1,21.48,42.23Z"/></g></g></svg>