<svg id="Capa_1" enable-background="new 0 0 512.032 512.032" height="512" viewBox="0 0 512.032 512.032" width="512" xmlns="http://www.w3.org/2000/svg"><g><path d="m512.01 497.226c.002-.107.097-305.396-.117-307.099-.538-4.261-2.872-7.939-6.057-10.25-58.337-42.399-86.598-62.876-106.818-77.672v-87.194c0-8.284-6.716-15-15-15h-256c-8.284 0-15 6.716-15 15v87.203c-26.541 19.414-103.793 75.406-106.941 77.762-3.203 2.379-5.489 6.06-5.963 10.414-.19 1.75-.094 307.194-.055 307.72.561 7.731 7.027 13.9 14.958 13.9 502.666 0 482.252.059 483.653-.096 7.51-.831 13.234-7.13 13.34-14.688zm-481.993-275.699 167.907 122.538-167.907 123.318zm226 117.095c8.999 6.609 186.407 136.904 195.236 143.389h-390.472c8.824-6.481 186.237-136.78 195.236-143.389zm226-117.095v245.855l-167.907-123.317zm-10.481-29.49-72.519 52.924v-105.619c15.104 10.995 39.532 28.727 72.519 52.695zm-102.519-162.026v236.844l-80.271 58.582-23.85-17.516c-5.283-3.881-12.475-3.881-17.758 0l-23.85 17.516-80.271-58.582v-236.844zm-256 109.334v105.616l-72.521-52.926c28.927-21.02 59.574-43.268 72.521-52.69z"/></g></svg>