<svg xmlns="http://www.w3.org/2000/svg" viewBox="0 0 72.4 18.35"><defs><style>.cls-1{fill:#1e8fff;}</style></defs><g id="Layer_2" data-name="Layer 2"><g id="Layer_2-2" data-name="Layer 2"><polygon class="cls-1" points="0 2.71 2.83 2.71 2.83 13.02 8.07 13.02 8.07 15.63 0 15.63 0 2.71"/><path class="cls-1" d="M9.32,6.87H12v8.76H9.32Zm1.36-4.35A1.58,1.58,0,1,1,9.1,4.1a1.58,1.58,0,0,1,1.58-1.58"/><polygon class="cls-1" points="23.41 2.71 26.13 2.71 26.13 10.44 29.21 6.87 32.54 6.87 28.98 10.92 32.47 15.63 29.05 15.63 26.16 11.3 26.13 11.3 26.13 15.63 23.41 15.63 23.41 2.71"/><path class="cls-1" d="M13.54,6.88h2.62V8.07h0a2.85,2.85,0,0,1,2.58-1.41c2.75,0,3.26,1.81,3.26,4.17v4.8H19.31V11.37c0-1,0-2.32-1.41-2.32s-1.64,1.11-1.64,2.25v4.33H13.54Z"/><path class="cls-1" d="M38.27,10.23A1.63,1.63,0,0,0,36.6,8.57a1.8,1.8,0,0,0-1.92,1.66Zm2.3,3.88a4.78,4.78,0,0,1-3.72,1.75,4.63,4.63,0,1,1,0-9.25c2.54,0,4.14,1.81,4.14,4.62v.85H34.68a2,2,0,0,0,2,1.71,2.34,2.34,0,0,0,1.94-1.07Z"/><path class="cls-1" d="M46.65,9a2.06,2.06,0,0,0-2.17,2.23,2.18,2.18,0,1,0,4.35,0A2.06,2.06,0,0,0,46.65,9m4.68,6.64h-2.5V14.47h0a3.44,3.44,0,0,1-2.71,1.38,4.23,4.23,0,0,1-4.33-4.55c0-2.45,1.52-4.7,4-4.7a3.3,3.3,0,0,1,2.8,1.16h0v-5h2.72Z"/><path class="cls-1" d="M71,0H55.41a1.33,1.33,0,0,0-1.35,1.32V17a1.34,1.34,0,0,0,1.35,1.33H71A1.35,1.35,0,0,0,72.4,17V1.32A1.34,1.34,0,0,0,71,0ZM59.5,15.63H56.77V6.88H59.5Zm-1.37-10A1.58,1.58,0,1,1,59.71,4.1,1.57,1.57,0,0,1,58.13,5.68Zm11.56,10H67V11.38c0-1,0-2.33-1.42-2.33s-1.63,1.11-1.63,2.25v4.33H61.2V6.88h2.61v1.2h0a2.85,2.85,0,0,1,2.57-1.42c2.76,0,3.27,1.81,3.27,4.17Z"/></g></g></svg>