<svg xmlns="http://www.w3.org/2000/svg" viewBox="0 0 295.83 113.77"><defs><style>.cls-1{fill:#f1125b;}.cls-2{fill:#ffd100;}.cls-3{fill:#1e8fff;}</style></defs><g id="Layer_2" data-name="Layer 2"><g id="Layer_2-2" data-name="Layer 2"><path class="cls-1" d="M211,56a3.79,3.79,0,1,0,3.79-3.79A3.79,3.79,0,0,0,211,56Z"/><path class="cls-2" d="M290.31,56a3.79,3.79,0,1,0-3.79,3.79A3.79,3.79,0,0,0,290.31,56Z"/><path class="cls-3" d="M246.47,56a3.79,3.79,0,1,0,3.79-3.79A3.79,3.79,0,0,0,246.47,56Z"/><path d="M33.49,26.65A8.7,8.7,0,0,0,36.32,25a7.43,7.43,0,0,0,1.81-2.42,6.63,6.63,0,0,0,.64-2.83,6.44,6.44,0,0,0-1.34-4,8.06,8.06,0,0,0-3.18-2.52h0a6.61,6.61,0,0,0,1.15-1.51,6.16,6.16,0,0,0,.77-3,6.31,6.31,0,0,0-.56-2.58A6.59,6.59,0,0,0,34,4a8.17,8.17,0,0,0-5.83-2.08H20.63l0,25.36H30.1A10,10,0,0,0,33.49,26.65Zm-1.12-16a4.47,4.47,0,0,1-1.54,1.21,5.75,5.75,0,0,1-1.18.32,9.3,9.3,0,0,1-1.53.1H23.73V5h4.46a6.25,6.25,0,0,1,2.72.55,4,4,0,0,1,1.62,1.38,3.26,3.26,0,0,1,.53,1.76A2.85,2.85,0,0,1,32.37,10.65Zm-8.64,4.77h5.16a10.54,10.54,0,0,1,4.16.71,4.86,4.86,0,0,1,1.87,1.49,3.35,3.35,0,0,1,.75,2.15A3.68,3.68,0,0,1,35,21.82a5,5,0,0,1-1.94,1.65,6.51,6.51,0,0,1-3,.66H23.73Z"/><path d="M59.81,24.3A10,10,0,0,0,63,26.5a9.71,9.71,0,0,0,7.58,0,10,10,0,0,0,3.16-2.19,9.12,9.12,0,0,0,2.13-3.19,10.17,10.17,0,0,0,.74-3.84V1.66h-3.1V17.28A7.09,7.09,0,0,1,73,20a6.67,6.67,0,0,1-1.44,2.19,6.77,6.77,0,0,1-2.2,1.48,6.64,6.64,0,0,1-5.14,0A6.68,6.68,0,0,1,60.57,20a7.09,7.09,0,0,1-.51-2.67V1.66H57V17.28a10.17,10.17,0,0,0,.74,3.84A9.1,9.1,0,0,0,59.81,24.3Z"/><path d="M107.34,22.79a7.43,7.43,0,0,1-4.53,1.36,8.67,8.67,0,0,1-2.52-.36,6.3,6.3,0,0,1-2-1A3.46,3.46,0,0,1,96.58,20l-.06-1.16-3.06,1.7.11.52a6.82,6.82,0,0,0,2.82,4.23,9.94,9.94,0,0,0,3,1.47,11.66,11.66,0,0,0,3.45.51,10.84,10.84,0,0,0,6.42-2,7.16,7.16,0,0,0,2.12-2.39A6.12,6.12,0,0,0,112.1,20,6,6,0,0,0,111,16.61a8.59,8.59,0,0,0-2.88-2.56,8.27,8.27,0,0,0-1.78-.69,17.24,17.24,0,0,0-2.07-.42l-1.3-.19c-1-.12-1.77-.23-2.38-.34a5.94,5.94,0,0,1-1.51-.47,5.14,5.14,0,0,1-1.84-1.53,3,3,0,0,1-.7-1.83A2.76,2.76,0,0,1,97,7.17a4.71,4.71,0,0,1,1.29-1.36,6.13,6.13,0,0,1,2-1,9,9,0,0,1,5,0,6.54,6.54,0,0,1,2,1,4.63,4.63,0,0,1,1.23,1.33A3.16,3.16,0,0,1,109,8.57l0,1.18,3-1.71-.08-.5a6.78,6.78,0,0,0-2.8-4.22,10.78,10.78,0,0,0-6.41-2,11.57,11.57,0,0,0-3.45.51,10.11,10.11,0,0,0-3,1.47,7.6,7.6,0,0,0-2.13,2.34,5.84,5.84,0,0,0-.77,2.91,6.06,6.06,0,0,0,1.16,3.56,8.08,8.08,0,0,0,3.11,2.57h0a10.5,10.5,0,0,0,2.94.87q1.61.27,1.89.3a13.06,13.06,0,0,1,4.08.91,5.12,5.12,0,0,1,1.76,1.48A2.85,2.85,0,0,1,109,20,3.45,3.45,0,0,1,107.34,22.79Z"/><rect x="139.06" y="1.89" width="3.1" height="25.35"/><polygon points="170.78 8.77 187.33 28.59 187.33 1.56 184.23 1.56 184.23 19.79 167.68 0 167.68 26.92 170.78 26.92 170.78 8.77"/><polygon points="223.29 24.08 209.46 24.08 209.46 16.15 220.24 16.15 220.24 13.01 209.46 13.01 209.46 5.04 223.29 5.04 223.29 1.91 206.36 1.91 206.36 27.26 223.29 27.26 223.29 24.08"/><path d="M254.81,22.8a7.37,7.37,0,0,1-4.53,1.37,8.67,8.67,0,0,1-2.52-.36,6.41,6.41,0,0,1-2-1A3.49,3.49,0,0,1,244.05,20L244,18.88l-3.06,1.7.11.51a6.77,6.77,0,0,0,2.82,4.24,10.16,10.16,0,0,0,3,1.46,11.57,11.57,0,0,0,3.45.51,10.77,10.77,0,0,0,6.42-2,7.07,7.07,0,0,0,2.12-2.39,6.08,6.08,0,0,0,.75-2.93,6,6,0,0,0-1.06-3.37,8.38,8.38,0,0,0-2.88-2.56,8.27,8.27,0,0,0-1.78-.69,16.85,16.85,0,0,0-2.07-.42l-1.3-.19c-1-.12-1.77-.24-2.38-.34a5.94,5.94,0,0,1-1.51-.47,5.17,5.17,0,0,1-1.84-1.54,3,3,0,0,1-.7-1.82,2.8,2.8,0,0,1,.41-1.42,4.84,4.84,0,0,1,1.29-1.36,6.31,6.31,0,0,1,2-1,8.94,8.94,0,0,1,5,0,6.69,6.69,0,0,1,2.06,1A5,5,0,0,1,256,7.16a3.16,3.16,0,0,1,.43,1.43l0,1.17,3.05-1.7-.08-.51a6.76,6.76,0,0,0-2.8-4.21,10.79,10.79,0,0,0-6.41-2,11.57,11.57,0,0,0-3.45.51,10.36,10.36,0,0,0-3,1.47,7.71,7.71,0,0,0-2.13,2.34A5.85,5.85,0,0,0,241,8.6a6.08,6.08,0,0,0,1.16,3.56,8.17,8.17,0,0,0,3.11,2.57h0a10.85,10.85,0,0,0,2.94.87l1.89.3a13.15,13.15,0,0,1,4.08.91,5.12,5.12,0,0,1,1.76,1.48,2.85,2.85,0,0,1,.58,1.71A3.44,3.44,0,0,1,254.81,22.8Z"/><path d="M291.89,14a8.27,8.27,0,0,0-1.78-.69,17.4,17.4,0,0,0-2.08-.42l-1.3-.18c-1-.12-1.76-.24-2.37-.35a5.94,5.94,0,0,1-1.51-.47A5.14,5.14,0,0,1,281,10.33a3,3,0,0,1-.7-1.83,2.76,2.76,0,0,1,.41-1.41A4.57,4.57,0,0,1,282,5.73a6.07,6.07,0,0,1,2-1,9.06,9.06,0,0,1,5,0,7,7,0,0,1,2.05,1,4.75,4.75,0,0,1,1.23,1.33,3.06,3.06,0,0,1,.44,1.44l0,1.17L295.83,8l-.09-.5A6.72,6.72,0,0,0,293,3.24a10.81,10.81,0,0,0-6.42-2,11.66,11.66,0,0,0-3.45.51,10.18,10.18,0,0,0-3,1.47A7.58,7.58,0,0,0,278,5.59a5.84,5.84,0,0,0-.77,2.91,6,6,0,0,0,1.16,3.56,8,8,0,0,0,3.11,2.57,10.53,10.53,0,0,0,2.93.87c1.08.18,1.7.28,1.89.3a13.06,13.06,0,0,1,4.08.91,5.37,5.37,0,0,1,1.77,1.48,2.85,2.85,0,0,1,.58,1.71,3.48,3.48,0,0,1-1.66,2.81,7.46,7.46,0,0,1-4.54,1.36,9,9,0,0,1-2.51-.35,6.32,6.32,0,0,1-2-1,3.47,3.47,0,0,1-1.68-2.75l-.06-1.16-3.05,1.7.1.52a6.83,6.83,0,0,0,2.82,4.23,10.18,10.18,0,0,0,3,1.47,11.66,11.66,0,0,0,3.45.51,10.78,10.78,0,0,0,6.43-2,7.27,7.27,0,0,0,2.12-2.39,6.09,6.09,0,0,0,.75-2.94,5.85,5.85,0,0,0-1.07-3.36A8.47,8.47,0,0,0,291.89,14Z"/><polygon points="36.41 59.81 19.85 40.03 19.85 66.94 22.95 66.94 22.95 48.79 39.51 68.62 39.51 41.59 36.41 41.59 36.41 59.81"/><path d="M73.22,43.07a12.81,12.81,0,0,0-17.55,4.71,13,13,0,0,0,4.68,17.68,12.77,12.77,0,0,0,12.87,0,13,13,0,0,0,0-22.39Zm3.25,11.2a9.67,9.67,0,0,1-1.3,4.91,10,10,0,0,1-3.53,3.57,9.65,9.65,0,0,1-9.71,0,10.06,10.06,0,0,1-3.56-3.57,9.88,9.88,0,0,1,0-9.83,10.06,10.06,0,0,1,3.56-3.57,9.65,9.65,0,0,1,9.71,0,9.9,9.9,0,0,1,3.53,3.57A9.7,9.7,0,0,1,76.47,54.27Z"/><path d="M109.51,57.21a7.09,7.09,0,0,1-.51,2.67,6.55,6.55,0,0,1-1.45,2.19,6.63,6.63,0,0,1-2.19,1.48,6.7,6.7,0,0,1-8.78-3.67,7.09,7.09,0,0,1-.52-2.67V41.59H93V57.21A10.09,10.09,0,0,0,93.7,61a9.1,9.1,0,0,0,2.12,3.18A9.7,9.7,0,0,0,99,66.42a9.6,9.6,0,0,0,7.58,0,9.83,9.83,0,0,0,3.16-2.18,9.3,9.3,0,0,0,2.13-3.2,10.16,10.16,0,0,0,.74-3.83V41.59h-3.11Z"/><path d="M141.4,56.41l.89-.08a8.2,8.2,0,0,0,2.42-.7,7.66,7.66,0,0,0,3.17-2.53A6.58,6.58,0,0,0,149.24,49a6.66,6.66,0,0,0-.64-2.81,7.68,7.68,0,0,0-1.81-2.4A8.34,8.34,0,0,0,144,42.17a9.77,9.77,0,0,0-3.41-.58H131.5V66.94h3.1V44.69h6a6.42,6.42,0,0,1,3,.66A5,5,0,0,1,145.49,47a3.67,3.67,0,0,1,.65,2,3.47,3.47,0,0,1-.77,2.19,5.26,5.26,0,0,1-1.87,1.56,11.07,11.07,0,0,1-4.14.64h-4.47l11,13.4.1.11h4.08Z"/><path d="M166.29,66.94h3.43l2.84-6.07h11.79L187,66.94h3.37L178.7,40.26Zm12.3-19.09L183,57.77h-9Z"/><path d="M138.61,82.48a1.71,1.71,0,1,0-1.7,1.7A1.71,1.71,0,0,0,138.61,82.48Z"/><path d="M132.4,89.07a10.27,10.27,0,0,0,7.26,17.53h5.14V86.06h-5.14A9.94,9.94,0,0,0,132.4,89.07Zm9.29.17v14.21h-2.23a6.61,6.61,0,0,1-4.83-2,7.14,7.14,0,0,1,5-12.19Z"/><path d="M144.18,82.48a1.71,1.71,0,1,0-3.41,0,1.71,1.71,0,0,0,3.41,0Z"/><path d="M152.75,107.35a2.83,2.83,0,0,1-1.17,2.26,4.77,4.77,0,0,1-2.42,1l-.63.07v3.1l.79-.06a7.9,7.9,0,0,0,4.33-1.75,5.86,5.86,0,0,0,2.22-4.61V86.06h-3.12Z"/><path d="M185.59,103.45H175V86.06h-5.14a10.27,10.27,0,0,0,0,20.54h2v.75a2.85,2.85,0,0,1-1.18,2.26,4.68,4.68,0,0,1-3,1,5,5,0,0,1-2.12-.45A4.31,4.31,0,0,1,164,109l-.93-1.24-2.5,1.89.93,1.24a7.19,7.19,0,0,0,2.69,2.15,8.23,8.23,0,0,0,3.49.75,7.85,7.85,0,0,0,5.11-1.78,5.83,5.83,0,0,0,2.22-4.61v-.75h13.75V86.06h-3.15ZM171.88,89.24v14.21h-2.23a6.53,6.53,0,0,1-4.83-2,7.14,7.14,0,0,1,5-12.19Z"/><path d="M187.17,80.94a1.71,1.71,0,1,0,1.7,1.7A1.71,1.71,0,0,0,187.17,80.94Z"/><path d="M251.79,103.45H244.4V86.06h-3.12v17.39h-5.76V86.13h-3.11v17.32h-5.73V86.13h-3.15v23.05H220a12.21,12.21,0,0,1-7.71-2.5,6.91,6.91,0,0,1-3.06-5.65V94.77h-3.12V101a9.5,9.5,0,0,0,1.17,4.54,12,12,0,0,0,3.07,3.59,13.91,13.91,0,0,0,4.4,2.31,16,16,0,0,0,5.05.86h6.85V106.6h28.26V86.06h-3.15Z"/><path d="M253.37,80.94a1.71,1.71,0,1,0,1.7,1.7A1.71,1.71,0,0,0,253.37,80.94Z"/><path d="M262.05,84.35a1.71,1.71,0,1,0-1.71-1.71A1.71,1.71,0,0,0,262.05,84.35Z"/><path d="M291,108.61a1.71,1.71,0,1,0,1.71,1.71A1.71,1.71,0,0,0,291,108.61Z"/><path d="M292.66,86.06h-3.11v17.39h-26V86.06h-3.11v21.29a2.85,2.85,0,0,1-1.18,2.26,4.73,4.73,0,0,1-2.41,1l-.64.07v3.1l.79-.06A7.87,7.87,0,0,0,261.3,112a5.83,5.83,0,0,0,2.22-4.61v-.75h29.14Z"/><path class="cls-3" d="M66.78,99.54A3.79,3.79,0,1,0,63,95.75,3.79,3.79,0,0,0,66.78,99.54Z"/><path class="cls-2" d="M29.68,99.54a3.79,3.79,0,1,0-3.79-3.79A3.79,3.79,0,0,0,29.68,99.54Z"/><path class="cls-1" d="M102.79,92a3.79,3.79,0,1,0,3.79,3.79A3.79,3.79,0,0,0,102.79,92Z"/><path d="M9.26,2.49A6.51,6.51,0,0,1,11.37,3.9a6.65,6.65,0,0,1,1.91,4.72,6.6,6.6,0,0,1-.51,2.61,6.72,6.72,0,0,1-1.4,2.1,6.65,6.65,0,0,1-4.73,1.91A6.65,6.65,0,0,1,4,14.73a6.41,6.41,0,0,1-3.51-3.5A6.6,6.6,0,0,1,0,8.62,6.67,6.67,0,0,1,.51,6,6.49,6.49,0,0,1,1.91,3.9,6.41,6.41,0,0,1,4,2.49,6.65,6.65,0,0,1,6.64,2,6.69,6.69,0,0,1,9.26,2.49ZM4.4,3.37a5.42,5.42,0,0,0-2.95,3A5.86,5.86,0,0,0,1,8.62a5.9,5.9,0,0,0,.42,2.23,5.49,5.49,0,0,0,1.17,1.8A5.4,5.4,0,0,0,4.4,13.86a5.5,5.5,0,0,0,2.24.45,5.44,5.44,0,0,0,2.22-.45,5.44,5.44,0,0,0,3-3,5.72,5.72,0,0,0,.43-2.23,5.68,5.68,0,0,0-.43-2.23,5.53,5.53,0,0,0-1.17-1.81A5.67,5.67,0,0,0,8.86,3.37a5.44,5.44,0,0,0-2.22-.45A5.5,5.5,0,0,0,4.4,3.37Zm-.17,9.08V4.78H7.17a2.76,2.76,0,0,1,1.9.54,2,2,0,0,1,.6,1.58,2.35,2.35,0,0,1-.15.88,1.74,1.74,0,0,1-.42.63,2.11,2.11,0,0,1-.61.41A3.1,3.1,0,0,1,7.74,9L10,12.45H8.92L6.76,9H5.17v3.41Zm3-4.24A2.07,2.07,0,0,0,8,8.06a1,1,0,0,0,.52-.4,1.29,1.29,0,0,0,.2-.76,1.2,1.2,0,0,0-.16-.66,1.12,1.12,0,0,0-.41-.4,1.54,1.54,0,0,0-.58-.2,3.63,3.63,0,0,0-.67-.06H5.17V8.24H6.42C6.71,8.24,7,8.23,7.27,8.21Z"/></g></g></svg>