<svg xmlns="http://www.w3.org/2000/svg" viewBox="0 0 22.73 18.18"><defs><style>.cls-1{fill:#fff;fill-rule:evenodd;}</style></defs><g id="Layer_2" data-name="Layer 2"><g id="Layer_2-2" data-name="Layer 2"><path class="cls-1" d="M22.11.33a9.6,9.6,0,0,1-3,1.12A4.69,4.69,0,0,0,15.74,0a4.63,4.63,0,0,0-4.67,4.59,4.57,4.57,0,0,0,.13,1A13.34,13.34,0,0,1,1.58.84,4.55,4.55,0,0,0,3,7,4.72,4.72,0,0,1,.91,6.39v.06A4.61,4.61,0,0,0,4.65,11a4.51,4.51,0,0,1-1.23.16A5,5,0,0,1,2.55,11,4.65,4.65,0,0,0,6.9,14.22a9.43,9.43,0,0,1-5.79,2A10.18,10.18,0,0,1,0,16.12a13.4,13.4,0,0,0,7.15,2.06A13.07,13.07,0,0,0,20.42,5.12c0-.2,0-.39,0-.59a9.37,9.37,0,0,0,2.32-2.38,9.15,9.15,0,0,1-2.68.72A4.56,4.56,0,0,0,22.11.33"/></g></g></svg>