<svg xmlns="http://www.w3.org/2000/svg" viewBox="0 0 57.06 17.63"><defs><style>.cls-1{fill:#fff;}</style></defs><g id="Layer_2" data-name="Layer 2"><g id="Layer_2-2" data-name="Layer 2"><path class="cls-1" d="M9.88,17.07A3,3,0,0,1,8.7,15.33a11.22,11.22,0,0,1-.35-3.15V10.4a10.29,10.29,0,0,1,.4-3.19A3.15,3.15,0,0,1,10,5.46a4,4,0,0,1,2.23-.55,3.86,3.86,0,0,1,2.19.56,3.28,3.28,0,0,1,1.2,1.75A11,11,0,0,1,16,10.4v1.78a10.89,10.89,0,0,1-.37,3.16,3.15,3.15,0,0,1-1.2,1.74,4,4,0,0,1-2.26.55A4.08,4.08,0,0,1,9.88,17.07ZM13,15.15a5.85,5.85,0,0,0,.23-2V9.36A5.81,5.81,0,0,0,13,7.42a.83.83,0,0,0-1.6,0,6.08,6.08,0,0,0-.23,1.94v3.82a6.19,6.19,0,0,0,.22,2,.8.8,0,0,0,.8.6A.82.82,0,0,0,13,15.15Z"/><path class="cls-1" d="M52.43,12.21v.62a15.78,15.78,0,0,0,.07,1.78,1.8,1.8,0,0,0,.29.86,1,1,0,0,0,1.53-.21,4.18,4.18,0,0,0,.26-1.61l2.38.14c0,.11,0,.26,0,.44a3.27,3.27,0,0,1-.93,2.55,3.8,3.8,0,0,1-2.64.84,3.14,3.14,0,0,1-2.86-1.28,7.51,7.51,0,0,1-.82-4V10.23a7.41,7.41,0,0,1,.85-4,3.24,3.24,0,0,1,2.91-1.27,3.85,3.85,0,0,1,2.19.52,2.86,2.86,0,0,1,1.07,1.62,11.65,11.65,0,0,1,.31,3.05v2.1ZM52.78,7a1.76,1.76,0,0,0-.28.85,16,16,0,0,0-.07,1.8v.88h2V9.69a15.81,15.81,0,0,0-.08-1.8,1.81,1.81,0,0,0-.3-.86.78.78,0,0,0-.65-.25A.8.8,0,0,0,52.78,7Z"/><path class="cls-1" d="M3.15,12,0,.62H2.74L3.85,5.77C4.13,7,4.33,8.12,4.47,9h.08c.09-.65.3-1.72.62-3.23L6.31.62H9.06L5.87,12v5.45H3.15Z"/><path class="cls-1" d="M24.93,5.15V17.43H22.76l-.24-1.5h-.06a2.84,2.84,0,0,1-2.64,1.7,2.1,2.1,0,0,1-1.81-.8,4.35,4.35,0,0,1-.58-2.5V5.15H20.2v9a2.79,2.79,0,0,0,.18,1.17.63.63,0,0,0,.6.35,1.28,1.28,0,0,0,.69-.22,1.46,1.46,0,0,0,.49-.56V5.15Z"/><path class="cls-1" d="M39.11,5.15V17.43H36.94l-.24-1.5h-.06A2.83,2.83,0,0,1,34,17.63a2.07,2.07,0,0,1-1.8-.8,4.26,4.26,0,0,1-.59-2.5V5.15h2.77v9a2.79,2.79,0,0,0,.18,1.17.63.63,0,0,0,.6.35,1.28,1.28,0,0,0,.69-.22,1.38,1.38,0,0,0,.49-.56V5.15Z"/><path class="cls-1" d="M32.44,2.85H29.69V17.43H27V2.85H24.24V.62h8.2Z"/><path class="cls-1" d="M48.26,7.11a3.22,3.22,0,0,0-.81-1.68,2.19,2.19,0,0,0-1.55-.52,2.54,2.54,0,0,0-1.42.43,2.92,2.92,0,0,0-1,1.13h0V0H40.78V17.43h2.28l.28-1.16h.06a2.32,2.32,0,0,0,1,1,2.86,2.86,0,0,0,1.42.36,2.18,2.18,0,0,0,2.07-1.29,9.32,9.32,0,0,0,.66-4V10.34A16,16,0,0,0,48.26,7.11Zm-2.54,5a14.59,14.59,0,0,1-.11,2.11,2.22,2.22,0,0,1-.37,1.08.85.85,0,0,1-.7.32,1.23,1.23,0,0,1-.63-.16,1.28,1.28,0,0,1-.47-.48V8a1.74,1.74,0,0,1,.48-.82,1.08,1.08,0,0,1,.74-.32.74.74,0,0,1,.65.33,2.45,2.45,0,0,1,.32,1.12,20.71,20.71,0,0,1,.09,2.22Z"/></g></g></svg>